nimbus-sans-l_bold.sfdir

StartChar: exclam
Encoding: 33 33 1
Width: 333
Flags: MW
HStem: 0 146<112 262 112 262>
VStem: 112 150<0 146 0 146 516 726>
LayerCount: 2
Fore
SplineSet
262 726 m 1
 262 516 l 1
 220 207 l 1
 153 207 l 1
 112 516 l 1
 112 726 l 1
 262 726 l 1
262 146 m 1
 262 0 l 1
 112 0 l 1
 112 146 l 1
 262 146 l 1
EndSplineSet
EndChar

StartChar: quotedbl
Encoding: 34 34 2
Width: 474
Flags: MW
HStem: 470 259<90 146 90 90 326 326 326 382>
VStem: 50 138<599 729 599 729> 286 138<599 729 599 729>
LayerCount: 2
Fore
SplineSet
188 729 m 1
 188 599 l 1
 146 470 l 1
 90 470 l 1
 50 599 l 1
 50 729 l 1
 188 729 l 1
424 729 m 1
 424 599 l 1
 382 470 l 1
 326 470 l 1
 286 599 l 1
 286 729 l 1
 424 729 l 1
EndSplineSet
EndChar

StartChar: numbersign
Encoding: 35 35 3
Width: 556
Flags: MW
HStem: 172 99<3 80 3 100 3 186 205 289 413 513> 424 99<31 130 31 150 31 235 255 338 463 553>
LayerCount: 2
Fore
SplineSet
146 -32 m 1
 40 -32 l 1
 80 172 l 1
 3 172 l 1
 3 271 l 1
 100 271 l 1
 130 424 l 1
 31 424 l 1
 31 523 l 1
 150 523 l 1
 184 697 l 1
 289 697 l 1
 255 523 l 1
 358 523 l 1
 392 697 l 1
 497 697 l 1
 463 523 l 1
 553 523 l 1
 553 424 l 1
 444 424 l 1
 413 271 l 1
 513 271 l 1
 513 172 l 1
 394 172 l 1
 354 -32 l 1
 249 -32 l 1
 289 172 l 1
 186 172 l 1
 146 -32 l 1
205 271 m 1
 308 271 l 1
 338 424 l 1
 235 424 l 1
 205 271 l 1
EndSplineSet
EndChar

StartChar: dollar
Encoding: 36 36 4
Width: 556
Flags: MW
VStem: 39 123<494 541.5 494 568> 243 68<-126 -21 -126 -21 86 282 427 608 709 763> 395 132<158 207>
LayerCount: 2
Fore
SplineSet
517 498 m 1
 389 498 l 1
 391 559 362 601 311 608 c 1
 311 407 l 1
 466 364 527 305 527 195 c 0
 527 120 495 55 441 20 c 0
 408 -1 366 -15 311 -21 c 1
 311 -126 l 1
 243 -126 l 1
 243 -21 l 1
 183 -15 146 -2 108 25 c 0
 52 65 22 125 22 198 c 2
 22 207 l 1
 153 207 l 1
 156 137 187 96 243 86 c 1
 243 299 l 1
 108 330 39 401 39 512 c 0
 39 624 114 697 243 709 c 1
 243 763 l 1
 311 763 l 1
 311 709 l 1
 437 702 515 623 517 498 c 1
243 427 m 1
 243 608 l 1
 188 597 162 567 162 516 c 0
 162 472 187 445 243 427 c 1
311 282 m 1
 311 86 l 1
 367 100 395 133 395 183 c 0
 395 231 367 265 311 282 c 1
EndSplineSet
EndChar

StartChar: percent
Encoding: 37 37 5
Width: 889
Flags: W
HStem: -20 20 -13 98<655.5 702 655.5 729> 253 99<655.5 702.5> 337 98<182.5 229 182.5 256> 602 99<182.5 229.5>
VStem: 22 99<496 541.5 496 569> 291 99<495.5 541.5> 495 99<146 192 146 220> 764 99<145.5 191.5>
LayerCount: 2
Fore
SplineSet
206 701 m 0x9f80
 309 701 390 620 390 517 c 0
 390 419 306 337 206 337 c 0
 105 337 22 419 22 519 c 0
 22 619 105 701 206 701 c 0x9f80
206 602 m 0
 159 602 121 564 121 519 c 0
 121 473 159 435 206 435 c 0
 252 435 291 473 291 518 c 0
 291 565 253 602 206 602 c 0
606 709 m 1
 682 709 l 1
 287 -20 l 1
 210 -20 l 1
 606 709 l 1
679 352 m 0x6780
 782 352 863 271 863 167 c 0
 863 69 779 -13 679 -13 c 0
 578 -13 495 69 495 170 c 0
 495 270 578 352 679 352 c 0x6780
679 253 m 0
 632 253 594 215 594 169 c 0
 594 123 632 85 679 85 c 0
 725 85 764 123 764 168 c 0
 764 215 726 253 679 253 c 0
EndSplineSet
EndChar

StartChar: ampersand
Encoding: 38 38 6
Width: 722
Flags: W
HStem: -23 116<267 309.5 267 326> 614 109<303 338>
VStem: 55 133<180 226.5 180 240> 130 132<553.5 580 553.5 603> 377 120<538.5 574.5>
LayerCount: 2
Fore
SplineSet
526 373 m 1xd8
 639 373 l 1
 639 362 l 1
 639 357 l 1
 637 281 611 200 571 154 c 1
 694 0 l 1
 533 0 l 1
 487 56 l 1
 406 -5 360 -23 292 -23 c 0
 150 -23 55 63 55 193 c 0xe0
 55 287 95 340 212 401 c 1
 206 409 202 414 200 416 c 2
 172 450 l 2
 144 483 130 519 130 556 c 0
 130 650 212 723 319 723 c 0
 426 723 497 661 497 568 c 0
 497 496 469 453 380 392 c 1
 496 248 l 1
 518 290 526 320 526 363 c 2
 526 373 l 1xd8
278 319 m 1
 231 290 l 1
 204 272 188 243 188 210 c 0
 188 150 240 93 294 93 c 0
 325 93 367 112 414 148 c 1
 278 319 l 1
317 470 m 1xd8
 357 492 377 521 377 556 c 0
 377 593 356 614 320 614 c 0
 286 614 262 594 262 566 c 0
 262 541 267 533 317 470 c 1xd8
EndSplineSet
EndChar

StartChar: quotesingle
Encoding: 169 39 103
Width: 238
Flags: MW
HStem: 470 259<90 146 90 90>
VStem: 50 138<599 729 599 729>
LayerCount: 2
Fore
SplineSet
188 729 m 1
 188 599 l 1
 146 470 l 1
 90 470 l 1
 50 599 l 1
 50 729 l 1
 188 729 l 1
EndSplineSet
EndChar

StartChar: parenleft
Encoding: 40 40 8
Width: 333
Flags: MW
HStem: 709 20<203 303 303 303>
VStem: 40 123<191.5 338 191.5 341.5>
LayerCount: 2
Fore
SplineSet
203 729 m 1
 303 729 l 1
 197 525 163 411 163 265 c 0
 163 118 197 6 303 -200 c 1
 203 -200 l 1
 88 -27 40 111 40 265 c 0
 40 418 88 556 203 729 c 1
EndSplineSet
EndChar

StartChar: parenright
Encoding: 41 41 9
Width: 333
Flags: MW
HStem: 709 20<22 122 122 122>
VStem: 162 123<191 337.5>
LayerCount: 2
Fore
SplineSet
122 -200 m 1
 22 -200 l 1
 128 4 162 118 162 264 c 0
 162 411 128 523 22 729 c 1
 122 729 l 1
 237 556 285 418 285 264 c 0
 285 111 237 -27 122 -200 c 1
EndSplineSet
EndChar

StartChar: asterisk
Encoding: 42 42 10
Width: 389
Flags: MW
HStem: 709 20<154 226 226 226>
VStem: 154 72<613 729 613 729>
LayerCount: 2
Fore
SplineSet
132 544 m 1
 23 580 l 1
 45 649 l 1
 154 613 l 1
 154 729 l 1
 226 729 l 1
 226 613 l 1
 335 649 l 1
 357 579 l 1
 248 544 l 1
 315 450 l 1
 257 407 l 1
 190 501 l 1
 123 407 l 1
 65 450 l 1
 132 544 l 1
EndSplineSet
EndChar

StartChar: plus
Encoding: 43 43 11
Width: 584
Flags: MW
HStem: -10 20 172 119<50 232 50 232 351 533>
VStem: 232 119<-10 172 -10 172 291 473>
LayerCount: 2
Fore
SplineSet
533 291 m 1
 533 172 l 1
 351 172 l 1
 351 -10 l 1
 232 -10 l 1
 232 172 l 1
 50 172 l 1
 50 291 l 1
 232 291 l 1
 232 473 l 1
 351 473 l 1
 351 291 l 1
 533 291 l 1
EndSplineSet
EndChar

StartChar: comma
Encoding: 44 44 12
Width: 278
Flags: MW
HStem: 0 146<64 150 64 214>
VStem: 64 150<-174 9 -118 9 0 9 9 146 -30 146>
LayerCount: 2
Fore
SplineSet
64 146 m 1
 214 146 l 1
 214 9 l 2
 214 -69 200 -106 160 -137 c 0
 133 -158 105 -169 64 -174 c 1
 64 -118 l 1
 123 -106 150 -71 150 -3 c 2
 150 0 l 1
 64 0 l 1
 64 146 l 1
EndSplineSet
EndChar

StartChar: hyphen
Encoding: 45 45 13
Width: 333
Flags: MW
HStem: 207 135<26 298 26 298>
LayerCount: 2
Fore
SplineSet
298 342 m 1
 298 207 l 1
 26 207 l 1
 26 342 l 1
 298 342 l 1
EndSplineSet
EndChar

StartChar: period
Encoding: 46 46 14
Width: 278
Flags: MW
HStem: 0 146<64 214 64 214>
VStem: 64 150<0 146 0 146>
LayerCount: 2
Fore
SplineSet
214 146 m 1
 214 0 l 1
 64 0 l 1
 64 146 l 1
 214 146 l 1
EndSplineSet
EndChar

StartChar: slash
Encoding: 47 47 15
Width: 278
Flags: MW
HStem: -14 20
LayerCount: 2
Fore
SplineSet
208 714 m 1
 275 714 l 1
 69 -14 l 1
 2 -14 l 1
 208 714 l 1
EndSplineSet
EndChar

StartChar: zero
Encoding: 48 48 16
Width: 556
Flags: MW
HStem: -23 120<254.5 293 254.5 311.5> 611 113<253 291>
VStem: 29 140<304 392.5 304 418.5> 377 140<309.5 397.5>
LayerCount: 2
Fore
SplineSet
273 724 m 0
 356 724 425 687 467 619 c 0
 501 564 517 476 517 346 c 0
 517 214 497 122 457 68 c 0
 413 8 350 -23 273 -23 c 0
 190 -23 121 15 79 82 c 0
 46 136 29 225 29 350 c 0
 29 487 48 578 89 633 c 0
 132 692 197 724 273 724 c 0
273 611 m 0
 233 611 203 587 187 544 c 0
 177 515 169 434 169 351 c 0
 169 257 177 182 191 152 c 0
 208 116 236 97 273 97 c 0
 313 97 343 120 359 162 c 0
 369 190 377 270 377 349 c 0
 377 446 369 524 355 554 c 0
 338 591 309 611 273 611 c 0
EndSplineSet
EndChar

StartChar: one
Encoding: 49 49 17
Width: 556
Flags: MW
HStem: 0 20
VStem: 238 140<0 489 489 489>
LayerCount: 2
Fore
SplineSet
238 489 m 1
 68 489 l 1
 68 582 l 1
 190 582 263 625 285 709 c 1
 378 709 l 1
 378 0 l 1
 238 0 l 1
 238 489 l 1
EndSplineSet
EndChar

StartChar: two
Encoding: 50 50 18
Width: 556
Flags: MW
HStem: 0 125<212 512 212 512> 610 114<243 306>
VStem: 39 135<484 485 462 562> 375 140<457 531.5>
LayerCount: 2
Fore
SplineSet
512 125 m 1
 512 0 l 1
 30 0 l 1
 37 131 74 194 194 276 c 1
 350 387 375 418 375 496 c 0
 375 567 337 610 275 610 c 0
 211 610 174 564 174 485 c 2
 174 462 l 1
 40 462 l 1
 39 473 39 481 39 487 c 0
 39 637 125 724 272 724 c 0
 421 724 515 636 515 499 c 0
 515 403 479 349 356 259 c 0
 252 183 230 163 212 125 c 1
 512 125 l 1
EndSplineSet
EndChar

StartChar: three
Encoding: 51 51 19
Width: 556
Flags: W
HStem: -23 120<238 301.5 238 343.5> 611 113<244.5 293>
VStem: 353 140<498.5 547.5> 376 140<173 230>
LayerCount: 2
Fore
SplineSet
217 317 m 1xd0
 217 411 l 1
 229 411 l 2
 312 411 353 447 353 518 c 0
 353 577 321 611 265 611 c 0
 224 611 192 592 179 561 c 0
 172 543 169 524 168 486 c 1
 38 486 l 1
 38 498 l 2
 38 561 51 609 79 644 c 0
 119 696 187 724 268 724 c 0
 405 724 493 649 493 531 c 0xe0
 493 466 466 421 400 380 c 1
 480 341 516 287 516 204 c 0
 516 66 419 -23 268 -23 c 0
 123 -23 30 66 29 208 c 1
 165 208 l 1
 169 135 205 97 271 97 c 0
 332 97 376 142 376 204 c 0
 376 256 346 297 299 310 c 0
 275 316 266 317 217 317 c 1xd0
EndSplineSet
EndChar

StartChar: four
Encoding: 52 52 20
Width: 556
Flags: MW
HStem: 0 20 157 116<123 308 123 308 24 308 448 522>
VStem: 308 140<0 157 0 157 273 576 576 576>
LayerCount: 2
Fore
SplineSet
522 273 m 1
 522 157 l 1
 448 157 l 1
 448 0 l 1
 308 0 l 1
 308 157 l 1
 24 157 l 1
 24 275 l 1
 283 709 l 1
 448 709 l 1
 448 273 l 1
 522 273 l 1
308 273 m 1
 308 576 l 1
 123 273 l 1
 308 273 l 1
EndSplineSet
EndChar

StartChar: five
Encoding: 53 53 21
Width: 556
Flags: MW
HStem: -23 120<232.5 298 232.5 337> 368 111<272.5 298.5> 584 125<196 489 196 196>
VStem: 377 140<189.5 274>
LayerCount: 2
Fore
SplineSet
489 709 m 1
 489 584 l 1
 196 584 l 1
 173 436 l 1
 214 467 249 479 296 479 c 0
 427 479 517 379 517 234 c 0
 517 81 413 -23 261 -23 c 0
 123 -23 29 61 27 185 c 1
 165 185 l 1
 168 128 202 97 263 97 c 0
 333 97 377 148 377 231 c 0
 377 317 334 368 263 368 c 0
 220 368 188 349 173 314 c 1
 47 314 l 1
 110 709 l 1
 489 709 l 1
EndSplineSet
EndChar

StartChar: six
Encoding: 54 54 22
Width: 556
Flags: MW
HStem: -23 120<246 309 246 352.5> 357 110<284 311.5> 611 113<262 312.5>
VStem: 32 138<187.5 401.5> 386 133<190 267>
LayerCount: 2
Fore
SplineSet
507 548 m 1
 377 548 l 1
 359 593 335 611 290 611 c 0
 234 611 194 573 181 509 c 0
 175 479 175 479 172 404 c 1
 216 450 255 467 313 467 c 0
 435 467 519 373 519 237 c 0
 519 83 423 -23 282 -23 c 0
 198 -23 124 16 83 82 c 0
 47 139 32 215 32 337 c 0
 32 466 49 545 91 614 c 0
 134 685 206 724 294 724 c 0
 371 724 436 694 473 643 c 0
 491 617 500 594 507 548 c 1
279 357 m 0
 214 357 170 303 170 225 c 0
 170 150 214 97 278 97 c 0
 340 97 386 152 386 228 c 0
 386 306 344 357 279 357 c 0
EndSplineSet
EndChar

StartChar: seven
Encoding: 55 55 23
Width: 556
Flags: MW
HStem: 0 20 584 125<29 382 29 528>
LayerCount: 2
Fore
SplineSet
528 709 m 1
 528 599 l 1
 360 396 287 224 274 0 c 1
 133 0 l 1
 152 151 177 244 226 347 c 1
 254 409 339 538 382 584 c 1
 29 584 l 1
 29 709 l 1
 528 709 l 1
EndSplineSet
EndChar

StartChar: eight
Encoding: 56 56 24
Width: 556
Flags: W
HStem: -23 120<239 307 239 348> 330 95<244 305.5 244 307.5> 611 113<243.5 306>
VStem: 22 140<177 246> 46 123<497 546 491.5 587> 380 121<509 545.5> 385 140<176 246 137 247>
LayerCount: 2
Fore
SplineSet
409 386 m 1xec
 491 342 525 288 525 204 c 0
 525 70 422 -23 274 -23 c 0
 125 -23 22 70 22 204 c 0xf2
 22 288 56 342 138 386 c 1
 74 420 46 463 46 531 c 0
 46 643 142 724 274 724 c 0
 405 724 501 643 501 532 c 0
 501 486 484 443 455 416 c 0
 444 406 433 399 409 386 c 1xec
275 611 m 0
 212 611 169 573 169 519 c 0
 169 464 213 425 275 425 c 0
 336 425 380 464 380 518 c 0
 380 573 337 611 275 611 c 0
273 330 m 0xf2
 206 330 162 284 162 212 c 0
 162 142 205 97 273 97 c 0
 341 97 385 142 385 210 c 0
 385 284 342 330 273 330 c 0xf2
EndSplineSet
EndChar

StartChar: nine
Encoding: 57 57 25
Width: 556
Flags: MW
HStem: -24 120<234.5 298.5 234.5 300.5> 228 116<233 258> 610 114<232 297>
VStem: 28 133<435.5 517 435.5 548>
LayerCount: 2
Fore
SplineSet
38 165 m 1
 173 165 l 1
 176 123 210 96 259 96 c 0
 338 96 376 163 376 298 c 1
 353 272 345 263 332 254 c 0
 310 238 276 228 240 228 c 0
 114 228 28 328 28 474 c 0
 28 622 125 724 267 724 c 0
 352 724 422 684 467 608 c 0
 499 555 516 473 516 370 c 0
 516 256 494 149 457 86 c 0
 415 14 346 -24 255 -24 c 0
 133 -24 41 56 38 165 c 1
263 610 m 0
 201 610 161 558 161 476 c 0
 161 395 201 344 265 344 c 0
 329 344 373 396 373 474 c 0
 373 557 331 610 263 610 c 0
EndSplineSet
EndChar

StartChar: colon
Encoding: 58 58 26
Width: 333
Flags: MW
HStem: 0 146<113 263 113 263> 374 146<113 263 113 263>
VStem: 113 150<0 146 0 146 374 520>
LayerCount: 2
Fore
SplineSet
263 146 m 1
 263 0 l 1
 113 0 l 1
 113 146 l 1
 263 146 l 1
263 520 m 1
 263 374 l 1
 113 374 l 1
 113 520 l 1
 263 520 l 1
EndSplineSet
EndChar

StartChar: semicolon
Encoding: 59 59 27
Width: 333
Flags: MW
HStem: 0 146<113 199 113 263> 374 146<113 263 113 263>
VStem: 113 150<-174 9 -118 9 0 9 9 146 -30 146 374 520>
LayerCount: 2
Fore
SplineSet
113 146 m 1
 263 146 l 1
 263 9 l 2
 263 -69 249 -106 209 -137 c 0
 182 -158 154 -169 113 -174 c 1
 113 -118 l 1
 172 -106 199 -71 199 -3 c 2
 199 0 l 1
 113 0 l 1
 113 146 l 1
263 520 m 1
 263 374 l 1
 113 374 l 1
 113 520 l 1
 263 520 l 1
EndSplineSet
EndChar

StartChar: less
Encoding: 60 60 28
Width: 584
Flags: MW
HStem: -10 20
LayerCount: 2
Fore
SplineSet
529 474 m 1
 529 365 l 1
 147 232 l 1
 529 101 l 1
 529 -10 l 1
 40 172 l 1
 40 293 l 1
 529 474 l 1
EndSplineSet
EndChar

StartChar: equal
Encoding: 61 61 29
Width: 584
Flags: MW
HStem: 52 119<50 534 50 534> 292 119<50 534 50 534>
LayerCount: 2
Fore
SplineSet
534 411 m 1
 534 292 l 1
 50 292 l 1
 50 411 l 1
 534 411 l 1
534 171 m 1
 534 52 l 1
 50 52 l 1
 50 171 l 1
 534 171 l 1
EndSplineSet
EndChar

StartChar: greater
Encoding: 62 62 30
Width: 584
Flags: MW
HStem: -10 20
LayerCount: 2
Fore
SplineSet
40 -10 m 1
 40 99 l 1
 422 232 l 1
 40 363 l 1
 40 474 l 1
 529 292 l 1
 529 171 l 1
 40 -10 l 1
EndSplineSet
EndChar

StartChar: question
Encoding: 63 63 31
Width: 611
Flags: MW
HStem: 0 146<235 385 235 385> 626 118<277 340>
VStem: 235 150<0 146 0 146> 415 141<488.5 543.5>
LayerCount: 2
Fore
SplineSet
369 201 m 1
 245 201 l 1
 242 286 265 331 344 399 c 1
 403 447 415 466 415 511 c 0
 415 576 370 626 310 626 c 0
 244 626 196 564 200 483 c 1
 200 481 l 1
 64 481 l 1
 65 563 78 611 111 655 c 0
 154 714 221 744 307 744 c 0
 454 744 556 650 556 514 c 0
 556 430 529 386 436 320 c 0
 376 278 369 267 369 201 c 1
385 146 m 1
 385 0 l 1
 235 0 l 1
 235 146 l 1
 385 146 l 1
EndSplineSet
EndChar

StartChar: at
Encoding: 64 64 32
Width: 975
Flags: MW
HStem: -138 78<440.5 522 440.5 531> -19 20 56 81<419 449.5 682 714.5> 447 71<480 537> 668 77<453 560>
VStem: 27 97<216 316 216 322> 258 97<214 260.5> 858 89<341 408.5 313.5 409.5>
LayerCount: 2
Fore
SplineSet
644 508 m 1
 734 508 l 1
 656 228 l 2
 648 198 648 198 648 186 c 0
 648 156 667 137 697 137 c 0
 732 137 774 165 807 209 c 1
 840 255 858 312 858 370 c 0
 858 449 826 517 760 576 c 0
 690 638 609 668 511 668 c 0
 395 668 299 625 227 542 c 0
 162 467 124 366 124 266 c 0
 124 166 164 82 242 21 c 0
 309 -31 395 -60 486 -60 c 0
 558 -60 635 -45 693 -19 c 1
 721 -92 l 1
 651 -124 578 -138 484 -138 c 0
 357 -138 261 -108 178 -43 c 0
 82 32 27 145 27 264 c 0
 27 380 82 510 170 601 c 0
 262 696 380 745 516 745 c 0
 642 745 751 702 836 620 c 0
 912 546 947 462 947 355 c 0
 947 272 920 203 865 140 c 0
 817 86 757 56 697 56 c 0
 664 56 633 65 608 82 c 0
 588 96 580 106 572 131 c 1
 533 84 477 56 422 56 c 0
 331 56 258 132 258 227 c 0
 258 294 286 370 332 427 c 0
 377 483 446 518 514 518 c 0
 570 518 604 496 628 446 c 1
 644 508 l 1
511 447 m 0
 433 447 355 346 355 244 c 0
 355 184 394 137 444 137 c 0
 473 137 508 156 532 184 c 0
 569 227 595 294 595 345 c 0
 595 408 563 447 511 447 c 0
EndSplineSet
EndChar

StartChar: B
Encoding: 66 66 34
Width: 722
Flags: W
HStem: 0 125<232 410> 314 125<232 395 232 395 395 411> 604 125<232 232 232 395>
VStem: 82 150<125 314 439 604> 501 144<506 548> 522 144<188.5 246 181 250>
LayerCount: 2
Fore
SplineSet
82 0 m 1xf4
 82 729 l 1
 407 729 l 2
 485 729 536 713 579 676 c 0
 620 640 645 587 645 537 c 0xf8
 645 475 617 433 545 387 c 1
 627 339 666 282 666 210 c 0
 666 152 638 90 594 53 c 0
 550 16 494 0 410 0 c 2
 82 0 l 1xf4
232 604 m 1
 232 439 l 1
 395 439 l 2
 464 439 501 468 501 521 c 0
 501 575 464 604 395 604 c 2
 232 604 l 1
232 314 m 1
 232 125 l 1
 411 125 l 2
 484 125 522 158 522 219 c 0xf4
 522 281 484 314 411 314 c 2
 232 314 l 1
EndSplineSet
EndChar

StartChar: C
Encoding: 67 67 35
Width: 722
Flags: MW
HStem: -23 126<320 424.5 320 464.5> 613 128<324 409>
VStem: 44 150<276.5 436.5 276.5 476>
LayerCount: 2
Fore
SplineSet
682 482 m 1
 539 482 l 1
 530 521 522 540 506 560 c 0
 478 595 435 613 383 613 c 0
 265 613 194 517 194 356 c 0
 194 197 262 103 378 103 c 0
 471 103 530 156 539 249 c 1
 685 249 l 1
 676 82 555 -23 374 -23 c 0
 171 -23 44 124 44 358 c 0
 44 594 172 741 378 741 c 0
 487 741 577 700 633 626 c 0
 664 585 677 545 682 482 c 1
EndSplineSet
EndChar

StartChar: D
Encoding: 68 68 36
Width: 722
Flags: MW
HStem: 0 125<227 362 227 362> 604 125<227 362 227 227>
VStem: 77 150<125 125 125 604> 531 150<308.5 421 308.5 444.5>
LayerCount: 2
Fore
SplineSet
77 0 m 1
 77 729 l 1
 362 729 l 2
 474 729 543 704 592 645 c 0
 650 576 681 477 681 365 c 0
 681 252 650 153 592 85 c 1
 543 26 473 0 362 0 c 2
 77 0 l 1
227 125 m 1
 362 125 l 2
 475 125 531 204 531 364 c 0
 531 525 475 604 362 604 c 2
 227 604 l 1
 227 125 l 1
EndSplineSet
EndChar

StartChar: F
Encoding: 70 70 38
Width: 611
Flags: MW
HStem: 0 20 314 125<224 543 224 543> 604 125<224 586 224 224>
VStem: 74 150<0 314 0 439 439 604>
LayerCount: 2
Fore
SplineSet
224 314 m 1
 224 0 l 1
 74 0 l 1
 74 729 l 1
 586 729 l 1
 586 604 l 1
 224 604 l 1
 224 439 l 1
 543 439 l 1
 543 314 l 1
 224 314 l 1
EndSplineSet
EndChar

StartChar: G
Encoding: 71 71 39
Width: 778
Flags: MW
HStem: -23 128<339.5 429 339.5 432> 267 125<419 585 419 711> 613 128<332.5 422>
VStem: 42 150<286 439.5 286 472.5>
LayerCount: 2
Fore
SplineSet
711 392 m 1
 711 -2 l 1
 621 -2 l 1
 603 94 l 1
 547 12 481 -23 383 -23 c 0
 186 -23 42 138 42 359 c 0
 42 586 185 741 395 741 c 0
 571 741 693 646 711 496 c 1
 570 496 l 1
 557 534 546 551 525 569 c 0
 492 598 448 613 396 613 c 0
 269 613 192 518 192 361 c 0
 192 211 279 105 400 105 c 0
 458 105 513 131 549 175 c 0
 571 201 581 226 585 267 c 1
 419 267 l 1
 419 392 l 1
 711 392 l 1
EndSplineSet
EndChar

StartChar: H
Encoding: 72 72 40
Width: 722
Flags: W
HStem: 0 20 331 125<218 506 218 507 218 506> 709 20<68 218 218 218 506 657 657 657>
VStem: 68 150<0 331 0 456 456 729> 506 151<456 729 0 729> 507 150<0 331 331 331>
LayerCount: 2
Fore
SplineSet
507 331 m 1xe4
 218 331 l 1
 218 0 l 1
 68 0 l 1
 68 729 l 1
 218 729 l 1
 218 456 l 1
 506 456 l 1
 506 729 l 1
 657 729 l 1
 657 0 l 1xf8
 507 0 l 1
 507 331 l 1xe4
EndSplineSet
EndChar

StartChar: I
Encoding: 73 73 41
Width: 278
Flags: MW
HStem: 0 20 709 20<63 213 213 213>
VStem: 63 150<0 729 0 729>
LayerCount: 2
Fore
SplineSet
213 729 m 1
 213 0 l 1
 63 0 l 1
 63 729 l 1
 213 729 l 1
EndSplineSet
EndChar

StartChar: J
Encoding: 74 74 42
Width: 556
Flags: MW
HStem: -23 128<226.5 281 226.5 326.5> 709 20<336 486 486 486>
VStem: 24 150<198 200 200 270 166.5 270> 336 150<190 729>
LayerCount: 2
Fore
SplineSet
336 729 m 1
 486 729 l 1
 486 190 l 2
 486 54 401 -23 252 -23 c 0
 183 -23 127 -3 85 35 c 0
 42 75 24 122 24 198 c 2
 24 270 l 1
 174 270 l 1
 174 200 l 2
 174 133 198 105 255 105 c 0
 307 105 336 135 336 190 c 2
 336 729 l 1
EndSplineSet
EndChar

StartChar: K
Encoding: 75 75 43
Width: 722
Flags: MW
HStem: 0 20 709 20<74 224 224 224 509 686 686 686>
VStem: 74 150<0 244 409 729>
LayerCount: 2
Fore
SplineSet
224 244 m 1
 224 0 l 1
 74 0 l 1
 74 729 l 1
 224 729 l 1
 224 409 l 1
 509 729 l 1
 686 729 l 1
 395 415 l 1
 717 0 l 1
 538 0 l 1
 299 322 l 1
 224 244 l 1
EndSplineSet
EndChar

StartChar: L
Encoding: 76 76 44
Width: 611
Flags: MW
HStem: 0 125<230 579 230 579> 709 20<80 230 230 230>
VStem: 80 150<125 729 125 729 125 729>
LayerCount: 2
Fore
SplineSet
230 729 m 1
 230 125 l 1
 579 125 l 1
 579 0 l 1
 80 0 l 1
 80 729 l 1
 230 729 l 1
EndSplineSet
EndChar

StartChar: M
Encoding: 77 77 45
Width: 833
Flags: MW
HStem: 0 20 709 20<66 290 290 290 550 776 776 776>
VStem: 66 150<0 568 0 729> 626 150<0 568 568 568>
LayerCount: 2
Fore
SplineSet
216 568 m 1
 216 0 l 1
 66 0 l 1
 66 729 l 1
 290 729 l 1
 422 149 l 1
 550 729 l 1
 776 729 l 1
 776 0 l 1
 626 0 l 1
 626 568 l 1
 497 0 l 1
 347 0 l 1
 216 568 l 1
EndSplineSet
EndChar

StartChar: N
Encoding: 78 78 46
Width: 722
Flags: MW
HStem: 0 20 709 20<68 222 222 222 511 661 661 661>
VStem: 68 150<0 504 0 729> 511 150<0 729 233 729 0 729>
LayerCount: 2
Fore
SplineSet
511 0 m 1
 218 504 l 1
 218 0 l 1
 68 0 l 1
 68 729 l 1
 222 729 l 1
 511 233 l 1
 511 729 l 1
 661 729 l 1
 661 0 l 1
 511 0 l 1
EndSplineSet
EndChar

StartChar: P
Encoding: 80 80 48
Width: 667
Flags: MW
HStem: 0 20 260 125<226 366 226 366 366 406 226 413> 604 125<226 366 226 226>
VStem: 76 150<0 260 385 604> 483 150<457 531.5>
LayerCount: 2
Fore
SplineSet
226 260 m 1
 226 0 l 1
 76 0 l 1
 76 729 l 1
 398 729 l 2
 550 729 633 649 633 503 c 0
 633 355 547 260 413 260 c 2
 226 260 l 1
226 385 m 1
 366 385 l 2
 446 385 483 420 483 494 c 0
 483 569 446 604 366 604 c 2
 226 604 l 1
 226 385 l 1
EndSplineSet
EndChar

StartChar: Q
Encoding: 81 81 49
Width: 778
Flags: MW
HStem: -23 128<342.5 409 333 431.5> 613 128<342 446 342 455>
VStem: 43 150<304.5 413.5> 595 150<328 414.5>
LayerCount: 2
Fore
SplineSet
665 103 m 1
 745 27 l 1
 669 -54 l 1
 583 27 l 1
 525 -8 469 -23 394 -23 c 0
 291 -23 208 10 145 78 c 0
 81 147 43 250 43 359 c 0
 43 468 81 571 145 640 c 0
 208 708 290 741 394 741 c 0
 498 741 580 708 643 640 c 0
 707 571 745 468 745 361 c 0
 745 263 714 163 665 103 c 1
480 278 m 1
 562 200 l 1
 584 244 595 298 595 358 c 0
 595 513 516 613 394 613 c 0
 273 613 193 512 193 359 c 0
 193 206 273 105 393 105 c 0
 425 105 458 112 481 124 c 1
 404 197 l 1
 480 278 l 1
EndSplineSet
EndChar

StartChar: S
Encoding: 83 83 51
Width: 667
Flags: MW
HStem: -23 120<291 387.5 291 428> 621 120<275.5 361.5>
VStem: 45 143<504.5 558.5 504.5 588> 489 144<164.5 224.5>
LayerCount: 2
Fore
SplineSet
607 507 m 1
 467 507 l 1
 462 581 409 621 314 621 c 0
 237 621 188 586 188 531 c 0
 188 478 219 457 326 436 c 2
 440 414 l 2
 575 388 633 328 633 213 c 0
 633 65 522 -23 334 -23 c 0
 148 -23 41 62 32 218 c 1
 178 218 l 1
 183 140 240 97 342 97 c 0
 433 97 489 134 489 195 c 0
 489 254 452 282 352 301 c 2
 250 321 l 1
 102 349 45 404 45 517 c 0
 45 659 146 741 321 741 c 0
 426 741 507 712 556 658 c 0
 592 618 607 574 607 507 c 1
EndSplineSet
EndChar

StartChar: T
Encoding: 84 84 52
Width: 611
Flags: MW
HStem: 0 20 604 125<14 235 14 598 385 598 385 385>
VStem: 235 150<0 604 0 604>
LayerCount: 2
Fore
SplineSet
385 604 m 1
 385 0 l 1
 235 0 l 1
 235 604 l 1
 14 604 l 1
 14 729 l 1
 598 729 l 1
 598 604 l 1
 385 604 l 1
EndSplineSet
EndChar

StartChar: U
Encoding: 85 85 53
Width: 722
Flags: MW
HStem: -23 128<321 409> 709 20<76 226 226 226 504 654 654 654>
VStem: 76 150<235 729> 504 150<235 729>
LayerCount: 2
Fore
SplineSet
504 729 m 1
 654 729 l 1
 654 235 l 2
 654 153 632 95 583 51 c 0
 530 3 453 -23 365 -23 c 0
 277 -23 200 3 147 51 c 0
 98 95 76 153 76 235 c 2
 76 729 l 1
 226 729 l 1
 226 235 l 2
 226 147 271 105 365 105 c 0
 459 105 504 147 504 235 c 2
 504 729 l 1
EndSplineSet
EndChar

StartChar: V
Encoding: 86 86 54
Width: 667
Flags: MW
HStem: 0 20 709 20<24 175 175 175 496 647 647 647>
LayerCount: 2
Fore
SplineSet
397 0 m 1
 270 0 l 1
 24 729 l 1
 175 729 l 1
 337 180 l 1
 496 729 l 1
 647 729 l 1
 397 0 l 1
EndSplineSet
EndChar

StartChar: W
Encoding: 87 87 55
Width: 944
Flags: MW
HStem: 0 20 709 20<13 172 172 172 398 546 546 546 773 932 932 932>
LayerCount: 2
Fore
SplineSet
730 0 m 1
 595 0 l 1
 473 569 l 1
 354 0 l 1
 219 0 l 1
 13 729 l 1
 172 729 l 1
 285 183 l 1
 398 729 l 1
 546 729 l 1
 664 182 l 1
 773 729 l 1
 932 729 l 1
 730 0 l 1
EndSplineSet
EndChar

StartChar: X
Encoding: 88 88 56
Width: 667
Flags: MW
HStem: 0 20 709 20<30 208 208 208 470 644 644 644>
LayerCount: 2
Fore
SplineSet
419 372 m 1
 653 0 l 1
 475 0 l 1
 335 253 l 1
 196 0 l 1
 22 0 l 1
 252 367 l 1
 30 729 l 1
 208 729 l 1
 336 489 l 1
 470 729 l 1
 644 729 l 1
 419 372 l 1
EndSplineSet
EndChar

StartChar: Y
Encoding: 89 89 57
Width: 667
Flags: MW
HStem: 0 20 709 20<27 194 194 194 482 650 650 650>
VStem: 269 150<0 270 0 270>
LayerCount: 2
Fore
SplineSet
419 270 m 1
 419 0 l 1
 269 0 l 1
 269 270 l 1
 27 729 l 1
 194 729 l 1
 343 407 l 1
 482 729 l 1
 650 729 l 1
 419 270 l 1
EndSplineSet
EndChar

StartChar: Z
Encoding: 90 90 58
Width: 611
Flags: MW
HStem: 0 125<206 578 30 30> 604 125<30 403 30 578 30 578>
LayerCount: 2
Fore
SplineSet
578 729 m 1
 578 604 l 1
 206 125 l 1
 578 125 l 1
 578 0 l 1
 30 0 l 1
 30 125 l 1
 403 604 l 1
 30 604 l 1
 30 729 l 1
 578 729 l 1
EndSplineSet
EndChar

StartChar: bracketleft
Encoding: 91 91 59
Width: 333
Flags: MW
HStem: -200 102<196 308 196 308> 627 102<196 308 196 196>
VStem: 66 130<-98 627 -98 729 -98 729>
LayerCount: 2
Fore
SplineSet
308 729 m 1
 308 627 l 1
 196 627 l 1
 196 -98 l 1
 308 -98 l 1
 308 -200 l 1
 66 -200 l 1
 66 729 l 1
 308 729 l 1
EndSplineSet
EndChar

StartChar: backslash
Encoding: 92 92 60
Width: 278
Flags: MW
HStem: -14 20
LayerCount: 2
Fore
SplineSet
55 714 m 1
 289 -14 l 1
 222 -14 l 1
 -12 714 l 1
 55 714 l 1
EndSplineSet
EndChar

StartChar: bracketright
Encoding: 93 93 61
Width: 333
Flags: MW
HStem: -200 102<18 130 18 130 18 260> 627 102<18 130 18 260>
VStem: 130 130<-98 627 627 627>
LayerCount: 2
Fore
SplineSet
18 -200 m 1
 18 -98 l 1
 130 -98 l 1
 130 627 l 1
 18 627 l 1
 18 729 l 1
 260 729 l 1
 260 -200 l 1
 18 -200 l 1
EndSplineSet
EndChar

StartChar: asciicircum
Encoding: 94 94 62
Width: 584
Flags: W
LayerCount: 2
Fore
SplineSet
522 270 m 1
 409 270 l 1
 288 570 l 1
 173 270 l 1
 61 270 l 1
 226 695 l 1
 351 695 l 1
 522 270 l 1
EndSplineSet
EndChar

StartChar: underscore
Encoding: 95 95 63
Width: 556
Flags: MW
HStem: -189 69<-22 578 -22 578>
LayerCount: 2
Fore
SplineSet
578 -120 m 1
 578 -189 l 1
 -22 -189 l 1
 -22 -120 l 1
 578 -120 l 1
EndSplineSet
EndChar

StartChar: grave
Encoding: 193 96 123
Width: 333
Flags: W
LayerCount: 2
Fore
SplineSet
17 757 m 1
 143 757 l 1
 213 607 l 1
 143 607 l 1
 17 757 l 1
EndSplineSet
EndChar

StartChar: b
Encoding: 98 98 66
Width: 611
Flags: MW
HStem: -23 117<314 351.5 281.5 412.5> 432 117<314.5 351.5> 709 20<59 199 199 199>
VStem: 59 140<0 55 213.5 314 470 729> 435 140<213 299.5 181.5 312>
LayerCount: 2
Fore
SplineSet
59 729 m 1
 199 729 l 1
 199 470 l 1
 233 524 281 549 348 549 c 0
 414 549 480 515 517 462 c 0
 553 410 575 336 575 263 c 0
 575 100 477 -23 348 -23 c 0
 280 -23 233 2 199 55 c 1
 199 0 l 1
 59 0 l 1
 59 729 l 1
317 432 m 0
 247 432 199 363 199 265 c 0
 199 162 246 94 317 94 c 0
 386 94 435 164 435 262 c 0
 435 362 386 432 317 432 c 0
EndSplineSet
EndChar

StartChar: c
Encoding: 99 99 67
Width: 556
Flags: MW
HStem: -23 113<252.5 315 252.5 352.5> 436 113<268 316.5>
VStem: 34 140<206.5 284.5 206.5 351>
LayerCount: 2
Fore
SplineSet
522 338 m 1
 388 338 l 1
 372 409 345 436 288 436 c 0
 248 436 217 420 201 390 c 0
 184 358 174 310 174 259 c 0
 174 154 217 90 288 90 c 0
 342 90 370 117 388 187 c 1
 522 187 l 1
 509 58 418 -23 287 -23 c 0
 127 -23 34 81 34 259 c 0
 34 443 128 549 289 549 c 0
 424 549 512 470 522 338 c 1
EndSplineSet
EndChar

StartChar: d
Encoding: 100 100 68
Width: 611
Flags: MW
HStem: -23 117<252 289.5> 432 117<252 289.5 191.5 322.5> 709 20<405 545 545 545>
VStem: 29 140<225.5 312 212.5 343.5> 405 140<0 55 55 55 211 311.5 470 729 0 729>
LayerCount: 2
Fore
SplineSet
405 0 m 1
 405 55 l 1
 370 2 323 -23 256 -23 c 0
 190 -23 124 11 87 63 c 0
 51 115 29 189 29 262 c 0
 29 425 127 549 256 549 c 0
 323 549 370 524 405 470 c 1
 405 729 l 1
 545 729 l 1
 545 0 l 1
 405 0 l 1
287 432 m 0
 217 432 169 362 169 262 c 0
 169 163 217 94 287 94 c 0
 357 94 405 162 405 260 c 0
 405 363 358 432 287 432 c 0
EndSplineSet
EndChar

StartChar: f
Encoding: 102 102 70
Width: 333
Flags: MW
HStem: 0 20 436 93<14 90 14 90 230 313> 624 105<181.5 274>
VStem: 90 140<0 436 0 436 529 582>
LayerCount: 2
Fore
SplineSet
313 529 m 1
 313 436 l 1
 230 436 l 1
 230 0 l 1
 90 0 l 1
 90 436 l 1
 14 436 l 1
 14 529 l 1
 90 529 l 1
 90 594 l 2
 90 685 135 729 228 729 c 0
 247 729 282 728 308 726 c 1
 308 621 l 1
 296 623 280 624 268 624 c 0
 242 624 230 610 230 582 c 2
 230 529 l 1
 313 529 l 1
EndSplineSet
EndChar

StartChar: g
Encoding: 103 103 71
Width: 611
Flags: MW
HStem: -218 90<262.5 324 262.5 365.5> -23 117<253 286.5> 432 117<254 289 194 323>
VStem: 34 140<210 310 210 340.5> 408 133<-18 55 55 55 457 540>
LayerCount: 2
Fore
SplineSet
408 540 m 1
 541 540 l 1
 541 -18 l 2
 541 -145 447 -218 284 -218 c 0
 201 -218 141 -201 98 -166 c 0
 62 -136 46 -107 45 -65 c 1
 190 -65 l 1
 201 -106 236 -128 289 -128 c 0
 359 -128 408 -83 408 -18 c 2
 408 55 l 1
 356 -4 318 -23 255 -23 c 0
 122 -23 34 89 34 257 c 0
 34 424 130 549 258 549 c 0
 320 549 366 521 408 457 c 1
 408 540 l 1
288 432 m 0
 220 432 174 361 174 259 c 0
 174 161 220 94 286 94 c 0
 359 94 410 161 410 259 c 0
 410 359 358 432 288 432 c 0
EndSplineSet
EndChar

StartChar: h
Encoding: 104 104 72
Width: 611
Flags: MW
HStem: 0 20 430 119<283.5 387.5> 709 20<67 207 207 207>
VStem: 67 140<0 324 462 729> 401 140<0 330 330 347.5>
LayerCount: 2
Fore
SplineSet
67 729 m 1
 207 729 l 1
 207 462 l 1
 246 521 296 549 365 549 c 0
 410 549 455 534 486 508 c 0
 523 477 541 429 541 362 c 2
 541 0 l 1
 401 0 l 1
 401 330 l 2
 401 365 397 379 385 397 c 0
 369 419 345 430 315 430 c 0
 252 430 207 386 207 324 c 2
 207 0 l 1
 67 0 l 1
 67 729 l 1
EndSplineSet
EndChar

StartChar: i
Encoding: 105 105 73
Width: 278
Flags: MW
HStem: 0 20 604 125<67 207 67 207>
VStem: 67 140<0 540 0 540 604 729>
LayerCount: 2
Fore
SplineSet
207 540 m 1
 207 0 l 1
 67 0 l 1
 67 540 l 1
 207 540 l 1
207 729 m 1
 207 604 l 1
 67 604 l 1
 67 729 l 1
 207 729 l 1
EndSplineSet
EndChar

StartChar: j
Encoding: 106 106 74
Width: 278
Flags: MW
HStem: -218 20 604 125<70 210 70 210>
VStem: 70 140<-63 540 604 729>
LayerCount: 2
Fore
SplineSet
210 540 m 1
 210 -94 l 2
 210 -182 174 -218 87 -218 c 0
 67 -218 32 -216 4 -213 c 1
 4 -101 l 1
 14 -104 20 -105 29 -105 c 0
 59 -105 70 -94 70 -63 c 2
 70 540 l 1
 210 540 l 1
210 729 m 1
 210 604 l 1
 70 604 l 1
 70 729 l 1
 210 729 l 1
EndSplineSet
EndChar

StartChar: k
Encoding: 107 107 75
Width: 556
Flags: MW
HStem: 0 20 709 20<59 199 199 199>
VStem: 59 140<0 177 330 729>
LayerCount: 2
Fore
SplineSet
199 330 m 1
 376 540 l 1
 535 540 l 1
 351 336 l 1
 548 0 l 1
 384 0 l 1
 255 238 l 1
 199 177 l 1
 199 0 l 1
 59 0 l 1
 59 729 l 1
 199 729 l 1
 199 330 l 1
EndSplineSet
EndChar

StartChar: m
Encoding: 109 109 77
Width: 889
Flags: W
HStem: 0 20 430 119<316 319.5 618 631.5> 520 20<60 199 199 199>
VStem: 60 139<473 540 473 540 473 540> 60 140<0 324 0 540> 372 140<0 324 0 360 0 381.5> 684 140<0 360 360 381.5>
LayerCount: 2
Fore
SplineSet
60 540 m 1xae
 199 540 l 1
 199 473 l 1x30
 245 528 285 549 347 549 c 0
 414 549 468 520 494 469 c 1
 536 525 584 549 652 549 c 0
 760 549 824 487 824 382 c 2
 824 0 l 1
 684 0 l 1
 684 360 l 2
 684 403 655 430 608 430 c 0
 548 430 512 390 512 324 c 2
 512 0 l 1
 372 0 l 1
 372 360 l 2
 372 403 343 430 296 430 c 0xce
 236 430 200 390 200 324 c 2
 200 0 l 1
 60 0 l 1
 60 540 l 1xae
EndSplineSet
EndChar

StartChar: n
Encoding: 110 110 78
Width: 611
Flags: W
HStem: 0 20 430 119<328.5 346> 520 20<63 203 203 203>
VStem: 63 140<0 324 462 540> 406 140<0 333 333 362 0 365>
LayerCount: 2
Fore
SplineSet
63 540 m 1xb8
 203 540 l 1x38
 203 462 l 1
 243 522 292 549 365 549 c 0
 480 549 546 481 546 362 c 2
 546 0 l 1
 406 0 l 1
 406 333 l 2
 406 397 376 430 316 430 c 0xd8
 248 430 203 388 203 324 c 2
 203 0 l 1
 63 0 l 1
 63 540 l 1xb8
EndSplineSet
EndChar

StartChar: o
Encoding: 111 111 79
Width: 611
Flags: MW
HStem: -23 113<264 339.5 264 384> 436 113<264 340.5>
VStem: 35 140<211.5 314.5 211.5 351.5> 429 140<210.5 314>
LayerCount: 2
Fore
SplineSet
301 549 m 0
 470 549 569 442 569 259 c 0
 569 86 466 -23 302 -23 c 0
 136 -23 35 85 35 263 c 0
 35 440 136 549 301 549 c 0
302 436 m 0
 226 436 175 366 175 263 c 0
 175 160 226 90 302 90 c 0
 377 90 429 160 429 261 c 0
 429 367 379 436 302 436 c 0
EndSplineSet
EndChar

StartChar: q
Encoding: 113 113 81
Width: 611
Flags: MW
HStem: -218 20 -24 117<251 287> 432 117<251 287.5 189 321.5>
VStem: 28 140<224 312.5 211.5 344.5> 404 140<-218 64 64 64 210 311.5 460 540 -218 540>
LayerCount: 2
Fore
SplineSet
404 540 m 1
 544 540 l 1
 544 -218 l 1
 404 -218 l 1
 404 64 l 1
 371 5 321 -24 253 -24 c 0
 189 -24 122 10 86 61 c 1
 50 110 28 186 28 262 c 0
 28 427 124 549 254 549 c 0
 321 549 371 519 404 460 c 1
 404 540 l 1
286 432 m 0
 216 432 168 363 168 262 c 0
 168 161 216 93 286 93 c 0
 356 93 404 161 404 259 c 0
 404 364 357 432 286 432 c 0
EndSplineSet
EndChar

StartChar: r
Encoding: 114 114 82
Width: 389
Flags: W
HStem: 0 20 410 139<321 333.5> 520 20<63 203 203 203>
VStem: 63 140<0 287 434 540>
LayerCount: 2
Fore
SplineSet
63 540 m 1xb0
 203 540 l 1x30
 203 434 l 1
 233 507 289 549 353 549 c 0
 357 549 362 549 370 548 c 1
 370 406 l 1
 351 409 341 410 326 410 c 0x50
 244 410 203 369 203 287 c 2
 203 0 l 1
 63 0 l 1
 63 540 l 1xb0
EndSplineSet
EndChar

StartChar: s
Encoding: 115 115 83
Width: 556
Flags: MW
HStem: -23 110<258 308.5 258 321.5> 439 110<244.5 302.5>
VStem: 48 140<378 404 378 424.5> 380 140<133.5 151>
LayerCount: 2
Fore
SplineSet
505 366 m 1
 370 366 l 1
 369 415 336 439 269 439 c 0
 220 439 188 419 188 389 c 0
 188 367 198 359 237 347 c 2
 414 296 l 2
 485 275 520 230 520 160 c 0
 520 107 496 57 456 25 c 0
 416 -7 359 -23 284 -23 c 0
 120 -23 33 39 29 157 c 1
 166 157 l 1
 172 128 178 117 193 106 c 0
 211 94 240 87 276 87 c 0
 341 87 380 107 380 140 c 0
 380 162 368 173 333 184 c 2
 166 236 l 2
 114 253 97 262 78 281 c 1
 59 302 48 333 48 369 c 0
 48 480 133 549 270 549 c 0
 415 549 503 480 505 366 c 1
EndSplineSet
EndChar

StartChar: t
Encoding: 116 116 84
Width: 333
Flags: MW
HStem: -23 106<174 274> 436 93<14 83 14 83 223 301>
VStem: 83 140<118 142 142 436 529 674>
LayerCount: 2
Fore
SplineSet
301 529 m 1
 301 436 l 1
 223 436 l 1
 223 142 l 2
 223 94 232 83 269 83 c 0
 279 83 287 84 301 86 c 1
 301 -12 l 1
 276 -20 251 -23 220 -23 c 0
 128 -23 83 19 83 104 c 2
 83 436 l 1
 14 436 l 1
 14 529 l 1
 83 529 l 1
 83 674 l 1
 223 674 l 1
 223 529 l 1
 301 529 l 1
EndSplineSet
EndChar

StartChar: u
Encoding: 117 117 85
Width: 611
Flags: MW
HStem: -23 119<258 275.5> 520 20<58 198 198 198 401 541 541 541>
VStem: 58 140<164 193 193 540> 401 140<0 64 64 64 202 540>
LayerCount: 2
Fore
SplineSet
541 0 m 1
 401 0 l 1
 401 64 l 1
 361 4 312 -23 239 -23 c 0
 124 -23 58 45 58 164 c 2
 58 540 l 1
 198 540 l 1
 198 193 l 2
 198 128 228 96 288 96 c 0
 356 96 401 138 401 202 c 2
 401 540 l 1
 541 540 l 1
 541 0 l 1
EndSplineSet
EndChar

StartChar: v
Encoding: 118 118 86
Width: 556
Flags: MW
HStem: 0 20 520 20<14 162 162 162 388 536 536 536>
LayerCount: 2
Fore
SplineSet
350 0 m 1
 203 0 l 1
 14 540 l 1
 162 540 l 1
 279 145 l 1
 388 540 l 1
 536 540 l 1
 350 0 l 1
EndSplineSet
EndChar

StartChar: w
Encoding: 119 119 87
Width: 778
Flags: MW
HStem: 0 20 520 20<5 150 150 150 318 458 458 458 621 766 766 766>
LayerCount: 2
Fore
SplineSet
613 0 m 1
 468 0 l 1
 387 381 l 1
 301 0 l 1
 157 0 l 1
 5 540 l 1
 150 540 l 1
 236 162 l 1
 318 540 l 1
 458 540 l 1
 539 162 l 1
 621 540 l 1
 766 540 l 1
 613 0 l 1
EndSplineSet
EndChar

StartChar: x
Encoding: 120 120 88
Width: 556
Flags: MW
HStem: 0 20 520 20<20 188 188 188 363 531 531 531>
LayerCount: 2
Fore
SplineSet
355 272 m 1
 535 0 l 1
 367 0 l 1
 276 168 l 1
 184 0 l 1
 16 0 l 1
 196 272 l 1
 20 540 l 1
 188 540 l 1
 276 377 l 1
 363 540 l 1
 531 540 l 1
 355 272 l 1
EndSplineSet
EndChar

StartChar: y
Encoding: 121 121 89
Width: 556
Flags: MW
HStem: -219 103<127.5 147.5 117.5 153.5> 520 20<9 163 163 163 394 538 538 538>
LayerCount: 2
Fore
SplineSet
394 540 m 1
 538 540 l 1
 316 -99 l 2
 293 -163 276 -186 237 -202 c 0
 213 -212 171 -219 136 -219 c 0
 119 -219 107 -218 86 -215 c 1
 86 -110 l 1
 104 -115 112 -116 123 -116 c 0
 172 -116 210 -77 210 -26 c 2
 210 -23 l 1
 210 -22 l 1
 9 540 l 1
 163 540 l 1
 282 147 l 1
 394 540 l 1
EndSplineSet
EndChar

StartChar: z
Encoding: 122 122 90
Width: 500
Flags: MW
HStem: 0 113<194 468 21 21> 427 113<39 288 39 459 39 459>
LayerCount: 2
Fore
SplineSet
459 540 m 1
 459 427 l 1
 194 113 l 1
 468 113 l 1
 468 0 l 1
 21 0 l 1
 21 113 l 1
 288 427 l 1
 39 427 l 1
 39 540 l 1
 459 540 l 1
EndSplineSet
EndChar

StartChar: braceleft
Encoding: 123 123 91
Width: 389
Flags: MW
HStem: -200 99<205 317 280 317 280 317> 630 99<264.5 280 280 317>
VStem: 118 117<-60 -36 -36 150 150 159 378 573>
LayerCount: 2
Fore
SplineSet
317 729 m 1
 317 630 l 1
 280 630 l 2
 249 630 235 613 235 573 c 2
 235 378 l 2
 235 305 213 280 138 269 c 1
 213 257 235 232 235 159 c 2
 235 -36 l 2
 235 -85 246 -101 280 -101 c 2
 317 -101 l 1
 317 -200 l 1
 241 -200 l 2
 169 -200 118 -142 118 -60 c 2
 118 150 l 2
 118 190 110 206 87 217 c 1
 76 221 69 222 41 222 c 1
 37 223 l 1
 37 315 l 1
 41 315 l 1
 53 315 l 1
 98 316 118 335 118 378 c 2
 118 589 l 2
 118 671 169 729 241 729 c 2
 317 729 l 1
EndSplineSet
EndChar

StartChar: bar
Encoding: 124 124 92
Width: 280
Flags: MW
HStem: 709 20<100 180 180 180>
VStem: 100 80<-200 729 -200 729>
LayerCount: 2
Fore
SplineSet
180 729 m 1
 180 -200 l 1
 100 -200 l 1
 100 729 l 1
 180 729 l 1
EndSplineSet
EndChar

StartChar: braceright
Encoding: 125 125 93
Width: 389
Flags: MW
HStem: -200 99<72 109 72 109 109 124.5 72 148> 630 99<72 109 72 148>
VStem: 154 117<-44 151 370 379 379 565 565 589>
LayerCount: 2
Fore
SplineSet
72 -200 m 1
 72 -101 l 1
 109 -101 l 2
 140 -101 154 -84 154 -44 c 2
 154 151 l 2
 154 224 176 249 251 260 c 1
 176 272 154 297 154 370 c 2
 154 565 l 2
 154 614 143 630 109 630 c 2
 72 630 l 1
 72 729 l 1
 148 729 l 2
 220 729 271 671 271 589 c 2
 271 379 l 2
 271 339 279 323 302 312 c 1
 313 308 320 307 348 307 c 1
 352 306 l 1
 352 214 l 1
 348 214 l 1
 336 214 l 1
 291 213 271 194 271 151 c 2
 271 -60 l 2
 271 -142 220 -200 148 -200 c 2
 72 -200 l 1
EndSplineSet
EndChar

StartChar: asciitilde
Encoding: 126 126 94
Width: 584
Flags: MW
HStem: 142 80<377.5 400 377.5 432> 234 80<179 201.5>
LayerCount: 2
Fore
SplineSet
441 288 m 1
 519 288 l 1
 513 190 472 142 392 142 c 0
 359 142 335 150 309 168 c 2
 252 210 l 2
 229 227 212 234 191 234 c 0
 167 234 151 225 143 207 c 0
 140 199 139 195 138 169 c 1
 60 169 l 1
 65 266 108 314 187 314 c 0
 220 314 246 306 270 289 c 2
 327 247 l 2
 353 228 367 222 388 222 c 0
 412 222 428 231 436 249 c 0
 439 257 440 261 441 288 c 1
EndSplineSet
EndChar

StartChar: exclamdown
Encoding: 161 161 95
Width: 333
Flags: MW
HStem: 394 146<66 216 66 216>
VStem: 66 150<-186 24 -186 24 394 540>
LayerCount: 2
Fore
SplineSet
66 -186 m 1
 66 24 l 1
 108 333 l 1
 175 333 l 1
 216 24 l 1
 216 -186 l 1
 66 -186 l 1
66 394 m 1
 66 540 l 1
 216 540 l 1
 216 394 l 1
 66 394 l 1
EndSplineSet
EndChar

StartChar: cent
Encoding: 162 162 96
Width: 556
Flags: MW
VStem: 36 140<213.5 309.5 213.5 345> 259 44<-124 -23 -124 -22 -124 -22 94 433 433 433 549 634>
LayerCount: 2
Fore
SplineSet
303 435 m 1
 303 91 l 1
 349 98 373 126 388 187 c 1
 522 187 l 1
 511 67 422 -18 303 -23 c 1
 303 -124 l 1
 259 -124 l 1
 259 -22 l 1
 120 -13 36 93 36 259 c 0
 36 431 114 533 259 548 c 1
 259 634 l 1
 303 634 l 1
 303 549 l 1
 426 547 514 462 522 338 c 1
 388 338 l 1
 375 400 350 428 303 435 c 1
259 94 m 1
 259 433 l 1
 205 419 176 359 176 260 c 0
 176 167 205 110 259 94 c 1
EndSplineSet
EndChar

StartChar: sterling
Encoding: 163 163 97
Width: 556
Flags: W
HStem: -23 125<382.5 407.5 382.5 416.5> 9 114<176 272.5> 316 55<31 91 31 120 31 91 253 375 253 253> 604 111<248.5 292>
VStem: 38 141<503 539.5 503 544> 141 127<228 243.5>
LayerCount: 2
Fore
SplineSet
375 371 m 1x78
 375 316 l 1
 253 316 l 1
 265 290 268 277 268 257 c 0
 268 199 237 153 152 86 c 1
 215 116 235 123 264 123 c 0x64
 281 123 289 122 328 112 c 0
 354 105 374 102 391 102 c 0
 424 102 456 111 496 131 c 1
 537 22 l 1
 481 -11 441 -23 392 -23 c 0x84
 365 -23 343 -19 293 -7 c 0
 245 5 221 9 195 9 c 0
 157 9 130 1 86 -21 c 1
 31 80 l 1
 115 137 141 173 141 231 c 0x74
 141 256 136 277 120 316 c 1
 31 316 l 1
 31 371 l 1
 91 371 l 1
 46 450 38 472 38 516 c 0
 38 572 66 629 112 666 c 1
 154 698 209 715 276 715 c 0
 380 715 458 676 494 605 c 0
 509 576 517 543 522 484 c 1
 390 484 l 1
 389 495 l 1
 383 541 375 559 354 577 c 0
 334 595 307 604 277 604 c 0
 220 604 179 566 179 513 c 0
 179 493 182 485 206 436 c 0
 223 401 230 386 236 371 c 1
 375 371 l 1x78
EndSplineSet
EndChar

StartChar: currency
Encoding: 168 164 102
Width: 556
Flags: MW
HStem: 147 98<266 304> 460 98<262.5 299.5 262.5 309>
VStem: 76 96<333 371> 386 96<334.5 373 334.5 382>
LayerCount: 2
Fore
SplineSet
388 528 m 1
 461 601 l 1
 530 532 l 1
 455 457 l 1
 475 417 482 392 482 354 c 0
 482 315 473 281 453 246 c 1
 530 170 l 1
 461 102 l 1
 386 177 l 1
 340 152 322 147 286 147 c 0
 246 147 201 159 175 178 c 1
 96 100 l 1
 28 169 l 1
 106 246 l 1
 84 286 76 314 76 352 c 0
 76 390 86 427 105 457 c 1
 26 536 l 1
 95 604 l 1
 172 527 l 1
 203 546 244 558 281 558 c 0
 318 558 359 546 388 528 c 1
280 460 m 0
 220 460 172 413 172 352 c 0
 172 293 220 245 279 245 c 0
 338 245 386 293 386 353 c 0
 386 411 338 460 280 460 c 0
EndSplineSet
EndChar

StartChar: yen
Encoding: 165 165 99
Width: 556
Flags: MW
HStem: 0 20 180 59<70 215 70 215 355 497> 292 59<70 208 70 215 70 208 360 497>
VStem: 215 140<0 180 0 180 239 292 0 292>
LayerCount: 2
Fore
SplineSet
497 351 m 1
 497 292 l 1
 355 292 l 1
 355 239 l 1
 497 239 l 1
 497 180 l 1
 355 180 l 1
 355 0 l 1
 215 0 l 1
 215 180 l 1
 70 180 l 1
 70 239 l 1
 215 239 l 1
 215 292 l 1
 70 292 l 1
 70 351 l 1
 208 351 l 1
 5 704 l 1
 144 704 l 1
 283 450 l 1
 417 704 l 1
 552 704 l 1
 360 351 l 1
 497 351 l 1
EndSplineSet
EndChar

StartChar: brokenbar
Encoding: 420 166 313
Width: 280
Flags: MW
HStem: 709 20<100 180 180 180>
VStem: 100 80<-200 189 -200 189 340 729>
LayerCount: 2
Fore
SplineSet
180 729 m 1
 180 340 l 1
 100 340 l 1
 100 729 l 1
 180 729 l 1
180 189 m 1
 180 -200 l 1
 100 -200 l 1
 100 189 l 1
 180 189 l 1
EndSplineSet
EndChar

StartChar: section
Encoding: 167 167 101
Width: 556
Flags: W
HStem: -201 111<264.5 299.5 264.5 341> 621 102<249 291.5>
VStem: 33 119<301.5 311> 64 140<556 585.5 556 601> 353 141<-47 -20> 398 120<228.5 248>
LayerCount: 2
Fore
SplineSet
473 544 m 1xd4
 346 544 l 1
 339 597 315 621 268 621 c 0
 230 621 204 601 204 570 c 0
 204 542 223 524 294 485 c 2
 421 415 l 2
 487 378 518 330 518 262 c 0xd4
 518 195 491 155 424 124 c 1
 471 91 494 47 494 -10 c 0
 494 -124 406 -201 276 -201 c 0
 137 -201 66 -133 65 0 c 1
 196 0 l 1
 196 -10 l 1
 198 -42 202 -56 215 -68 c 0
 229 -82 252 -90 277 -90 c 0
 322 -90 353 -65 353 -29 c 0
 353 -11 346 5 335 16 c 0
 325 26 325 26 283 49 c 1
 112 149 l 2
 61 179 33 226 33 281 c 0xe8
 33 341 54 374 125 428 c 1
 100 453 97 456 91 465 c 0
 74 487 64 520 64 551 c 0
 64 651 152 723 273 723 c 0
 351 723 416 694 447 647 c 1
 464 619 471 593 473 544 c 1xd4
337 306 m 2
 194 382 l 1
 164 364 152 346 152 317 c 0xe0
 152 286 165 269 205 247 c 2
 352 167 l 1
 386 191 398 209 398 232 c 0
 398 264 384 281 337 306 c 2
EndSplineSet
EndChar

StartChar: dieresis
Encoding: 200 168 130
Width: 333
Flags: MW
HStem: 621 122<18 128 18 128 18 204 204 314>
VStem: 18 110<621 743 621 743> 204 110<621 743 621 743>
LayerCount: 2
Fore
SplineSet
128 743 m 1
 128 621 l 1
 18 621 l 1
 18 743 l 1
 128 743 l 1
314 743 m 1
 314 621 l 1
 204 621 l 1
 204 743 l 1
 314 743 l 1
EndSplineSet
EndChar

StartChar: copyright
Encoding: 409 169 302
Width: 737
Flags: MW
HStem: -22 72<283 451 283 472> 128 83<331 394.5 331 420> 509 83<333.5 395.5> 671 72<284.5 452>
VStem: -14 78<276.5 446.5 276.5 466> 163 92<312.5 406 312.5 431.5> 673 78<274.5 446.5>
LayerCount: 2
Fore
SplineSet
552 431 m 1
 462 431 l 1
 451 485 422 509 369 509 c 0
 298 509 255 453 255 359 c 0
 255 266 296 211 366 211 c 0
 423 211 457 241 462 297 c 1
 554 297 l 1
 549 192 476 128 364 128 c 0
 241 128 163 218 163 360 c 0
 163 503 241 592 367 592 c 0
 433 592 488 567 522 522 c 0
 541 496 549 472 552 431 c 1
369 743 m 0
 579 743 751 572 751 361 c 0
 751 147 580 -22 364 -22 c 0
 158 -22 -14 152 -14 361 c 0
 -14 571 158 743 369 743 c 0
368 671 m 0
 201 671 64 532 64 361 c 0
 64 192 201 50 365 50 c 0
 537 50 673 188 673 361 c 0
 673 532 536 671 368 671 c 0
EndSplineSet
EndChar

StartChar: ordfeminine
Encoding: 227 170 138
Width: 370
Flags: MW
HStem: 262 78<37 321 37 321> 386 68<146.5 147> 661 68<158 194>
VStem: 31 84<481 505.5 481 513.5> 227 82<530 553 553 553 625 629>
LayerCount: 2
Fore
SplineSet
321 340 m 1
 321 262 l 1
 37 262 l 1
 37 340 l 1
 321 340 l 1
329 410 m 1
 329 400 l 1
 237 400 l 1
 229 410 228 416 227 432 c 1
 199 402 165 386 129 386 c 0
 70 386 31 425 31 484 c 0
 31 543 61 576 126 587 c 2
 160 593 l 2
 201 600 201 600 212 606 c 0
 221 610 227 620 227 630 c 0
 227 650 210 661 178 661 c 0
 138 661 123 649 119 617 c 1
 41 617 l 1
 42 691 88 729 176 729 c 0
 264 729 309 695 309 629 c 2
 309 450 l 2
 309 433 313 424 329 410 c 1
227 530 m 2
 227 553 l 1
 217 548 214 547 192 543 c 2
 163 537 l 2
 128 530 115 518 115 493 c 0
 115 469 132 454 161 454 c 0
 203 454 227 482 227 530 c 2
EndSplineSet
EndChar

StartChar: guillemotleft
Encoding: 171 171 105
Width: 556
Flags: W
LayerCount: 2
Fore
SplineSet
88 218 m 1
 88 332 l 1
 255 481 l 1
 255 364 l 1
 154 275 l 1
 255 186 l 1
 255 72 l 1
 88 218 l 1
301 218 m 1
 301 332 l 1
 468 481 l 1
 468 364 l 1
 367 275 l 1
 468 186 l 1
 468 72 l 1
 301 218 l 1
EndSplineSet
EndChar

StartChar: logicalnot
Encoding: 417 172 310
Width: 584
Flags: MW
HStem: 298 77<40 467 40 544>
VStem: 467 77<86 298 298 298>
LayerCount: 2
Fore
SplineSet
40 375 m 1
 544 375 l 1
 544 86 l 1
 467 86 l 1
 467 298 l 1
 40 298 l 1
 40 375 l 1
EndSplineSet
EndChar

StartChar: registered
Encoding: 410 174 303
Width: 737
Flags: MW
HStem: -22 72<283 451 283 472> 313 81<288 391 288 380> 502 81<288 391 288 288> 671 72<284.5 452>
VStem: -14 78<276.5 446.5 276.5 466> 192 96<140 313 394 502> 455 96<437 468.5> 673 78<274.5 446.5>
LayerCount: 2
Fore
SplineSet
288 313 m 1
 288 140 l 1
 192 140 l 1
 192 583 l 1
 430 583 l 2
 506 583 551 538 551 462 c 0
 551 412 530 378 481 354 c 1
 533 330 535 323 538 195 c 0
 538 176 542 169 557 161 c 1
 557 140 l 1
 454 140 l 1
 442 163 440 177 440 221 c 0
 440 229 440 237 441 247 c 1
 441 264 l 2
 441 298 422 313 380 313 c 2
 288 313 l 1
288 394 m 1
 391 394 l 2
 439 394 455 407 455 448 c 0
 455 489 439 502 391 502 c 2
 288 502 l 1
 288 394 l 1
369 743 m 0
 579 743 751 572 751 361 c 0
 751 147 580 -22 364 -22 c 0
 158 -22 -14 152 -14 361 c 0
 -14 571 158 743 369 743 c 0
368 671 m 0
 201 671 64 532 64 361 c 0
 64 192 201 50 365 50 c 0
 537 50 673 188 673 361 c 0
 673 532 536 671 368 671 c 0
EndSplineSet
EndChar

StartChar: macron
Encoding: 197 175 127
Width: 333
Flags: MW
HStem: 640 79<16 315 16 315>
LayerCount: 2
Fore
SplineSet
315 719 m 1
 315 640 l 1
 16 640 l 1
 16 719 l 1
 315 719 l 1
EndSplineSet
EndChar

StartChar: degree
Encoding: 399 176 292
Width: 606
Flags: MW
HStem: 383 63<277.5 326 277.5 343.5> 623 63<278.5 327>
VStem: 151 63<510.5 558.5 510.5 576.5> 391 63<510 559>
LayerCount: 2
Fore
SplineSet
303 686 m 0
 386 686 454 618 454 535 c 0
 454 450 386 383 301 383 c 0
 219 383 151 452 151 535 c 0
 151 618 219 686 303 686 c 0
303 623 m 0
 254 623 214 583 214 534 c 0
 214 487 254 446 301 446 c 0
 351 446 391 485 391 535 c 0
 391 583 351 623 303 623 c 0
EndSplineSet
EndChar

StartChar: plusminus
Encoding: 404 177 297
Width: 584
Flags: MW
HStem: -16 119<56 527 56 527> 313 119<56 232 56 232 351 527>
VStem: 232 119<137 313 137 313 432 608>
LayerCount: 2
Fore
SplineSet
527 103 m 1
 527 -16 l 1
 56 -16 l 1
 56 103 l 1
 527 103 l 1
527 432 m 1
 527 313 l 1
 351 313 l 1
 351 137 l 1
 232 137 l 1
 232 313 l 1
 56 313 l 1
 56 432 l 1
 232 432 l 1
 232 608 l 1
 351 608 l 1
 351 432 l 1
 527 432 l 1
EndSplineSet
EndChar

StartChar: twosuperior
Encoding: 397 178 290
Width: 351
Flags: MW
HStem: 284 81<139 326 139 326> 644 74<153 191>
VStem: 21 91<573.5 595.5 572 621> 233 95<557.5 600>
LayerCount: 2
Fore
SplineSet
326 365 m 1
 326 284 l 1
 16 284 l 1
 19 365 42 403 120 453 c 1
 219 519 233 535 233 580 c 0
 233 620 210 644 172 644 c 0
 134 644 112 618 112 573 c 0
 112 571 113 564 114 557 c 1
 22 557 l 1
 21 565 21 572 21 575 c 0
 21 667 77 718 177 718 c 0
 274 718 328 670 328 584 c 0
 328 524 306 493 226 438 c 0
 195 416 173 400 167 395 c 0
 159 389 153 382 139 365 c 1
 326 365 l 1
EndSplineSet
EndChar

StartChar: threesuperior
Encoding: 398 179 291
Width: 351
Flags: W
HStem: 271 77<151 190 151 218> 645 73<155 183>
VStem: 220 95<582 607.5> 234 95<390.5 428.5>
LayerCount: 2
Fore
SplineSet
134 471 m 1xd0
 134 533 l 1
 145 533 l 2
 194 533 220 553 220 591 c 0
 220 624 199 645 167 645 c 0
 143 645 124 634 117 617 c 0
 112 607 110 596 110 571 c 1
 22 571 l 1
 24 621 31 645 50 669 c 0
 75 700 118 718 170 718 c 0
 258 718 315 672 315 601 c 0xe0
 315 563 297 533 263 512 c 1
 307 491 329 456 329 409 c 0
 329 325 266 271 170 271 c 0
 72 271 16 323 15 414 c 1
 107 414 l 1
 110 369 130 348 172 348 c 0
 208 348 234 373 234 408 c 0
 234 449 205 470 150 471 c 1
 134 471 l 1xd0
EndSplineSet
EndChar

StartChar: acute
Encoding: 194 180 124
Width: 333
Flags: W
LayerCount: 2
Fore
SplineSet
317 757 m 1
 191 607 l 1
 121 607 l 1
 191 757 l 1
 317 757 l 1
EndSplineSet
EndChar

StartChar: paragraph
Encoding: 182 182 114
Width: 556
Flags: MW
HStem: 657 72<325 388 325 325 486 529 486 486>
VStem: 227 98<-191 267 267 267> 388 98<-191 657 -191 657>
LayerCount: 2
Fore
SplineSet
529 729 m 1
 529 657 l 1
 486 657 l 1
 486 -191 l 1
 388 -191 l 1
 388 657 l 1
 325 657 l 1
 325 -191 l 1
 227 -191 l 1
 227 267 l 1
 104 273 19 367 19 495 c 0
 19 550 37 606 70 650 c 0
 109 703 161 729 226 729 c 2
 529 729 l 1
EndSplineSet
EndChar

StartChar: periodcentered
Encoding: 180 183 113
Width: 278
Flags: MW
HStem: 169 123<64 188 64 188>
VStem: 64 124<169 292 169 292>
LayerCount: 2
Fore
SplineSet
64 292 m 1
 188 292 l 1
 188 169 l 1
 64 169 l 1
 64 292 l 1
EndSplineSet
EndChar

StartChar: cedilla
Encoding: 203 184 132
Width: 333
Flags: MW
HStem: -220 50<143 167 137 206.5>
VStem: 208 86<-140.5 -118.5>
LayerCount: 2
Fore
SplineSet
162 0 m 1
 205 0 l 1
 176 -63 l 1
 191 -58 203 -56 218 -56 c 0
 265 -56 294 -83 294 -127 c 0
 294 -187 248 -220 165 -220 c 0
 121 -220 92 -214 27 -192 c 1
 46 -140 l 1
 99 -163 123 -170 151 -170 c 0
 183 -170 208 -152 208 -129 c 0
 208 -108 188 -94 157 -94 c 0
 137 -94 127 -97 108 -106 c 1
 162 0 l 1
EndSplineSet
EndChar

StartChar: onesuperior
Encoding: 396 185 289
Width: 351
Flags: MW
VStem: 147 95<284 573 573 573>
LayerCount: 2
Fore
SplineSet
147 573 m 1
 40 573 l 1
 40 634 l 1
 118 634 164 659 178 709 c 1
 242 709 l 1
 242 284 l 1
 147 284 l 1
 147 573 l 1
EndSplineSet
EndChar

StartChar: ordmasculine
Encoding: 235 186 142
Width: 365
Flags: MW
HStem: 262 78<33 334 33 334> 386 68<160.5 205.5 160.5 232> 661 68<160.5 206>
VStem: 23 84<527 588.5 527 610.5> 259 84<526 587.5>
LayerCount: 2
Fore
SplineSet
334 340 m 1
 334 262 l 1
 33 262 l 1
 33 340 l 1
 334 340 l 1
183 729 m 0
 284 729 343 665 343 555 c 0
 343 451 281 386 183 386 c 0
 84 386 23 451 23 557 c 0
 23 664 84 729 183 729 c 0
183 661 m 0
 138 661 107 619 107 558 c 0
 107 496 138 454 183 454 c 0
 228 454 259 496 259 556 c 0
 259 619 229 661 183 661 c 0
EndSplineSet
EndChar

StartChar: guillemotright
Encoding: 187 187 119
Width: 556
Flags: W
LayerCount: 2
Fore
SplineSet
255 335 m 1
 255 220 l 1
 88 72 l 1
 88 189 l 1
 189 278 l 1
 88 367 l 1
 88 481 l 1
 255 335 l 1
462 335 m 1
 462 220 l 1
 295 72 l 1
 295 189 l 1
 396 278 l 1
 295 367 l 1
 295 481 l 1
 462 335 l 1
EndSplineSet
EndChar

StartChar: onequarter
Encoding: 406 188 299
Width: 869
Flags: MW
HStem: -20 20 93 75<603 709 603 709 530 709 804 850>
VStem: 147 95<284 573 573 573> 709 95<0 93 0 93 168 332 332 332>
LayerCount: 2
Fore
SplineSet
147 573 m 1
 40 573 l 1
 40 634 l 1
 118 634 164 659 178 709 c 1
 242 709 l 1
 242 284 l 1
 147 284 l 1
 147 573 l 1
593 715 m 1
 680 715 l 1
 257 -20 l 1
 170 -20 l 1
 593 715 l 1
850 168 m 1
 850 93 l 1
 804 93 l 1
 804 0 l 1
 709 0 l 1
 709 93 l 1
 530 93 l 1
 530 167 l 1
 695 425 l 1
 804 425 l 1
 804 168 l 1
 850 168 l 1
709 168 m 1
 709 332 l 1
 603 168 l 1
 709 168 l 1
EndSplineSet
EndChar

StartChar: onehalf
Encoding: 405 189 298
Width: 869
Flags: MW
HStem: -20 20 0 81<657 844 657 844> 360 74<671 709>
VStem: 147 95<284 573 573 573> 539 91<289.5 311.5 288 337> 751 95<273.5 316>
LayerCount: 2
Fore
SplineSet
147 573 m 1xfc
 40 573 l 1
 40 634 l 1
 118 634 164 659 178 709 c 1
 242 709 l 1
 242 284 l 1
 147 284 l 1
 147 573 l 1xfc
587 715 m 1
 674 715 l 1
 251 -20 l 1
 164 -20 l 1
 587 715 l 1
844 81 m 1
 844 0 l 1
 534 0 l 1
 537 81 560 119 638 169 c 1
 737 235 751 251 751 296 c 0
 751 336 728 360 690 360 c 0
 652 360 630 334 630 289 c 0
 630 287 631 280 632 273 c 1
 540 273 l 1
 539 281 539 288 539 291 c 0
 539 383 595 434 695 434 c 0
 792 434 846 386 846 300 c 0
 846 240 824 209 744 154 c 0
 714 133 691 116 685 111 c 0
 677 105 671 98 657 81 c 1
 844 81 l 1
EndSplineSet
EndChar

StartChar: questiondown
Encoding: 191 191 122
Width: 611
Flags: MW
HStem: -204 118<267 330.5 267 344> 394 146<223 373 223 373>
VStem: 51 141<-3.5 51.5 -3.5 68> 223 150<394 540 394 540>
LayerCount: 2
Fore
SplineSet
239 339 m 1
 363 339 l 1
 366 254 343 209 263 141 c 1
 204 93 192 74 192 29 c 0
 192 -36 237 -86 297 -86 c 0
 364 -86 412 -24 408 57 c 1
 408 59 l 1
 544 59 l 1
 543 -23 530 -71 497 -115 c 0
 454 -174 387 -204 301 -204 c 0
 153 -204 51 -110 51 26 c 0
 51 110 78 154 172 220 c 0
 232 262 239 274 239 339 c 1
223 394 m 1
 223 540 l 1
 373 540 l 1
 373 394 l 1
 223 394 l 1
EndSplineSet
EndChar

StartChar: Agrave
Encoding: 258 192 151
Width: 722
Flags: MW
HStem: 0 20 147 125<270 460 270 501 228 460> 537 20<365 365> 709 20<285 451 451 451>
LayerCount: 2
Fore
SplineSet
501 147 m 1
 228 147 l 1
 179 0 l 1
 26 0 l 1
 285 729 l 1
 451 729 l 1
 703 0 l 1
 549 0 l 1
 501 147 l 1
460 272 m 1
 365 557 l 1
 270 272 l 1
 460 272 l 1
221 936 m 1
 347 936 l 1
 417 786 l 1
 347 786 l 1
 221 936 l 1
EndSplineSet
EndChar

StartChar: Aacute
Encoding: 257 193 150
Width: 722
Flags: MW
HStem: 0 20 147 125<270 460 270 501 228 460> 537 20<365 365> 709 20<285 451 451 451>
LayerCount: 2
Fore
SplineSet
501 147 m 1
 228 147 l 1
 179 0 l 1
 26 0 l 1
 285 729 l 1
 451 729 l 1
 703 0 l 1
 549 0 l 1
 501 147 l 1
460 272 m 1
 365 557 l 1
 270 272 l 1
 460 272 l 1
510 936 m 1
 384 786 l 1
 314 786 l 1
 384 936 l 1
 510 936 l 1
EndSplineSet
EndChar

StartChar: Acircumflex
Encoding: 259 194 152
Width: 722
Flags: MW
HStem: 0 20 147 125<270 460 270 501 228 460> 537 20<365 365> 709 20<285 451 451 451>
LayerCount: 2
Fore
SplineSet
501 147 m 1
 228 147 l 1
 179 0 l 1
 26 0 l 1
 285 729 l 1
 451 729 l 1
 703 0 l 1
 549 0 l 1
 501 147 l 1
460 272 m 1
 365 557 l 1
 270 272 l 1
 460 272 l 1
313 936 m 1
 420 936 l 1
 523 786 l 1
 445 786 l 1
 363 886 l 1
 281 786 l 1
 205 786 l 1
 313 936 l 1
EndSplineSet
EndChar

StartChar: Atilde
Encoding: 261 195 154
Width: 722
Flags: W
HStem: 0 20 147 125<270 460 270 501 228 460> 537 20<365 365> 709 20<285 451 451 451> 801 79<444.5 458.5 444.5 481.5> 845 79<284 296 259.5 300.5>
LayerCount: 2
Fore
SplineSet
501 147 m 1xf0
 228 147 l 1
 179 0 l 1
 26 0 l 1
 285 729 l 1
 451 729 l 1
 703 0 l 1
 549 0 l 1
 501 147 l 1xf0
460 272 m 1
 365 557 l 1
 270 272 l 1
 460 272 l 1
484 928 m 1x08
 547 928 l 1
 542 843 511 801 452 801 c 0x08
 437 801 417 805 397 813 c 2
 326 839 l 2
 315 843 305 845 296 845 c 0
 272 845 261 832 256 800 c 1
 193 800 l 1
 197 878 232 924 287 924 c 0x04
 305 924 311 923 343 911 c 2
 414 886 l 2
 421 884 441 880 448 880 c 0
 469 880 481 896 484 928 c 1x08
EndSplineSet
EndChar

StartChar: Aring
Encoding: 262 197 155
Width: 722
Flags: MW
HStem: 0 20 147 125<270 460 270 501 228 460> 537 20<365 365> 709 20<285 451 451 451> 769 48<353 376 353 388.5> 901 48<353 376.5>
VStem: 26 48 158 48
LayerCount: 2
Fore
SplineSet
501 147 m 1
 228 147 l 1
 179 0 l 1
 26 0 l 1
 285 729 l 1
 451 729 l 1
 703 0 l 1
 549 0 l 1
 501 147 l 1
460 272 m 1
 365 557 l 1
 270 272 l 1
 460 272 l 1
365 949 m 0
 415 949 454 909 454 858 c 0
 454 809 413 769 364 769 c 0
 314 769 274 809 274 859 c 0
 274 909 314 949 365 949 c 0
365 901 m 0
 341 901 322 882 322 859 c 0
 322 836 341 817 365 817 c 0
 387 817 406 836 406 859 c 0
 406 882 388 901 365 901 c 0
EndSplineSet
EndChar

StartChar: AE
Encoding: 225 198 137
Width: 1000
Flags: MW
HStem: 0 125<580 966 580 966> 152 125<249 430 249 430 207 430> 314 125<580 919 580 919> 604 125<363 430 363 363 580 946 580 580>
VStem: 430 150<125 152 152 152 277 314 439 604>
LayerCount: 2
Fore
SplineSet
430 152 m 1
 207 152 l 1
 154 0 l 1
 1 0 l 1
 264 729 l 1
 946 729 l 1
 946 604 l 1
 580 604 l 1
 580 439 l 1
 919 439 l 1
 919 314 l 1
 580 314 l 1
 580 125 l 1
 966 125 l 1
 966 0 l 1
 430 0 l 1
 430 152 l 1
430 277 m 1
 430 604 l 1
 363 604 l 1
 249 277 l 1
 430 277 l 1
EndSplineSet
EndChar

StartChar: Ccedilla
Encoding: 264 199 157
Width: 722
Flags: MW
HStem: -220 50<327 351 321 390.5> -94 197<331 356.5> 613 128<324 409>
VStem: 44 150<294 436.5 276.5 476> 392 86<-140.5 -118.5>
LayerCount: 2
Fore
SplineSet
379 -23 m 1
 360 -63 l 1
 374 -58 386 -56 402 -56 c 0
 449 -56 478 -83 478 -127 c 0
 478 -187 432 -220 349 -220 c 0
 305 -220 276 -214 211 -192 c 1
 230 -140 l 1
 283 -163 307 -170 335 -170 c 0
 367 -170 392 -152 392 -129 c 0
 392 -108 372 -94 341 -94 c 0
 321 -94 311 -97 292 -106 c 1
 335 -23 l 1
 242 -7 203 11 155 56 c 0
 82 126 44 230 44 358 c 0
 44 594 172 741 378 741 c 0
 487 741 577 700 633 626 c 0
 664 585 677 545 682 482 c 1
 539 482 l 1
 530 521 522 540 506 560 c 0
 478 595 435 613 383 613 c 0
 265 613 194 517 194 356 c 0
 194 197 262 103 378 103 c 0
 471 103 530 156 539 249 c 1
 685 249 l 1
 677 84 561 -19 379 -23 c 1
EndSplineSet
EndChar

StartChar: Ecircumflex
Encoding: 271 202 164
Width: 667
Flags: MW
HStem: 0 125<229 624 229 624> 314 125<229 578 229 578> 604 125<229 606 229 229>
VStem: 79 150<125 314 125 439 439 604>
LayerCount: 2
Fore
SplineSet
229 314 m 1
 229 125 l 1
 624 125 l 1
 624 0 l 1
 79 0 l 1
 79 729 l 1
 606 729 l 1
 606 604 l 1
 229 604 l 1
 229 439 l 1
 578 439 l 1
 578 314 l 1
 229 314 l 1
294 936 m 1
 401 936 l 1
 504 786 l 1
 426 786 l 1
 344 886 l 1
 262 786 l 1
 186 786 l 1
 294 936 l 1
EndSplineSet
EndChar

StartChar: Edieresis
Encoding: 268 203 161
Width: 667
Flags: W
HStem: 0 125<229 624 229 624> 314 125<229 578 229 578> 604 125<229 606 229 229> 800 122<197 307 197 307 197 383 383 493>
VStem: 79 110 79 150<125 314 125 439 439 604> 265 110
LayerCount: 2
Fore
SplineSet
229 314 m 1xf4
 229 125 l 1
 624 125 l 1
 624 0 l 1
 79 0 l 1
 79 729 l 1
 606 729 l 1
 606 604 l 1
 229 604 l 1
 229 439 l 1
 578 439 l 1
 578 314 l 1
 229 314 l 1xf4
307 922 m 1xfa
 307 800 l 1
 197 800 l 1
 197 922 l 1
 307 922 l 1xfa
493 922 m 1
 493 800 l 1
 383 800 l 1
 383 922 l 1
 493 922 l 1
EndSplineSet
EndChar

StartChar: Igrave
Encoding: 278 204 171
Width: 278
Flags: MW
HStem: 0 20 709 20<63 213 213 213>
VStem: 63 150<0 729 0 729>
LayerCount: 2
Fore
SplineSet
213 729 m 1
 213 0 l 1
 63 0 l 1
 63 729 l 1
 213 729 l 1
-10 936 m 1
 116 936 l 1
 186 786 l 1
 116 786 l 1
 -10 936 l 1
EndSplineSet
EndChar

StartChar: Icircumflex
Encoding: 279 206 172
Width: 278
Flags: MW
HStem: 0 20 709 20<63 213 213 213>
VStem: 63 150<0 729 0 729>
LayerCount: 2
Fore
SplineSet
213 729 m 1
 213 0 l 1
 63 0 l 1
 63 729 l 1
 213 729 l 1
89 936 m 1
 196 936 l 1
 299 786 l 1
 221 786 l 1
 139 886 l 1
 57 786 l 1
 -19 786 l 1
 89 936 l 1
EndSplineSet
EndChar

StartChar: Idieresis
Encoding: 276 207 169
Width: 278
Flags: W
HStem: 0 20 709 20<63 213 213 213> 800 122<-9 101 -9 101 -9 177 177 287>
VStem: -9 110<800 922 800 922> 63 150<0 729 0 729> 177 110<800 922 800 922>
LayerCount: 2
Fore
SplineSet
213 729 m 1xe8
 213 0 l 1
 63 0 l 1
 63 729 l 1
 213 729 l 1xe8
101 922 m 1xf4
 101 800 l 1
 -9 800 l 1
 -9 922 l 1
 101 922 l 1xf4
287 922 m 1
 287 800 l 1
 177 800 l 1
 177 922 l 1
 287 922 l 1
EndSplineSet
EndChar

StartChar: Ntilde
Encoding: 285 209 178
Width: 722
Flags: W
HStem: 0 20 709 20<68 222 222 222 511 661 661 661> 801 79<445.5 459.5 445.5 482.5> 845 79<285 297 260.5 301.5>
VStem: 68 150<0 504 0 729> 511 150<0 729 233 729 0 729>
LayerCount: 2
Fore
SplineSet
511 0 m 1xcc
 218 504 l 1
 218 0 l 1
 68 0 l 1
 68 729 l 1
 222 729 l 1
 511 233 l 1
 511 729 l 1
 661 729 l 1
 661 0 l 1
 511 0 l 1xcc
485 928 m 1x2c
 548 928 l 1
 543 843 512 801 453 801 c 0x2c
 438 801 418 805 398 813 c 2
 327 839 l 2
 316 843 306 845 297 845 c 0
 273 845 262 832 257 800 c 1
 194 800 l 1
 198 878 233 924 288 924 c 0x1c
 306 924 312 923 344 911 c 2
 415 886 l 2
 422 884 442 880 449 880 c 0
 470 880 482 896 485 928 c 1x2c
EndSplineSet
EndChar

StartChar: Oacute
Encoding: 287 211 180
Width: 778
Flags: MW
HStem: -23 128<339 443> 613 128<339 442.5 339 452.5>
VStem: 40 150<304.5 413.5> 592 150<302.5 411 302.5 434>
LayerCount: 2
Fore
SplineSet
390 741 m 0
 495 741 576 709 640 640 c 0
 705 570 742 468 742 354 c 0
 742 251 703 145 640 78 c 0
 577 10 495 -23 391 -23 c 0
 287 -23 205 10 142 78 c 0
 77 147 40 250 40 359 c 0
 40 468 77 570 142 640 c 0
 204 707 288 741 390 741 c 0
391 613 m 0
 270 613 190 512 190 359 c 0
 190 206 270 105 391 105 c 0
 511 105 592 206 592 355 c 0
 592 513 514 613 391 613 c 0
530 936 m 1
 404 786 l 1
 334 786 l 1
 404 936 l 1
 530 936 l 1
EndSplineSet
EndChar

StartChar: Otilde
Encoding: 290 213 183
Width: 778
Flags: W
HStem: -23 128<339 443> 613 128<339 442.5 339 452.5> 801 79<472.5 486.5 472.5 509.5> 845 79<312 324 287.5 328.5>
VStem: 40 150<304.5 413.5> 592 150<302.5 411 302.5 434>
LayerCount: 2
Fore
SplineSet
390 741 m 0xcc
 495 741 576 709 640 640 c 0
 705 570 742 468 742 354 c 0
 742 251 703 145 640 78 c 0
 577 10 495 -23 391 -23 c 0
 287 -23 205 10 142 78 c 0
 77 147 40 250 40 359 c 0
 40 468 77 570 142 640 c 0
 204 707 288 741 390 741 c 0xcc
391 613 m 0
 270 613 190 512 190 359 c 0
 190 206 270 105 391 105 c 0
 511 105 592 206 592 355 c 0
 592 513 514 613 391 613 c 0
512 928 m 1x2c
 575 928 l 1
 570 843 539 801 480 801 c 0x2c
 465 801 445 805 425 813 c 2
 354 839 l 2
 343 843 333 845 324 845 c 0
 300 845 289 832 284 800 c 1
 221 800 l 1
 225 878 260 924 315 924 c 0x1c
 333 924 339 923 371 911 c 2
 442 886 l 2
 449 884 469 880 476 880 c 0
 497 880 509 896 512 928 c 1x2c
EndSplineSet
EndChar

StartChar: Odieresis
Encoding: 286 214 179
Width: 778
Flags: W
HStem: -23 128<339 443> 613 128<339 442.5 339 452.5> 800 122<243 353 243 353 243 429 429 539>
VStem: 40 110 40 150<304.5 413.5> 226 110 592 150<302.5 411 302.5 434>
LayerCount: 2
Fore
SplineSet
390 741 m 0xea
 495 741 576 709 640 640 c 0
 705 570 742 468 742 354 c 0
 742 251 703 145 640 78 c 0
 577 10 495 -23 391 -23 c 0
 287 -23 205 10 142 78 c 0
 77 147 40 250 40 359 c 0
 40 468 77 570 142 640 c 0
 204 707 288 741 390 741 c 0xea
391 613 m 0
 270 613 190 512 190 359 c 0
 190 206 270 105 391 105 c 0
 511 105 592 206 592 355 c 0
 592 513 514 613 391 613 c 0
353 922 m 1xf4
 353 800 l 1
 243 800 l 1
 243 922 l 1
 353 922 l 1xf4
539 922 m 1
 539 800 l 1
 429 800 l 1
 429 922 l 1
 539 922 l 1
EndSplineSet
EndChar

StartChar: multiply
Encoding: 401 215 294
Width: 584
Flags: W
LayerCount: 2
Fore
SplineSet
421 444 m 1
 505 360 l 1
 376 231 l 1
 504 102 l 1
 420 18 l 1
 292 147 l 1
 164 19 l 1
 80 103 l 1
 208 231 l 1
 79 359 l 1
 163 444 l 1
 292 315 l 1
 421 444 l 1
EndSplineSet
EndChar

StartChar: Oslash
Encoding: 233 216 140
Width: 778
Flags: W
HStem: -23 128<362 440> 613 128<335.5 416> 729 20<703 703>
VStem: 35 150<328.5 413.5> 590 150<303.5 384.5>
LayerCount: 2
Fore
SplineSet
165 52 m 1xb8
 82 -39 l 1
 31 7 l 1
 117 102 l 1
 62 176 35 261 35 359 c 0
 35 468 72 571 138 640 c 1
 201 708 283 741 388 741 c 0xd8
 483 741 553 716 620 657 c 1
 703 749 l 1
 755 704 l 1
 666 605 l 1
 712 542 740 449 740 357 c 0
 740 250 702 146 637 78 c 1
 574 10 492 -23 388 -23 c 0
 298 -23 223 2 165 52 c 1xb8
567 497 m 1
 256 153 l 1
 287 123 336 105 388 105 c 0
 510 105 590 206 590 361 c 0
 590 408 582 457 567 497 c 1
214 209 m 1
 528 555 l 1
 491 594 444 613 388 613 c 0
 264 613 185 512 185 356 c 0
 185 301 195 251 214 209 c 1
EndSplineSet
EndChar

StartChar: Ugrave
Encoding: 300 217 193
Width: 722
Flags: MW
HStem: -23 128<321 409> 709 20<76 226 226 226 504 654 654 654>
VStem: 76 150<235 729> 504 150<235 729>
LayerCount: 2
Fore
SplineSet
504 729 m 1
 654 729 l 1
 654 235 l 2
 654 153 632 95 583 51 c 0
 530 3 453 -23 365 -23 c 0
 277 -23 200 3 147 51 c 0
 98 95 76 153 76 235 c 2
 76 729 l 1
 226 729 l 1
 226 235 l 2
 226 147 271 105 365 105 c 0
 459 105 504 147 504 235 c 2
 504 729 l 1
228 936 m 1
 354 936 l 1
 424 786 l 1
 354 786 l 1
 228 936 l 1
EndSplineSet
EndChar

StartChar: Ucircumflex
Encoding: 301 219 194
Width: 722
Flags: MW
HStem: -23 128<321 409> 709 20<76 226 226 226 504 654 654 654>
VStem: 76 150<235 729> 504 150<235 729>
LayerCount: 2
Fore
SplineSet
504 729 m 1
 654 729 l 1
 654 235 l 2
 654 153 632 95 583 51 c 0
 530 3 453 -23 365 -23 c 0
 277 -23 200 3 147 51 c 0
 98 95 76 153 76 235 c 2
 76 729 l 1
 226 729 l 1
 226 235 l 2
 226 147 271 105 365 105 c 0
 459 105 504 147 504 235 c 2
 504 729 l 1
314 936 m 1
 421 936 l 1
 524 786 l 1
 446 786 l 1
 364 886 l 1
 282 786 l 1
 206 786 l 1
 314 936 l 1
EndSplineSet
EndChar

StartChar: Udieresis
Encoding: 298 220 191
Width: 722
Flags: W
HStem: -23 128<321 409> 709 20<76 226 226 226 504 654 654 654> 800 122<217 327 217 327 217 403 403 513>
VStem: 76 110 76 150<235 729> 262 110 504 150<235 729>
LayerCount: 2
Fore
SplineSet
504 729 m 1xea
 654 729 l 1
 654 235 l 2
 654 153 632 95 583 51 c 0
 530 3 453 -23 365 -23 c 0
 277 -23 200 3 147 51 c 0
 98 95 76 153 76 235 c 2
 76 729 l 1
 226 729 l 1
 226 235 l 2
 226 147 271 105 365 105 c 0
 459 105 504 147 504 235 c 2
 504 729 l 1xea
327 922 m 1xf4
 327 800 l 1
 217 800 l 1
 217 922 l 1
 327 922 l 1xf4
513 922 m 1
 513 800 l 1
 403 800 l 1
 403 922 l 1
 513 922 l 1
EndSplineSet
EndChar

StartChar: Yacute
Encoding: 304 221 197
Width: 667
Flags: MW
HStem: 0 20 709 20<27 194 194 194 482 650 650 650>
VStem: 269 150<0 270 0 270>
LayerCount: 2
Fore
SplineSet
419 270 m 1
 419 0 l 1
 269 0 l 1
 269 270 l 1
 27 729 l 1
 194 729 l 1
 343 407 l 1
 482 729 l 1
 650 729 l 1
 419 270 l 1
480 936 m 1
 354 786 l 1
 284 786 l 1
 354 936 l 1
 480 936 l 1
EndSplineSet
EndChar

StartChar: Thorn
Encoding: 391 222 284
Width: 667
Flags: MW
HStem: 0 20 140 125<226 366 226 366 366 406 226 413> 484 125<226 366 226 398> 709 20<76 226 226 226>
VStem: 76 150<0 140 265 484 609 729> 483 150<337 411.5>
LayerCount: 2
Fore
SplineSet
226 140 m 1
 226 0 l 1
 76 0 l 1
 76 729 l 1
 226 729 l 1
 226 609 l 1
 398 609 l 2
 480 609 531 592 571 553 c 0
 613 512 633 456 633 382 c 0
 633 233 548 140 413 140 c 2
 226 140 l 1
226 265 m 1
 366 265 l 2
 446 265 483 300 483 374 c 0
 483 449 446 484 366 484 c 2
 226 484 l 1
 226 265 l 1
EndSplineSet
EndChar

StartChar: germandbls
Encoding: 251 223 148
Width: 611
Flags: W
HStem: -17 20 616 113<268.5 324.5>
VStem: 67 140<0 518 518 537 0 557> 392 140<513.5 559> 435 140<190.5 264>
LayerCount: 2
Fore
SplineSet
285 349 m 1xc8
 285 444 l 1
 294 444 l 1
 354 445 392 479 392 533 c 0
 392 585 355 616 294 616 c 0
 239 616 207 587 207 537 c 2
 207 0 l 1
 67 0 l 1
 67 518 l 2
 67 596 85 645 128 679 c 0
 167 710 234 729 303 729 c 0
 438 729 532 654 532 547 c 0xf0
 532 480 502 433 445 411 c 1
 479 404 499 394 524 371 c 0
 560 336 575 298 575 236 c 0
 575 84 488 -17 357 -17 c 0
 335 -17 318 -15 285 -11 c 1
 285 101 l 1
 291 102 296 102 298 102 c 2
 318 103 l 1
 387 104 435 155 435 226 c 0
 435 302 383 349 298 349 c 2
 285 349 l 1xc8
EndSplineSet
EndChar

StartChar: aacute
Encoding: 323 225 216
Width: 556
Flags: MW
HStem: -23 113<220.5 222> 436 113<239.5 301>
VStem: 28 140<135 176 135 187.5> 355 137<217 255 255 255 373 383>
LayerCount: 2
Fore
SplineSet
524 17 m 1
 524 0 l 1
 372 0 l 1
 359 16 356 26 356 54 c 1
 307 3 252 -23 192 -23 c 0
 144 -23 97 -4 66 28 c 0
 41 55 28 93 28 139 c 0
 28 236 80 291 187 309 c 1
 243 319 l 1
 312 330 312 330 331 340 c 0
 346 348 355 364 355 382 c 0
 355 418 328 436 274 436 c 0
 205 436 182 418 175 362 c 1
 40 362 l 1
 49 487 125 549 271 549 c 0
 417 549 492 493 492 383 c 2
 492 83 l 2
 492 55 499 40 524 17 c 1
355 217 m 2
 355 255 l 1
 339 247 333 245 296 238 c 2
 248 229 l 1
 190 217 168 197 168 155 c 0
 168 115 197 90 244 90 c 0
 315 90 355 136 355 217 c 2
411 757 m 1
 285 607 l 1
 215 607 l 1
 285 757 l 1
 411 757 l 1
EndSplineSet
EndChar

StartChar: acircumflex
Encoding: 325 226 218
Width: 556
Flags: MW
HStem: -23 113<220.5 222> 436 113<239.5 301>
VStem: 28 140<135 176 135 187.5> 355 137<217 255 255 255 373 383>
LayerCount: 2
Fore
SplineSet
524 17 m 1
 524 0 l 1
 372 0 l 1
 359 16 356 26 356 54 c 1
 307 3 252 -23 192 -23 c 0
 144 -23 97 -4 66 28 c 0
 41 55 28 93 28 139 c 0
 28 236 80 291 187 309 c 1
 243 319 l 1
 312 330 312 330 331 340 c 0
 346 348 355 364 355 382 c 0
 355 418 328 436 274 436 c 0
 205 436 182 418 175 362 c 1
 40 362 l 1
 49 487 125 549 271 549 c 0
 417 549 492 493 492 383 c 2
 492 83 l 2
 492 55 499 40 524 17 c 1
355 217 m 2
 355 255 l 1
 339 247 333 245 296 238 c 2
 248 229 l 1
 190 217 168 197 168 155 c 0
 168 115 197 90 244 90 c 0
 315 90 355 136 355 217 c 2
221 757 m 1
 328 757 l 1
 431 607 l 1
 353 607 l 1
 271 707 l 1
 189 607 l 1
 113 607 l 1
 221 757 l 1
EndSplineSet
EndChar

StartChar: atilde
Encoding: 327 227 220
Width: 556
Flags: W
HStem: -23 113<220.5 222> 436 113<239.5 301> 622 79<346.5 360.5 346.5 383.5> 666 79<186 198.5 161.5 202.5> 729 20<386 449 449 449>
VStem: 28 140<135 176 135 187.5> 355 137<217 255 255 255 373 383>
LayerCount: 2
Fore
SplineSet
524 17 m 1xc6
 524 0 l 1
 372 0 l 1
 359 16 356 26 356 54 c 1
 307 3 252 -23 192 -23 c 0
 144 -23 97 -4 66 28 c 0
 41 55 28 93 28 139 c 0
 28 236 80 291 187 309 c 1
 243 319 l 1
 312 330 312 330 331 340 c 0
 346 348 355 364 355 382 c 0
 355 418 328 436 274 436 c 0
 205 436 182 418 175 362 c 1
 40 362 l 1
 49 487 125 549 271 549 c 0
 417 549 492 493 492 383 c 2
 492 83 l 2
 492 55 499 40 524 17 c 1xc6
355 217 m 2
 355 255 l 1
 339 247 333 245 296 238 c 2
 248 229 l 1
 190 217 168 197 168 155 c 0
 168 115 197 90 244 90 c 0
 315 90 355 136 355 217 c 2
386 749 m 1x2e
 449 749 l 1
 445 664 413 622 354 622 c 0x2e
 339 622 320 626 299 634 c 2
 228 660 l 2
 216 664 207 666 198 666 c 0
 174 666 163 653 158 621 c 1
 95 621 l 1
 99 699 134 745 189 745 c 0x16
 208 745 209 745 245 732 c 2
 316 707 l 2
 323 704 343 701 350 701 c 0
 371 701 383 717 386 749 c 1x2e
EndSplineSet
EndChar

StartChar: adieresis
Encoding: 322 228 215
Width: 556
Flags: W
HStem: -23 113<220.5 222> 436 113<239.5 301> 621 122<124 234 124 234 124 310 310 420>
VStem: 28 110 28 140<135 176 135 187.5> 214 110 355 137<217 255 255 255 373 383>
LayerCount: 2
Fore
SplineSet
524 17 m 1xea
 524 0 l 1
 372 0 l 1
 359 16 356 26 356 54 c 1
 307 3 252 -23 192 -23 c 0
 144 -23 97 -4 66 28 c 0
 41 55 28 93 28 139 c 0
 28 236 80 291 187 309 c 1
 243 319 l 1
 312 330 312 330 331 340 c 0
 346 348 355 364 355 382 c 0
 355 418 328 436 274 436 c 0
 205 436 182 418 175 362 c 1
 40 362 l 1
 49 487 125 549 271 549 c 0
 417 549 492 493 492 383 c 2
 492 83 l 2
 492 55 499 40 524 17 c 1xea
355 217 m 2
 355 255 l 1
 339 247 333 245 296 238 c 2
 248 229 l 1
 190 217 168 197 168 155 c 0
 168 115 197 90 244 90 c 0
 315 90 355 136 355 217 c 2
234 743 m 1xf4
 234 621 l 1
 124 621 l 1
 124 743 l 1
 234 743 l 1xf4
420 743 m 1
 420 621 l 1
 310 621 l 1
 310 743 l 1
 420 743 l 1
EndSplineSet
EndChar

StartChar: aring
Encoding: 328 229 221
Width: 556
Flags: W
HStem: -23 113<220.5 222> 436 113<239.5 301> 590 48<261 284 261 296.5> 722 48<261 284.5>
VStem: 28 48 28 140<135 176 135 187.5> 160 48 355 137<217 255 255 255 373 383>
LayerCount: 2
Fore
SplineSet
524 17 m 1xf5
 524 0 l 1
 372 0 l 1
 359 16 356 26 356 54 c 1
 307 3 252 -23 192 -23 c 0
 144 -23 97 -4 66 28 c 0
 41 55 28 93 28 139 c 0
 28 236 80 291 187 309 c 1
 243 319 l 1
 312 330 312 330 331 340 c 0
 346 348 355 364 355 382 c 0
 355 418 328 436 274 436 c 0
 205 436 182 418 175 362 c 1
 40 362 l 1
 49 487 125 549 271 549 c 0
 417 549 492 493 492 383 c 2
 492 83 l 2
 492 55 499 40 524 17 c 1xf5
355 217 m 2
 355 255 l 1
 339 247 333 245 296 238 c 2
 248 229 l 1
 190 217 168 197 168 155 c 0
 168 115 197 90 244 90 c 0
 315 90 355 136 355 217 c 2
273 770 m 0xfa
 323 770 362 730 362 679 c 0
 362 630 321 590 272 590 c 0
 222 590 182 630 182 680 c 0
 182 730 222 770 273 770 c 0xfa
273 722 m 0
 249 722 230 703 230 680 c 0
 230 657 249 638 273 638 c 0
 295 638 314 657 314 680 c 0
 314 703 296 722 273 722 c 0
EndSplineSet
EndChar

StartChar: ae
Encoding: 241 230 143
Width: 889
Flags: W
HStem: -24 113<219.5 235.5> -23 107<588.5 632 588.5 660.5> 226 93<495 711 495 856 494 711> 436 113<237.5 297.5> 442 107<570.5 634.5>
VStem: 27 140<134.5 175.5 134.5 190>
LayerCount: 2
Fore
SplineSet
712 152 m 1x6c
 850 152 l 1
 819 45 721 -23 600 -23 c 0x44
 512 -23 442 13 400 81 c 1
 338 8 276 -24 195 -24 c 0
 92 -24 27 40 27 141 c 0
 27 239 78 294 186 312 c 1
 242 322 l 1
 311 333 311 333 330 343 c 0
 345 351 354 367 354 383 c 0
 354 419 326 436 269 436 c 0
 206 436 181 416 174 362 c 1
 43 362 l 1
 45 486 122 549 271 549 c 0x94
 349 549 408 532 446 499 c 1
 487 532 540 549 601 549 c 0
 713 549 799 491 836 392 c 0
 849 355 857 304 857 250 c 0
 857 245 857 238 856 226 c 1
 494 226 l 1
 494 180 499 156 514 133 c 0
 534 102 569 84 608 84 c 0
 656 84 700 113 712 152 c 1x6c
354 216 m 2xac
 354 254 l 1
 337 244 325 240 295 235 c 2
 247 228 l 2
 194 221 167 196 167 155 c 0
 167 114 196 89 243 89 c 0
 315 89 354 134 354 216 c 2xac
495 319 m 1
 711 319 l 1
 704 400 667 442 602 442 c 0
 538 442 501 400 495 319 c 1
EndSplineSet
EndChar

StartChar: ccedilla
Encoding: 332 231 225
Width: 556
Flags: MW
HStem: -220 50<241 264 234.5 304.5> -94 184<245 315.5> 436 113<268 316.5>
VStem: 34 140<231.5 285 231.5 351> 306 86<-140.5 -118.5>
LayerCount: 2
Fore
SplineSet
291 -23 m 1
 274 -63 l 1
 287 -58 300 -56 315 -56 c 0
 363 -56 392 -83 392 -127 c 0
 392 -187 346 -220 263 -220 c 0
 219 -220 185 -213 125 -192 c 1
 144 -140 l 1
 195 -163 221 -170 248 -170 c 0
 280 -170 306 -152 306 -129 c 0
 306 -108 286 -94 255 -94 c 0
 235 -94 224 -97 205 -106 c 1
 248 -21 l 1
 110 -3 34 96 34 259 c 0
 34 443 128 549 289 549 c 0
 424 549 512 470 522 338 c 1
 388 338 l 1
 372 409 345 436 288 436 c 0
 248 436 217 420 201 390 c 0
 184 358 174 310 174 260 c 0
 174 203 189 151 212 123 c 0
 228 103 259 90 289 90 c 0
 342 90 371 118 388 187 c 1
 522 187 l 1
 511 62 416 -24 291 -23 c 1
EndSplineSet
EndChar

StartChar: egrave
Encoding: 336 232 229
Width: 556
Flags: MW
HStem: -23 107<254 299.5 254 329.5> 226 93<164 379 164 524 162 379> 442 107<239 287.5>
LayerCount: 2
Fore
SplineSet
524 226 m 1
 162 226 l 1
 164 175 169 151 182 131 c 0
 202 101 234 84 274 84 c 0
 325 84 364 109 381 152 c 1
 519 152 l 1
 488 46 390 -23 269 -23 c 0
 116 -23 22 83 22 256 c 0
 22 437 117 549 272 549 c 0
 381 549 468 490 504 392 c 0
 517 354 525 304 525 250 c 0
 525 243 525 238 524 226 c 1
164 319 m 1
 379 319 l 1
 376 356 370 377 357 397 c 1
 337 425 305 442 270 442 c 0
 208 442 173 401 164 319 c 1
133 757 m 1
 259 757 l 1
 329 607 l 1
 259 607 l 1
 133 757 l 1
EndSplineSet
EndChar

StartChar: eacute
Encoding: 335 233 228
Width: 556
Flags: MW
HStem: -23 107<254 299.5 254 329.5> 226 93<164 379 164 524 162 379> 442 107<239 287.5>
LayerCount: 2
Fore
SplineSet
524 226 m 1
 162 226 l 1
 164 175 169 151 182 131 c 0
 202 101 234 84 274 84 c 0
 325 84 364 109 381 152 c 1
 519 152 l 1
 488 46 390 -23 269 -23 c 0
 116 -23 22 83 22 256 c 0
 22 437 117 549 272 549 c 0
 381 549 468 490 504 392 c 0
 517 354 525 304 525 250 c 0
 525 243 525 238 524 226 c 1
164 319 m 1
 379 319 l 1
 376 356 370 377 357 397 c 1
 337 425 305 442 270 442 c 0
 208 442 173 401 164 319 c 1
419 757 m 1
 293 607 l 1
 223 607 l 1
 293 757 l 1
 419 757 l 1
EndSplineSet
EndChar

StartChar: igrave
Encoding: 344 236 237
Width: 278
Flags: MW
HStem: 0 20 520 20<67 207 207 207>
VStem: 67 140<0 540 0 540>
LayerCount: 2
Fore
SplineSet
207 540 m 1
 207 0 l 1
 67 0 l 1
 67 540 l 1
 207 540 l 1
-10 757 m 1
 116 757 l 1
 186 607 l 1
 116 607 l 1
 -10 757 l 1
EndSplineSet
EndChar

StartChar: iacute
Encoding: 343 237 236
Width: 278
Flags: MW
HStem: 0 20 520 20<67 207 207 207>
VStem: 67 140<0 540 0 540>
LayerCount: 2
Fore
SplineSet
207 540 m 1
 207 0 l 1
 67 0 l 1
 67 540 l 1
 207 540 l 1
290 757 m 1
 164 607 l 1
 94 607 l 1
 164 757 l 1
 290 757 l 1
EndSplineSet
EndChar

StartChar: icircumflex
Encoding: 345 238 238
Width: 278
Flags: MW
HStem: 0 20 520 20<67 207 207 207>
VStem: 67 140<0 540 0 540>
LayerCount: 2
Fore
SplineSet
207 540 m 1
 207 0 l 1
 67 0 l 1
 67 540 l 1
 207 540 l 1
89 757 m 1
 196 757 l 1
 299 607 l 1
 221 607 l 1
 139 707 l 1
 57 607 l 1
 -19 607 l 1
 89 757 l 1
EndSplineSet
EndChar

StartChar: idieresis
Encoding: 342 239 235
Width: 278
Flags: W
HStem: 0 20 520 20<67 207 207 207> 621 122<-9 101 -9 101 -9 177 177 287>
VStem: -9 110<621 743 621 743> 67 140<0 540 0 540> 177 110<621 743 621 743>
LayerCount: 2
Fore
SplineSet
207 540 m 1xe8
 207 0 l 1
 67 0 l 1
 67 540 l 1
 207 540 l 1xe8
101 743 m 1xf4
 101 621 l 1
 -9 621 l 1
 -9 743 l 1
 101 743 l 1xf4
287 743 m 1
 287 621 l 1
 177 621 l 1
 177 743 l 1
 287 743 l 1
EndSplineSet
EndChar

StartChar: eth
Encoding: 393 240 286
Width: 611
Flags: W
HStem: -23 113<264 340 264 386> 429 105<264 287 252.5 340.5> 721 20<192 192> 724 20<381 381>
VStem: 35 141<208.5 311 208.5 320> 428 141<207 309.5>
LayerCount: 2
Fore
SplineSet
432 710 m 1x1c
 348 660 l 1
 499 558 569 435 569 269 c 0
 569 85 470 -23 302 -23 c 0
 135 -23 35 85 35 265 c 0
 35 375 72 452 148 497 c 0
 187 521 231 534 274 534 c 0
 300 534 320 530 359 515 c 1
 332 558 302 589 264 611 c 1
 187 565 l 1
 145 602 l 1
 215 646 l 1
 188 662 174 670 125 694 c 1
 192 741 l 1xec
 229 727 232 725 279 699 c 0
 280 698 286 695 294 692 c 1
 381 744 l 1
 432 710 l 1x1c
302 429 m 0
 226 429 176 362 176 260 c 0
 176 157 226 90 302 90 c 0
 378 90 428 157 428 257 c 0
 428 362 379 429 302 429 c 0
EndSplineSet
EndChar

StartChar: ntilde
Encoding: 350 241 243
Width: 611
Flags: W
HStem: 0 20 430 119<328.5 346> 520 20<63 203 203 203> 622 79<375.5 389.5 375.5 412.5> 666 79<215 227.5 190.5 231.5> 729 20<415 478 478 478>
VStem: 63 140<0 324 462 540> 406 140<0 333 333 362 0 365>
LayerCount: 2
Fore
SplineSet
63 540 m 1xa3
 203 540 l 1x23
 203 462 l 1
 243 522 292 549 365 549 c 0
 480 549 546 481 546 362 c 2
 546 0 l 1
 406 0 l 1
 406 333 l 2
 406 397 376 430 316 430 c 0xc3
 248 430 203 388 203 324 c 2
 203 0 l 1
 63 0 l 1
 63 540 l 1xa3
415 749 m 1x17
 478 749 l 1
 474 664 442 622 383 622 c 0x17
 368 622 349 626 328 634 c 2
 257 660 l 2
 245 664 236 666 227 666 c 0
 203 666 192 653 187 621 c 1
 124 621 l 1
 128 699 163 745 218 745 c 0x0b
 237 745 238 745 274 732 c 2
 345 707 l 2
 352 704 372 701 379 701 c 0
 400 701 412 717 415 749 c 1x17
EndSplineSet
EndChar

StartChar: ocircumflex
Encoding: 354 244 247
Width: 611
Flags: MW
HStem: -23 113<264 339.5 264 384> 436 113<264 340.5>
VStem: 35 140<211.5 314.5 211.5 351.5> 429 140<210.5 314>
LayerCount: 2
Fore
SplineSet
301 549 m 0
 470 549 569 442 569 259 c 0
 569 86 466 -23 302 -23 c 0
 136 -23 35 85 35 263 c 0
 35 440 136 549 301 549 c 0
302 436 m 0
 226 436 175 366 175 263 c 0
 175 160 226 90 302 90 c 0
 377 90 429 160 429 261 c 0
 429 367 379 436 302 436 c 0
251 757 m 1
 358 757 l 1
 461 607 l 1
 383 607 l 1
 301 707 l 1
 219 607 l 1
 143 607 l 1
 251 757 l 1
EndSplineSet
EndChar

StartChar: otilde
Encoding: 355 245 248
Width: 611
Flags: W
HStem: -23 113<264 339.5 264 384> 436 113<264 340.5> 622 79<379.5 393.5 379.5 416.5> 666 79<219 231.5 194.5 235.5> 729 20<419 482 482 482>
VStem: 35 140<211.5 314.5 211.5 351.5> 429 140<210.5 314>
LayerCount: 2
Fore
SplineSet
301 549 m 0xc6
 470 549 569 442 569 259 c 0
 569 86 466 -23 302 -23 c 0
 136 -23 35 85 35 263 c 0
 35 440 136 549 301 549 c 0xc6
302 436 m 0
 226 436 175 366 175 263 c 0
 175 160 226 90 302 90 c 0
 377 90 429 160 429 261 c 0
 429 367 379 436 302 436 c 0
419 749 m 1x2e
 482 749 l 1
 478 664 446 622 387 622 c 0x2e
 372 622 353 626 332 634 c 2
 261 660 l 2
 249 664 240 666 231 666 c 0
 207 666 196 653 191 621 c 1
 128 621 l 1
 132 699 167 745 222 745 c 0x16
 241 745 242 745 278 732 c 2
 349 707 l 2
 356 704 376 701 383 701 c 0
 404 701 416 717 419 749 c 1x2e
EndSplineSet
EndChar

StartChar: odieresis
Encoding: 351 246 244
Width: 611
Flags: W
HStem: -23 113<264 339.5 264 384> 436 113<264 340.5> 621 122<154 264 154 264 154 340 340 450>
VStem: 35 110 35 140<211.5 314.5 211.5 351.5> 221 110 429 140<210.5 314>
LayerCount: 2
Fore
SplineSet
301 549 m 0xea
 470 549 569 442 569 259 c 0
 569 86 466 -23 302 -23 c 0
 136 -23 35 85 35 263 c 0
 35 440 136 549 301 549 c 0xea
302 436 m 0
 226 436 175 366 175 263 c 0
 175 160 226 90 302 90 c 0
 377 90 429 160 429 261 c 0
 429 367 379 436 302 436 c 0
264 743 m 1xf4
 264 621 l 1
 154 621 l 1
 154 743 l 1
 264 743 l 1xf4
450 743 m 1
 450 621 l 1
 340 621 l 1
 340 743 l 1
 450 743 l 1
EndSplineSet
EndChar

StartChar: divide
Encoding: 402 247 295
Width: 584
Flags: MW
HStem: -11 123<230 354 230 354> 172 119<50 534 50 534> 351 123<230 354 230 354>
VStem: 230 124<-11 112 -11 112 351 474>
LayerCount: 2
Fore
SplineSet
534 291 m 1
 534 172 l 1
 50 172 l 1
 50 291 l 1
 534 291 l 1
230 474 m 1
 354 474 l 1
 354 351 l 1
 230 351 l 1
 230 474 l 1
230 112 m 1
 354 112 l 1
 354 -11 l 1
 230 -11 l 1
 230 112 l 1
EndSplineSet
EndChar

StartChar: oslash
Encoding: 249 248 146
Width: 611
Flags: W
HStem: -23 113<289.5 343 289.5 388.5> 437 112<265.5 320.5> 537 20<555 555>
VStem: 36 140<251 316 251 352> 433 140<210.5 273.5>
LayerCount: 2
Fore
SplineSet
126 35 m 1xb8
 54 -38 l 1
 11 2 l 1
 86 79 l 1
 52 128 36 188 36 263 c 0
 36 441 138 549 305 549 c 0xd8
 378 549 436 529 487 487 c 1
 555 557 l 1
 598 516 l 1
 526 443 l 1
 558 393 573 335 573 263 c 0
 573 86 471 -23 306 -23 c 0
 235 -23 166 -1 126 35 c 1xb8
421 336 m 1
 220 132 l 1
 244 104 273 90 306 90 c 0
 380 90 433 161 433 260 c 0
 433 287 429 312 421 336 c 1
190 184 m 1
 392 390 l 1
 364 424 338 437 303 437 c 0
 228 437 176 366 176 266 c 0
 176 236 181 207 190 184 c 1
EndSplineSet
EndChar

StartChar: ugrave
Encoding: 364 249 257
Width: 611
Flags: MW
HStem: -23 119<258 275.5> 520 20<58 198 198 198 401 541 541 541>
VStem: 58 140<164 193 193 540> 401 140<0 64 64 64 202 540>
LayerCount: 2
Fore
SplineSet
541 0 m 1
 401 0 l 1
 401 64 l 1
 361 4 312 -23 239 -23 c 0
 124 -23 58 45 58 164 c 2
 58 540 l 1
 198 540 l 1
 198 193 l 2
 198 128 228 96 288 96 c 0
 356 96 401 138 401 202 c 2
 401 540 l 1
 541 540 l 1
 541 0 l 1
163 757 m 1
 289 757 l 1
 359 607 l 1
 289 607 l 1
 163 757 l 1
EndSplineSet
EndChar

StartChar: ucircumflex
Encoding: 365 251 258
Width: 611
Flags: MW
HStem: -23 119<258 275.5> 520 20<58 198 198 198 401 541 541 541>
VStem: 58 140<164 193 193 540> 401 140<0 64 64 64 202 540>
LayerCount: 2
Fore
SplineSet
541 0 m 1
 401 0 l 1
 401 64 l 1
 361 4 312 -23 239 -23 c 0
 124 -23 58 45 58 164 c 2
 58 540 l 1
 198 540 l 1
 198 193 l 2
 198 128 228 96 288 96 c 0
 356 96 401 138 401 202 c 2
 401 540 l 1
 541 540 l 1
 541 0 l 1
248 757 m 1
 355 757 l 1
 458 607 l 1
 380 607 l 1
 298 707 l 1
 216 607 l 1
 140 607 l 1
 248 757 l 1
EndSplineSet
EndChar

StartChar: udieresis
Encoding: 362 252 255
Width: 611
Flags: W
HStem: -23 119<258 275.5> 520 20<58 198 198 198 401 541 541 541> 621 122<151 261 151 261 151 337 337 447>
VStem: 58 110 58 140<164 193 193 540> 244 110 401 140<0 64 64 64 202 540>
LayerCount: 2
Fore
SplineSet
541 0 m 1xea
 401 0 l 1
 401 64 l 1
 361 4 312 -23 239 -23 c 0
 124 -23 58 45 58 164 c 2
 58 540 l 1
 198 540 l 1
 198 193 l 2
 198 128 228 96 288 96 c 0
 356 96 401 138 401 202 c 2
 401 540 l 1
 541 540 l 1
 541 0 l 1xea
261 743 m 1xf4
 261 621 l 1
 151 621 l 1
 151 743 l 1
 261 743 l 1xf4
447 743 m 1
 447 621 l 1
 337 621 l 1
 337 743 l 1
 447 743 l 1
EndSplineSet
EndChar

StartChar: thorn
Encoding: 394 254 287
Width: 611
Flags: MW
HStem: -218 20 -23 117<314 350.5 281 413> 432 117<314 351.5> 709 20<58 198 198 198>
VStem: 58 140<-218 64 212 312.5 460 729> 434 140<211 311.5>
LayerCount: 2
Fore
SplineSet
198 729 m 1
 198 460 l 1
 232 520 280 549 348 549 c 0
 478 549 574 427 574 262 c 0
 574 99 478 -23 348 -23 c 0
 280 -23 232 5 198 64 c 1
 198 -218 l 1
 58 -218 l 1
 58 729 l 1
 198 729 l 1
316 432 m 0
 246 432 198 363 198 262 c 0
 198 162 246 94 316 94 c 0
 385 94 434 162 434 260 c 0
 434 363 387 432 316 432 c 0
EndSplineSet
EndChar

StartChar: Amacron
Encoding: 308 256 201
Width: 722
Flags: MW
HStem: 0 20 147 125<270 460 270 501 228 460> 537 20<365 365> 709 20<285 451 451 451> 819 79<215 514 215 514>
LayerCount: 2
Fore
SplineSet
501 147 m 1
 228 147 l 1
 179 0 l 1
 26 0 l 1
 285 729 l 1
 451 729 l 1
 703 0 l 1
 549 0 l 1
 501 147 l 1
460 272 m 1
 365 557 l 1
 270 272 l 1
 460 272 l 1
514 898 m 1
 514 819 l 1
 215 819 l 1
 215 898 l 1
 514 898 l 1
EndSplineSet
EndChar

StartChar: Abreve
Encoding: 260 258 153
Width: 722
Flags: MW
HStem: 0 20 147 125<270 460 270 501 228 460> 537 20<365 365> 709 20<285 451 451 451> 784 77<339 384 339 398.5>
LayerCount: 2
Fore
SplineSet
501 147 m 1
 228 147 l 1
 179 0 l 1
 26 0 l 1
 285 729 l 1
 451 729 l 1
 703 0 l 1
 549 0 l 1
 501 147 l 1
460 272 m 1
 365 557 l 1
 270 272 l 1
 460 272 l 1
493 927 m 1
 493 916 l 2
 493 841 436 784 361 784 c 0
 286 784 229 841 229 917 c 2
 229 927 l 1
 285 927 l 1
 291 883 316 861 362 861 c 0
 406 861 428 881 437 927 c 1
 493 927 l 1
EndSplineSet
EndChar

StartChar: Aogonek
Encoding: 263 260 156
Width: 722
Flags: MW
HStem: -233 51<640 661.5> 147 125<270 461 270 501 228 461> 537 20<366 366> 709 20<285 452 452 452>
VStem: 500 90<-147 -108.5>
LayerCount: 2
Fore
SplineSet
501 147 m 1
 228 147 l 1
 179 0 l 1
 26 0 l 1
 285 729 l 1
 452 729 l 1
 703 0 l 1
 634 -30 590 -80 590 -129 c 0
 590 -165 614 -182 666 -182 c 0
 685 -182 705 -180 723 -177 c 1
 723 -224 l 1
 695 -231 675 -233 648 -233 c 0
 554 -233 500 -198 500 -138 c 0
 500 -79 546 -28 624 0 c 1
 549 0 l 1
 501 147 l 1
461 272 m 1
 366 557 l 1
 270 272 l 1
 461 272 l 1
EndSplineSet
EndChar

StartChar: Ccircumflex
Encoding: 624 264 517
Width: 722
Flags: MW
HStem: -23 126<320 424.5 320 464.5> 613 128<324 409>
VStem: 44 150<276.5 436.5 276.5 476>
LayerCount: 2
Fore
SplineSet
387 979 m 1
 494 979 l 1
 597 829 l 1
 519 829 l 1
 437 929 l 1
 355 829 l 1
 279 829 l 1
 387 979 l 1
682 482 m 1
 539 482 l 1
 530 521 522 540 506 560 c 0
 478 595 435 613 383 613 c 0
 265 613 194 517 194 356 c 0
 194 197 262 103 378 103 c 0
 471 103 530 156 539 249 c 1
 685 249 l 1
 676 82 555 -23 374 -23 c 0
 171 -23 44 124 44 358 c 0
 44 594 172 741 378 741 c 0
 487 741 577 700 633 626 c 0
 664 585 677 545 682 482 c 1
EndSplineSet
EndChar

StartChar: ccircumflex
Encoding: 625 265 518
Width: 556
Flags: MW
HStem: -23 113<252.5 315 252.5 352.5> 436 113<268 316.5>
VStem: 34 140<206.5 284.5 206.5 351>
LayerCount: 2
Fore
SplineSet
244 790 m 1
 351 790 l 1
 454 640 l 1
 376 640 l 1
 294 740 l 1
 212 640 l 1
 136 640 l 1
 244 790 l 1
522 338 m 1
 388 338 l 1
 372 409 345 436 288 436 c 0
 248 436 217 420 201 390 c 0
 184 358 174 310 174 259 c 0
 174 154 217 90 288 90 c 0
 342 90 370 117 388 187 c 1
 522 187 l 1
 509 58 418 -23 287 -23 c 0
 127 -23 34 81 34 259 c 0
 34 443 128 549 289 549 c 0
 424 549 512 470 522 338 c 1
EndSplineSet
EndChar

StartChar: Ccaron
Encoding: 266 268 159
Width: 722
Flags: MW
HStem: -23 126<320 424.5 320 464.5> 613 128<324 409>
VStem: 44 150<276.5 436.5 276.5 476>
LayerCount: 2
Fore
SplineSet
682 482 m 1
 539 482 l 1
 530 521 522 540 506 560 c 0
 478 595 435 613 383 613 c 0
 265 613 194 517 194 356 c 0
 194 197 262 103 378 103 c 0
 471 103 530 156 539 249 c 1
 685 249 l 1
 676 82 555 -23 374 -23 c 0
 171 -23 44 124 44 358 c 0
 44 594 172 741 378 741 c 0
 487 741 577 700 633 626 c 0
 664 585 677 545 682 482 c 1
427 786 m 1
 320 786 l 1
 217 936 l 1
 295 936 l 1
 377 839 l 1
 459 936 l 1
 535 936 l 1
 427 786 l 1
EndSplineSet
EndChar

StartChar: ccaron
Encoding: 331 269 224
Width: 556
Flags: MW
HStem: -23 113<252.5 315 252.5 352.5> 436 113<268 316.5>
VStem: 34 140<206.5 284.5 206.5 351>
LayerCount: 2
Fore
SplineSet
522 338 m 1
 388 338 l 1
 372 409 345 436 288 436 c 0
 248 436 217 420 201 390 c 0
 184 358 174 310 174 259 c 0
 174 154 217 90 288 90 c 0
 342 90 370 117 388 187 c 1
 522 187 l 1
 509 58 418 -23 287 -23 c 0
 127 -23 34 81 34 259 c 0
 34 443 128 549 289 549 c 0
 424 549 512 470 522 338 c 1
341 607 m 1
 234 607 l 1
 131 757 l 1
 209 757 l 1
 291 660 l 1
 373 757 l 1
 449 757 l 1
 341 607 l 1
EndSplineSet
EndChar

StartChar: Dcaron
Encoding: 267 270 160
Width: 722
Flags: MW
HStem: 0 125<227 362 227 362> 604 125<227 362 227 227>
VStem: 77 150<125 125 125 604> 531 150<308.5 421 308.5 444.5>
LayerCount: 2
Fore
SplineSet
77 0 m 1
 77 729 l 1
 362 729 l 2
 474 729 543 704 592 645 c 0
 650 576 681 477 681 365 c 0
 681 252 650 153 592 85 c 1
 543 26 473 0 362 0 c 2
 77 0 l 1
227 125 m 1
 362 125 l 2
 475 125 531 204 531 364 c 0
 531 525 475 604 362 604 c 2
 227 604 l 1
 227 125 l 1
390 786 m 1
 283 786 l 1
 180 936 l 1
 258 936 l 1
 340 839 l 1
 422 936 l 1
 498 936 l 1
 390 786 l 1
EndSplineSet
EndChar

StartChar: dcaron
Encoding: 333 271 226
Width: 707
Flags: W
HStem: -23 117<252 289.5> 432 117<252 289.5 191.5 322.5> 617 112<598 665 405 598> 709 20<405 545 545 545 598 720 720 720>
VStem: 29 122 29 140<225.5 312 212.5 343.5> 405 140<0 55 55 55 211 311.5 470 729 0 729>
LayerCount: 2
Fore
SplineSet
405 0 m 1xd6
 405 55 l 1
 370 2 323 -23 256 -23 c 0
 190 -23 124 11 87 63 c 0
 51 115 29 189 29 262 c 0
 29 425 127 549 256 549 c 0
 323 549 370 524 405 470 c 1
 405 729 l 1
 545 729 l 1
 545 0 l 1
 405 0 l 1xd6
287 432 m 0
 217 432 169 362 169 262 c 0
 169 163 217 94 287 94 c 0
 357 94 405 162 405 260 c 0
 405 363 358 432 287 432 c 0
598 729 m 1x28
 720 729 l 1
 720 626 l 2
 720 544 669 484 598 482 c 1
 598 528 l 1
 644 537 666 567 665 617 c 1
 598 617 l 1
 598 729 l 1x28
EndSplineSet
EndChar

StartChar: Dcroat
Encoding: 390 272 283
Width: 722
Flags: MW
HStem: 0 125<227 362 227 362> 339 80<0 77 0 77 227 377> 604 125<227 362 227 227>
VStem: 77 150<125 339 125 339 125 339 419 604> 537 144<324.5 404>
LayerCount: 2
Fore
SplineSet
77 339 m 1
 0 339 l 1
 0 419 l 1
 77 419 l 1
 77 729 l 1
 362 729 l 2
 477 729 544 704 593 645 c 1
 648 576 681 472 681 365 c 0
 681 257 648 154 593 85 c 0
 545 25 476 0 362 0 c 2
 77 0 l 1
 77 339 l 1
227 339 m 1
 227 125 l 1
 362 125 l 2
 427 125 465 141 491 179 c 0
 522 223 537 285 537 364 c 0
 537 444 522 506 491 550 c 0
 465 588 427 604 362 604 c 2
 227 604 l 1
 227 419 l 1
 377 419 l 1
 377 339 l 1
 227 339 l 1
EndSplineSet
EndChar

StartChar: dcroat
Encoding: 392 273 285
Width: 611
Flags: MW
HStem: -23 117<252 289.5> 432 117<252.5 290 191.5 322.5> 596 67<272 405 272 405 545 605> 709 20<405 545 545 545>
VStem: 29 140<212.5 312 212.5 343.5> 405 140<0 55 55 55 211 311.5 470 596 0 596 663 729 0 729>
LayerCount: 2
Fore
SplineSet
405 596 m 1
 272 596 l 1
 272 663 l 1
 405 663 l 1
 405 729 l 1
 545 729 l 1
 545 663 l 1
 605 663 l 1
 605 596 l 1
 545 596 l 1
 545 0 l 1
 405 0 l 1
 405 55 l 1
 370 2 323 -23 256 -23 c 0
 127 -23 29 100 29 262 c 0
 29 425 127 549 256 549 c 0
 324 549 370 524 405 470 c 1
 405 596 l 1
287 432 m 0
 218 432 169 362 169 262 c 0
 169 163 217 94 287 94 c 0
 357 94 405 162 405 260 c 0
 405 363 358 432 287 432 c 0
EndSplineSet
EndChar

StartChar: Ebreve
Encoding: 628 276 521
Width: 667
Flags: W
HStem: 0 125<229 624 229 624> 314 125<229 578 229 578> 604 125<229 606 229 229> 829 77<321 366 321 380.5>
VStem: 79 150<125 314 125 439 439 604> 211 56<962 972 972 972>
LayerCount: 2
Fore
SplineSet
475 972 m 1xf4
 475 961 l 2
 475 886 418 829 343 829 c 0
 268 829 211 886 211 962 c 2
 211 972 l 1
 267 972 l 1
 273 928 298 906 344 906 c 0
 388 906 411 926 419 972 c 1
 475 972 l 1xf4
229 314 m 1xf8
 229 125 l 1
 624 125 l 1
 624 0 l 1
 79 0 l 1
 79 729 l 1
 606 729 l 1
 606 604 l 1
 229 604 l 1
 229 439 l 1
 578 439 l 1
 578 314 l 1
 229 314 l 1xf8
EndSplineSet
EndChar

StartChar: ebreve
Encoding: 629 277 522
Width: 556
Flags: W
HStem: -23 107<254 299.5 254 329.5> 226 93<164 379 164 524 162 379> 442 107<239 287.5> 640 77<238 283 238 297.5>
VStem: 22 140<226 226 226 346.5> 128 56<773 783 783 783>
LayerCount: 2
Fore
SplineSet
392 783 m 1xf4
 392 772 l 2
 392 697 335 640 260 640 c 0
 185 640 128 697 128 773 c 2
 128 783 l 1
 184 783 l 1
 190 739 215 717 261 717 c 0
 305 717 328 737 336 783 c 1
 392 783 l 1xf4
524 226 m 1
 162 226 l 1
 164 175 169 151 182 131 c 0
 202 101 234 84 274 84 c 0
 325 84 364 109 381 152 c 1
 519 152 l 1
 488 46 390 -23 269 -23 c 0
 116 -23 22 83 22 256 c 0xf8
 22 437 117 549 272 549 c 0
 381 549 468 490 504 392 c 0
 517 354 525 304 525 250 c 0
 525 243 525 238 524 226 c 1
164 319 m 1
 379 319 l 1
 376 356 370 377 357 397 c 1
 337 425 305 442 270 442 c 0
 208 442 173 401 164 319 c 1
EndSplineSet
EndChar

StartChar: Edotaccent
Encoding: 273 278 166
Width: 667
Flags: W
HStem: 0 125<229 624 229 624> 314 125<229 578 229 578> 604 125<229 606 229 229> 800 122<290 400 290 400>
VStem: 79 110 79 150<125 314 125 439 439 604>
LayerCount: 2
Fore
SplineSet
229 314 m 1xf4
 229 125 l 1
 624 125 l 1
 624 0 l 1
 79 0 l 1
 79 729 l 1
 606 729 l 1
 606 604 l 1
 229 604 l 1
 229 439 l 1
 578 439 l 1
 578 314 l 1
 229 314 l 1xf4
400 922 m 1xf8
 400 800 l 1
 290 800 l 1
 290 922 l 1
 400 922 l 1xf8
EndSplineSet
EndChar

StartChar: Eogonek
Encoding: 274 280 167
Width: 667
Flags: MW
HStem: -233 51<565 587.5> 0 125<229 550 229 624> 314 125<229 578 229 578> 604 125<229 606 229 229>
VStem: 79 150<125 314 125 439 439 604> 425 90<-147 -110>
LayerCount: 2
Fore
SplineSet
229 314 m 1
 229 125 l 1
 624 125 l 1
 624 0 l 1
 553 -38 515 -82 515 -129 c 0
 515 -165 539 -182 591 -182 c 0
 611 -182 630 -180 648 -177 c 1
 648 -224 l 1
 621 -230 601 -233 574 -233 c 0
 479 -233 425 -198 425 -138 c 0
 425 -82 464 -39 550 0 c 1
 79 0 l 1
 79 729 l 1
 606 729 l 1
 606 604 l 1
 229 604 l 1
 229 439 l 1
 578 439 l 1
 578 314 l 1
 229 314 l 1
EndSplineSet
EndChar

StartChar: eogonek
Encoding: 340 281 233
Width: 556
Flags: MW
HStem: -234 51<395 413> -24 107<254 282> 226 93<163 379 163 524 162 379> 442 107<238.5 287.5>
VStem: 255 90<-148.5 -114.5>
LayerCount: 2
Fore
SplineSet
478 -177 m 1
 478 -224 l 1
 451 -231 427 -234 399 -234 c 0
 310 -234 255 -197 255 -137 c 0
 255 -92 279 -60 350 -11 c 1
 314 -21 296 -24 268 -24 c 0
 116 -24 21 83 21 256 c 0
 21 437 116 549 271 549 c 0
 380 549 468 490 504 392 c 0
 517 355 525 304 525 250 c 0
 525 245 525 238 524 226 c 1
 162 226 l 1
 164 175 169 151 182 130 c 0
 201 100 234 83 274 83 c 0
 325 83 363 108 380 152 c 1
 518 152 l 1
 504 101 492 83 434 21 c 0
 366 -53 345 -88 345 -131 c 0
 345 -166 369 -183 421 -183 c 0
 441 -183 459 -181 478 -177 c 1
163 319 m 1
 379 319 l 1
 376 356 370 377 356 397 c 0
 337 425 305 442 270 442 c 0
 207 442 172 401 163 319 c 1
EndSplineSet
EndChar

StartChar: gcircumflex
Encoding: 631 285 524
Width: 611
Flags: MW
HStem: -218 90<262.5 324 262.5 365.5> -23 117<253 286.5> 432 117<254 289 194 323>
VStem: 34 140<210 310 210 340.5> 408 133<-18 55 55 55 457 540>
LayerCount: 2
Fore
SplineSet
306 790 m 1
 413 790 l 1
 516 640 l 1
 438 640 l 1
 356 740 l 1
 274 640 l 1
 198 640 l 1
 306 790 l 1
408 540 m 1
 541 540 l 1
 541 -18 l 2
 541 -145 447 -218 284 -218 c 0
 201 -218 141 -201 98 -166 c 0
 62 -136 46 -107 45 -65 c 1
 190 -65 l 1
 201 -106 236 -128 289 -128 c 0
 359 -128 408 -83 408 -18 c 2
 408 55 l 1
 356 -4 318 -23 255 -23 c 0
 122 -23 34 89 34 257 c 0
 34 424 130 549 258 549 c 0
 320 549 366 521 408 457 c 1
 408 540 l 1
288 432 m 0
 220 432 174 361 174 259 c 0
 174 161 220 94 286 94 c 0
 359 94 410 161 410 259 c 0
 410 359 358 432 288 432 c 0
EndSplineSet
EndChar

StartChar: Gbreve
Encoding: 275 286 168
Width: 778
Flags: MW
HStem: -23 128<339.5 429 339.5 432> 267 125<419 585 419 711> 613 128<332.5 422> 784 77<376 421 376 435.5>
VStem: 42 150<286 439.5 286 472.5>
LayerCount: 2
Fore
SplineSet
711 392 m 1
 711 -2 l 1
 621 -2 l 1
 603 94 l 1
 547 12 481 -23 383 -23 c 0
 186 -23 42 138 42 359 c 0
 42 586 185 741 395 741 c 0
 571 741 693 646 711 496 c 1
 570 496 l 1
 557 534 546 551 525 569 c 0
 492 598 448 613 396 613 c 0
 269 613 192 518 192 361 c 0
 192 211 279 105 400 105 c 0
 458 105 513 131 549 175 c 0
 571 201 581 226 585 267 c 1
 419 267 l 1
 419 392 l 1
 711 392 l 1
530 927 m 1
 530 916 l 2
 530 841 473 784 398 784 c 0
 323 784 266 841 266 917 c 2
 266 927 l 1
 322 927 l 1
 328 883 353 861 399 861 c 0
 443 861 465 881 474 927 c 1
 530 927 l 1
EndSplineSet
EndChar

StartChar: gbreve
Encoding: 341 287 234
Width: 611
Flags: MW
HStem: -218 90<262.5 324 262.5 365.5> -23 117<253 286.5> 432 117<254 289 194 323> 605 77<284 329 284 343.5> 728 20<174 230 230 230 382 438 438 438>
VStem: 34 140<210 310 210 340.5> 408 133<-18 55 55 55 457 540>
LayerCount: 2
Fore
SplineSet
408 540 m 1
 541 540 l 1
 541 -18 l 2
 541 -145 447 -218 284 -218 c 0
 201 -218 141 -201 98 -166 c 0
 62 -136 46 -107 45 -65 c 1
 190 -65 l 1
 201 -106 236 -128 289 -128 c 0
 359 -128 408 -83 408 -18 c 2
 408 55 l 1
 356 -4 318 -23 255 -23 c 0
 122 -23 34 89 34 257 c 0
 34 424 130 549 258 549 c 0
 320 549 366 521 408 457 c 1
 408 540 l 1
288 432 m 0
 220 432 174 361 174 259 c 0
 174 161 220 94 286 94 c 0
 359 94 410 161 410 259 c 0
 410 359 358 432 288 432 c 0
438 748 m 1
 438 737 l 2
 438 662 381 605 306 605 c 0
 231 605 174 662 174 738 c 2
 174 748 l 1
 230 748 l 1
 236 704 261 682 307 682 c 0
 351 682 374 702 382 748 c 1
 438 748 l 1
EndSplineSet
EndChar

StartChar: Gdotaccent
Encoding: 632 288 525
Width: 778
Flags: MW
HStem: -23 128<339.5 429 339.5 432> 267 125<419 585 419 711> 613 128<332.5 422> 829 122<326 436 326 436>
VStem: 42 150<286 439.5 286 472.5> 326 110<829 951 829 951>
LayerCount: 2
Fore
SplineSet
436 951 m 1
 436 829 l 1
 326 829 l 1
 326 951 l 1
 436 951 l 1
711 392 m 1
 711 -2 l 1
 621 -2 l 1
 603 94 l 1
 547 12 481 -23 383 -23 c 0
 186 -23 42 138 42 359 c 0
 42 586 185 741 395 741 c 0
 571 741 693 646 711 496 c 1
 570 496 l 1
 557 534 546 551 525 569 c 0
 492 598 448 613 396 613 c 0
 269 613 192 518 192 361 c 0
 192 211 279 105 400 105 c 0
 458 105 513 131 549 175 c 0
 571 201 581 226 585 267 c 1
 419 267 l 1
 419 392 l 1
 711 392 l 1
EndSplineSet
EndChar

StartChar: gdotaccent
Encoding: 633 289 526
Width: 611
Flags: W
HStem: -218 90<262.5 324 262.5 365.5> -23 117<253 286.5> 432 117<254 289 194 323> 640 122<302 412 302 412>
VStem: 34 140<210 310 210 340.5> 302 110<640 762 640 762> 408 133<-18 55 55 55 457 540>
LayerCount: 2
Fore
SplineSet
412 762 m 1xfc
 412 640 l 1
 302 640 l 1
 302 762 l 1
 412 762 l 1xfc
408 540 m 1xfa
 541 540 l 1
 541 -18 l 2
 541 -145 447 -218 284 -218 c 0
 201 -218 141 -201 98 -166 c 0
 62 -136 46 -107 45 -65 c 1
 190 -65 l 1
 201 -106 236 -128 289 -128 c 0
 359 -128 408 -83 408 -18 c 2
 408 55 l 1
 356 -4 318 -23 255 -23 c 0
 122 -23 34 89 34 257 c 0
 34 424 130 549 258 549 c 0
 320 549 366 521 408 457 c 1
 408 540 l 1xfa
288 432 m 0
 220 432 174 361 174 259 c 0
 174 161 220 94 286 94 c 0
 359 94 410 161 410 259 c 0
 410 359 358 432 288 432 c 0
EndSplineSet
EndChar

StartChar: Gcommaaccent
Encoding: 319 290 212
Width: 778
Flags: W
HStem: -172 112<332 399 332 454> -23 128<339.5 429 339.5 432> 267 125<419 585 419 711> 613 128<332.5 422>
VStem: 42 122 42 150<286 439.5 286 472.5>
LayerCount: 2
Fore
SplineSet
711 392 m 1xf4
 711 -2 l 1
 621 -2 l 1
 603 94 l 1
 547 12 481 -23 383 -23 c 0
 186 -23 42 138 42 359 c 0
 42 586 185 741 395 741 c 0
 571 741 693 646 711 496 c 1
 570 496 l 1
 557 534 546 551 525 569 c 0
 492 598 448 613 396 613 c 0
 269 613 192 518 192 361 c 0
 192 211 279 105 400 105 c 0
 458 105 513 131 549 175 c 0
 571 201 581 226 585 267 c 1
 419 267 l 1
 419 392 l 1
 711 392 l 1xf4
332 -60 m 1xf8
 454 -60 l 1
 454 -163 l 2
 454 -245 403 -305 332 -307 c 1
 332 -261 l 1
 378 -252 400 -222 399 -172 c 1
 332 -172 l 1
 332 -60 l 1xf8
EndSplineSet
EndChar

StartChar: gcommaaccent
Encoding: 386 291 279
Width: 611
Flags: W
HStem: -218 90<262.5 324 262.5 365.5> -23 117<253 286.5> 432 117<254 289 194 323> 606 112<298 365 298 365 243 365>
VStem: 34 122 34 140<210 310 210 340.5> 408 133<-18 55 55 55 457 540>
LayerCount: 2
Fore
SplineSet
408 540 m 1xf6
 541 540 l 1
 541 -18 l 2
 541 -145 447 -218 284 -218 c 0
 201 -218 141 -201 98 -166 c 0
 62 -136 46 -107 45 -65 c 1
 190 -65 l 1
 201 -106 236 -128 289 -128 c 0
 359 -128 408 -83 408 -18 c 2
 408 55 l 1
 356 -4 318 -23 255 -23 c 0
 122 -23 34 89 34 257 c 0
 34 424 130 549 258 549 c 0
 320 549 366 521 408 457 c 1
 408 540 l 1xf6
288 432 m 0
 220 432 174 361 174 259 c 0
 174 161 220 94 286 94 c 0
 359 94 410 161 410 259 c 0
 410 359 358 432 288 432 c 0
365 606 m 1xf8
 243 606 l 1
 243 709 l 2
 243 791 294 851 365 853 c 1
 365 807 l 1
 319 798 297 768 298 718 c 1
 365 718 l 1
 365 606 l 1xf8
EndSplineSet
EndChar

StartChar: Hcircumflex
Encoding: 634 292 527
Width: 722
Flags: MW
HStem: 0 21G<68 218 68 68 507 507 507 657> 331 125<218 506 218 507 218 506> 709 20G<68 218 218 218 506 657 657 657>
VStem: 68 150<0 331 0 456 456 729> 507 150<0 331 331 331>
LayerCount: 2
Fore
SplineSet
312 979 m 1
 419 979 l 1
 522 829 l 1
 444 829 l 1
 362 929 l 1
 280 829 l 1
 204 829 l 1
 312 979 l 1
507 331 m 1
 218 331 l 1
 218 0 l 1
 68 0 l 1
 68 729 l 1
 218 729 l 1
 218 456 l 1
 506 456 l 1
 506 729 l 1
 657 729 l 1
 657 0 l 1
 507 0 l 1
 507 331 l 1
EndSplineSet
EndChar

StartChar: hcircumflex
Encoding: 635 293 528
Width: 611
Flags: MW
HStem: 0 21G<67 207 67 67 401 541 401 401> 430 119<283.5 387.5> 709 20G<67 207 207 207>
VStem: 67 140<0 324 462 729> 401 140<0 330 330 347.5>
LayerCount: 2
Fore
SplineSet
225 979 m 1
 332 979 l 1
 435 829 l 1
 357 829 l 1
 275 929 l 1
 193 829 l 1
 117 829 l 1
 225 979 l 1
67 729 m 1
 207 729 l 1
 207 462 l 1
 246 521 296 549 365 549 c 0
 410 549 455 534 486 508 c 0
 523 477 541 429 541 362 c 2
 541 0 l 1
 401 0 l 1
 401 330 l 2
 401 365 397 379 385 397 c 0
 369 419 345 430 315 430 c 0
 252 430 207 386 207 324 c 2
 207 0 l 1
 67 0 l 1
 67 729 l 1
EndSplineSet
EndChar

StartChar: Hbar
Encoding: 636 294 529
Width: 752
Flags: MW
HStem: 0 21G<78 228 78 78 517 667 517 517> 331 125<228 516 228 517 228 516> 540 79<26 78 26 78 228 516 667 726> 709 20G<78 228 228 228 516 667 667 667>
VStem: 78 150<0 331 0 456 456 540 619 729> 516 151<456 540 0 540 619 729>
LayerCount: 2
Fore
SplineSet
667 619 m 1
 726 619 l 1
 726 540 l 1
 667 540 l 1
 667 0 l 1
 517 0 l 1
 517 331 l 1
 228 331 l 1
 228 0 l 1
 78 0 l 1
 78 540 l 1
 26 540 l 1
 26 619 l 1
 78 619 l 1
 78 729 l 1
 228 729 l 1
 228 619 l 1
 516 619 l 1
 516 729 l 1
 667 729 l 1
 667 619 l 1
516 540 m 1
 228 540 l 1
 228 456 l 1
 516 456 l 1
 516 540 l 1
EndSplineSet
EndChar

StartChar: hbar
Encoding: 637 295 530
Width: 611
Flags: MW
HStem: 0 21G<67 207 67 67 401 541 401 401> 430 119<283.5 387.5> 590 79<16 67 16 67 207 315> 709 20G<67 207 207 207>
VStem: 67 140<0 324 462 590 669 729> 401 140<0 330 330 347.5>
LayerCount: 2
Fore
SplineSet
67 669 m 1
 67 729 l 1
 207 729 l 1
 207 669 l 1
 315 669 l 1
 315 590 l 1
 207 590 l 1
 207 462 l 1
 246 521 296 549 365 549 c 0
 410 549 455 534 486 508 c 0
 523 477 541 429 541 362 c 2
 541 0 l 1
 401 0 l 1
 401 330 l 2
 401 365 397 379 385 397 c 0
 369 419 345 430 315 430 c 0
 252 430 207 386 207 324 c 2
 207 0 l 1
 67 0 l 1
 67 590 l 1
 16 590 l 1
 16 669 l 1
 67 669 l 1
EndSplineSet
EndChar

StartChar: Itilde
Encoding: 638 296 531
Width: 278
Flags: W
HStem: 0 21G<63 213 63 63> 709 20G<63 213 213 213> 830 79<212.5 226.5 212.5 249.5> 874 79<52 64.5 27.5 68.5>
VStem: 63 150<0 729 0 729> 252 63<957 957>
LayerCount: 2
Fore
SplineSet
252 957 m 1xec
 315 957 l 1
 311 872 279 830 220 830 c 0xec
 205 830 186 834 165 842 c 2
 94 868 l 2
 82 872 73 874 64 874 c 0
 40 874 29 861 24 829 c 1
 -39 829 l 1
 -35 907 0 953 55 953 c 0xdc
 74 953 75 953 111 940 c 2
 182 915 l 2
 189 912 209 909 216 909 c 0
 237 909 249 925 252 957 c 1xec
213 729 m 1
 213 0 l 1
 63 0 l 1
 63 729 l 1
 213 729 l 1
EndSplineSet
EndChar

StartChar: itilde
Encoding: 639 297 532
Width: 278
Flags: W
HStem: 0 21G<67 207 67 67> 520 20G<67 207 207 207> 641 79<211.5 225.5 211.5 248.5> 685 79<51 63.5 26.5 67.5>
VStem: 67 140<0 540 0 540> 251 63<768 768>
LayerCount: 2
Fore
SplineSet
251 768 m 1xec
 314 768 l 1
 310 683 278 641 219 641 c 0xec
 204 641 185 645 164 653 c 2
 93 679 l 2
 81 683 72 685 63 685 c 0
 39 685 28 672 23 640 c 1
 -40 640 l 1
 -36 718 -1 764 54 764 c 0xdc
 73 764 74 764 110 751 c 2
 181 726 l 2
 188 723 208 720 215 720 c 0
 236 720 248 736 251 768 c 1xec
207 540 m 1
 207 0 l 1
 67 0 l 1
 67 540 l 1
 207 540 l 1
EndSplineSet
EndChar

StartChar: Imacron
Encoding: 312 298 205
Width: 278
Flags: MW
HStem: 0 20 709 20<63 213 213 213> 819 79<2 274 2 274>
VStem: 63 150<0 729 0 729>
LayerCount: 2
Fore
SplineSet
213 729 m 1
 213 0 l 1
 63 0 l 1
 63 729 l 1
 213 729 l 1
274 898 m 1
 274 819 l 1
 2 819 l 1
 2 898 l 1
 274 898 l 1
EndSplineSet
EndChar

StartChar: imacron
Encoding: 376 299 269
Width: 278
Flags: W
HStem: 0 20 520 20<67 207 207 207> 640 79<7 266 7 266>
VStem: 7 259<640 719 640 719> 67 140<0 540 0 540>
LayerCount: 2
Fore
SplineSet
207 540 m 1xe8
 207 0 l 1
 67 0 l 1
 67 540 l 1
 207 540 l 1xe8
266 719 m 1xf0
 266 640 l 1
 7 640 l 1
 7 719 l 1
 266 719 l 1xf0
EndSplineSet
EndChar

StartChar: Ibreve
Encoding: 640 300 533
Width: 278
Flags: MW
HStem: 0 21G<63 213 63 63> 709 20G<63 213 213 213> 829 77<116 161 116 175.5>
VStem: 6 56<962 972 972 972> 63 150<0 729 0 729>
LayerCount: 2
Fore
SplineSet
270 972 m 1
 270 961 l 2
 270 886 213 829 138 829 c 0
 63 829 6 886 6 962 c 2
 6 972 l 1
 62 972 l 1
 68 928 93 906 139 906 c 0
 183 906 206 926 214 972 c 1
 270 972 l 1
213 729 m 1
 213 0 l 1
 63 0 l 1
 63 729 l 1
 213 729 l 1
EndSplineSet
EndChar

StartChar: ibreve
Encoding: 641 301 534
Width: 278
Flags: MW
HStem: 0 21G<67 207 67 67> 520 20G<67 207 207 207> 640 77<115 160 115 174.5>
VStem: 5 56<773 783 783 783> 67 140<0 540 0 540>
LayerCount: 2
Fore
SplineSet
269 783 m 1
 269 772 l 2
 269 697 212 640 137 640 c 0
 62 640 5 697 5 773 c 2
 5 783 l 1
 61 783 l 1
 67 739 92 717 138 717 c 0
 182 717 205 737 213 783 c 1
 269 783 l 1
207 540 m 1
 207 0 l 1
 67 0 l 1
 67 540 l 1
 207 540 l 1
EndSplineSet
EndChar

StartChar: Iogonek
Encoding: 313 302 206
Width: 278
Flags: MW
HStem: -233 51<168.5 178> 709 20<63 213 213 213>
VStem: 34 90<-146 -110>
LayerCount: 2
Fore
SplineSet
213 729 m 1
 213 0 l 1
 156 -41 124 -88 124 -131 c 0
 124 -161 150 -182 187 -182 c 0
 200 -182 221 -180 237 -177 c 1
 237 -224 l 1
 211 -230 189 -233 167 -233 c 0
 85 -233 34 -196 34 -136 c 0
 34 -84 70 -41 147 0 c 1
 63 0 l 1
 63 729 l 1
 213 729 l 1
EndSplineSet
EndChar

StartChar: iogonek
Encoding: 387 303 280
Width: 278
Flags: W
HStem: -233 51<126.5 192.5> 604 125<67 207 67 207>
VStem: 34 90<-139 -111.5> 67 140<0 540 0 540 604 729>
LayerCount: 2
Fore
SplineSet
207 540 m 1xd0
 207 0 l 1xd0
 153 -38 124 -83 124 -128 c 0
 124 -150 129 -161 146 -171 c 0
 158 -178 172 -182 187 -182 c 0
 198 -182 208 -181 231 -177 c 1
 231 -224 l 1
 200 -231 188 -233 168 -233 c 0
 85 -233 34 -196 34 -136 c 0xe0
 34 -87 69 -44 144 0 c 1
 67 0 l 1
 67 540 l 1
 207 540 l 1xd0
207 729 m 1
 207 604 l 1
 67 604 l 1
 67 729 l 1
 207 729 l 1
EndSplineSet
EndChar

StartChar: Idotaccent
Encoding: 280 304 173
Width: 278
Flags: W
HStem: 0 20 709 20<63 213 213 213> 800 122<83 193 83 193>
VStem: 63 110 63 150<0 729 0 729>
LayerCount: 2
Fore
SplineSet
213 729 m 1xe8
 213 0 l 1
 63 0 l 1
 63 729 l 1
 213 729 l 1xe8
193 922 m 1xf0
 193 800 l 1
 83 800 l 1
 83 922 l 1
 193 922 l 1xf0
EndSplineSet
EndChar

StartChar: dotlessi
Encoding: 245 305 144
Width: 278
Flags: MW
HStem: 0 20 520 20<67 207 207 207>
VStem: 67 140<0 540 0 540>
LayerCount: 2
Fore
SplineSet
207 540 m 1
 207 0 l 1
 67 0 l 1
 67 540 l 1
 207 540 l 1
EndSplineSet
EndChar

StartChar: IJ
Encoding: 642 306 535
Width: 808
Flags: MW
HStem: -23 128<480.5 535 480.5 580.5> 709 20G<63 213 213 213 590 740 740 740>
VStem: 63 150<0 729 0 729> 278 150<198 200 200 270 166.5 270> 590 150<190 729>
LayerCount: 2
Fore
SplineSet
213 729 m 1
 213 0 l 1
 63 0 l 1
 63 729 l 1
 213 729 l 1
590 729 m 1
 740 729 l 1
 740 190 l 2
 740 54 655 -23 506 -23 c 0
 437 -23 381 -3 339 35 c 0
 296 75 278 122 278 198 c 2
 278 270 l 1
 428 270 l 1
 428 200 l 2
 428 133 452 105 509 105 c 0
 561 105 590 135 590 190 c 2
 590 729 l 1
EndSplineSet
Ligature2: "'liga' Standard Ligatures in Latin lookup 0 subtable" I J
EndChar

StartChar: ij
Encoding: 643 307 536
Width: 492
Flags: MW
HStem: -218 113<232.5 338.5> 0 21G<67 207 67 67> 520 20G<67 207 207 207 278 418 418 418> 604 125<67 207 67 207 67 278 278 418>
VStem: 67 140<0 540 0 540 604 729> 278 140<-63 540 604 729>
LayerCount: 2
Fore
SplineSet
207 540 m 1
 207 0 l 1
 67 0 l 1
 67 540 l 1
 207 540 l 1
207 729 m 1
 207 604 l 1
 67 604 l 1
 67 729 l 1
 207 729 l 1
418 540 m 1
 418 -94 l 2
 418 -182 382 -218 295 -218 c 0
 275 -218 240 -216 212 -213 c 1
 212 -101 l 1
 222 -104 228 -105 237 -105 c 0
 267 -105 278 -94 278 -63 c 2
 278 540 l 1
 418 540 l 1
418 729 m 1
 418 604 l 1
 278 604 l 1
 278 729 l 1
 418 729 l 1
EndSplineSet
Ligature2: "'liga' Standard Ligatures in Latin lookup 0 subtable" i j
EndChar

StartChar: Jcircumflex
Encoding: 644 308 537
Width: 556
Flags: MW
HStem: -23 128<226.5 281 226.5 326.5> 709 20G<336 486 486 486>
VStem: 24 150<198 200 200 270 166.5 270> 336 150<190 729>
LayerCount: 2
Fore
SplineSet
360 979 m 1
 467 979 l 1
 570 829 l 1
 492 829 l 1
 410 929 l 1
 328 829 l 1
 252 829 l 1
 360 979 l 1
336 729 m 1
 486 729 l 1
 486 190 l 2
 486 54 401 -23 252 -23 c 0
 183 -23 127 -3 85 35 c 0
 42 75 24 122 24 198 c 2
 24 270 l 1
 174 270 l 1
 174 200 l 2
 174 133 198 105 255 105 c 0
 307 105 336 135 336 190 c 2
 336 729 l 1
EndSplineSet
EndChar

StartChar: jcircumflex
Encoding: 645 309 538
Width: 278
Flags: MW
HStem: -218 113<24.5 130.5> 520 20G<70 210 210 210>
VStem: 70 140<-63 540>
LayerCount: 2
Fore
SplineSet
210 540 m 1
 210 -94 l 2
 210 -182 174 -218 87 -218 c 0
 67 -218 32 -216 4 -213 c 1
 4 -101 l 1
 14 -104 20 -105 29 -105 c 0
 59 -105 70 -94 70 -63 c 2
 70 540 l 1
 210 540 l 1
89 783 m 1
 196 783 l 1
 299 633 l 1
 221 633 l 1
 139 733 l 1
 57 633 l 1
 -19 633 l 1
 89 783 l 1
EndSplineSet
EndChar

StartChar: Kcommaaccent
Encoding: 314 310 207
Width: 722
Flags: W
HStem: -172 112<315 382 315 437> 0 20 709 20<74 224 224 224 509 686 686 686>
VStem: 74 122 74 150<0 244 409 729>
LayerCount: 2
Fore
SplineSet
224 244 m 1xe8
 224 0 l 1
 74 0 l 1
 74 729 l 1
 224 729 l 1
 224 409 l 1
 509 729 l 1
 686 729 l 1
 395 415 l 1
 717 0 l 1
 538 0 l 1
 299 322 l 1
 224 244 l 1xe8
315 -60 m 1xf0
 437 -60 l 1
 437 -163 l 2
 437 -245 386 -305 315 -307 c 1
 315 -261 l 1
 361 -252 383 -222 382 -172 c 1
 315 -172 l 1
 315 -60 l 1xf0
EndSplineSet
EndChar

StartChar: kcommaaccent
Encoding: 377 311 270
Width: 556
Flags: W
HStem: -172 112<229 296 229 351> 0 20 709 20<59 199 199 199>
VStem: 59 122 59 140<0 177 330 729>
LayerCount: 2
Fore
SplineSet
199 330 m 1xe8
 376 540 l 1
 535 540 l 1
 351 336 l 1
 548 0 l 1
 384 0 l 1
 255 238 l 1
 199 177 l 1
 199 0 l 1
 59 0 l 1
 59 729 l 1
 199 729 l 1
 199 330 l 1xe8
229 -60 m 1xf0
 351 -60 l 1
 351 -163 l 2
 351 -245 300 -305 229 -307 c 1
 229 -261 l 1
 275 -252 297 -222 296 -172 c 1
 229 -172 l 1
 229 -60 l 1xf0
EndSplineSet
EndChar

StartChar: Lacute
Encoding: 281 313 174
Width: 611
Flags: MW
HStem: 0 125<230 579 230 579> 709 20<80 230 230 230>
VStem: 80 150<125 729 125 729 125 729>
LayerCount: 2
Fore
SplineSet
230 729 m 1
 230 125 l 1
 579 125 l 1
 579 0 l 1
 80 0 l 1
 80 729 l 1
 230 729 l 1
298 936 m 1
 172 786 l 1
 102 786 l 1
 172 936 l 1
 298 936 l 1
EndSplineSet
EndChar

StartChar: lacute
Encoding: 346 314 239
Width: 278
Flags: MW
HStem: 0 20 709 20<67 207 207 207>
VStem: 67 140<0 729 0 729>
LayerCount: 2
Fore
SplineSet
207 729 m 1
 207 0 l 1
 67 0 l 1
 67 729 l 1
 207 729 l 1
278 936 m 1
 152 786 l 1
 82 786 l 1
 152 936 l 1
 278 936 l 1
EndSplineSet
EndChar

StartChar: Lcommaaccent
Encoding: 315 315 208
Width: 611
Flags: W
HStem: -172 112<269 336 269 391> 0 125<230 579 230 579> 709 20<80 230 230 230>
VStem: 80 122 80 150<125 729 125 729 125 729>
LayerCount: 2
Fore
SplineSet
230 729 m 1xe8
 230 125 l 1
 579 125 l 1
 579 0 l 1
 80 0 l 1
 80 729 l 1
 230 729 l 1xe8
269 -60 m 1xf0
 391 -60 l 1
 391 -163 l 2
 391 -245 340 -305 269 -307 c 1
 269 -261 l 1
 315 -252 337 -222 336 -172 c 1
 269 -172 l 1
 269 -60 l 1xf0
EndSplineSet
EndChar

StartChar: lcommaaccent
Encoding: 378 316 271
Width: 278
Flags: W
HStem: -172 112<78 145 78 200> 0 20 709 20<67 207 207 207>
VStem: 67 122 67 140<0 729 0 729>
LayerCount: 2
Fore
SplineSet
207 729 m 1xe8
 207 0 l 1
 67 0 l 1
 67 729 l 1
 207 729 l 1xe8
78 -60 m 1xf0
 200 -60 l 1
 200 -163 l 2
 200 -245 149 -305 78 -307 c 1
 78 -261 l 1
 124 -252 146 -222 145 -172 c 1
 78 -172 l 1
 78 -60 l 1xf0
EndSplineSet
EndChar

StartChar: Lcaron
Encoding: 282 317 175
Width: 611
Flags: W
HStem: 0 125<230 579 230 579> 617 112<330 397 80 330> 709 20<80 230 230 230 330 452 452 452>
VStem: 80 122 80 150<125 729 125 729 125 729>
LayerCount: 2
Fore
SplineSet
230 729 m 1xa8
 230 125 l 1
 579 125 l 1
 579 0 l 1
 80 0 l 1
 80 729 l 1
 230 729 l 1xa8
330 729 m 1x50
 452 729 l 1
 452 626 l 2
 452 544 401 484 330 482 c 1
 330 528 l 1
 376 537 398 567 397 617 c 1
 330 617 l 1
 330 729 l 1x50
EndSplineSet
EndChar

StartChar: lcaron
Encoding: 347 318 240
Width: 369
Flags: W
HStem: 0 20 617 112<260 327 67 260> 709 20<67 207 207 207 260 382 382 382>
VStem: 67 122 67 140<0 729 0 729>
LayerCount: 2
Fore
SplineSet
207 729 m 1xa8
 207 0 l 1
 67 0 l 1
 67 729 l 1
 207 729 l 1xa8
260 729 m 1x50
 382 729 l 1
 382 626 l 2
 382 544 331 484 260 482 c 1
 260 528 l 1
 306 537 328 567 327 617 c 1
 260 617 l 1
 260 729 l 1x50
EndSplineSet
EndChar

StartChar: Ldot
Encoding: 647 319 540
Width: 611
Flags: MW
HStem: 0 125<230 579 230 579> 319 123<336 460 336 460> 709 20G<80 230 230 230>
VStem: 80 150<125 729 125 729 125 729> 336 124<319 442 319 442>
LayerCount: 2
Fore
SplineSet
336 442 m 1
 460 442 l 1
 460 319 l 1
 336 319 l 1
 336 442 l 1
230 729 m 1
 230 125 l 1
 579 125 l 1
 579 0 l 1
 80 0 l 1
 80 729 l 1
 230 729 l 1
EndSplineSet
Ligature2: "'liga' Standard Ligatures in Latin lookup 0 subtable" L periodcentered
EndChar

StartChar: ldot
Encoding: 648 320 541
Width: 556
Flags: MW
HStem: 0 21G<67 207 67 67> 305 123<320 444 320 444> 709 20G<67 207 207 207>
VStem: 67 140<0 729 0 729> 320 124<305 428 305 428>
LayerCount: 2
Fore
SplineSet
207 729 m 1
 207 0 l 1
 67 0 l 1
 67 729 l 1
 207 729 l 1
320 428 m 1
 444 428 l 1
 444 305 l 1
 320 305 l 1
 320 428 l 1
EndSplineSet
Ligature2: "'liga' Standard Ligatures in Latin lookup 0 subtable" l periodcentered
EndChar

StartChar: Lslash
Encoding: 232 321 139
Width: 611
Flags: MW
HStem: 0 125<230 597 230 597> 709 20<80 230 230 230>
VStem: 80 150<125 257 257 257 423 729>
LayerCount: 2
Fore
SplineSet
230 423 m 1
 395 535 l 1
 395 447 l 1
 230 334 l 1
 230 125 l 1
 597 125 l 1
 597 0 l 1
 80 0 l 1
 80 257 l 1
 0 201 l 1
 0 290 l 1
 80 346 l 1
 80 729 l 1
 230 729 l 1
 230 423 l 1
EndSplineSet
EndChar

StartChar: lslash
Encoding: 248 322 145
Width: 278
Flags: MW
HStem: 0 20 709 20<56 196 196 196>
VStem: 56 140<0 294 294 294 442 729>
LayerCount: 2
Fore
SplineSet
196 442 m 1
 252 482 l 1
 252 403 l 1
 196 363 l 1
 196 0 l 1
 56 0 l 1
 56 294 l 1
 0 254 l 1
 0 333 l 1
 56 373 l 1
 56 729 l 1
 196 729 l 1
 196 442 l 1
EndSplineSet
EndChar

StartChar: Nacute
Encoding: 283 323 176
Width: 722
Flags: MW
HStem: 0 20 709 20<68 222 222 222 511 661 661 661>
VStem: 68 150<0 504 0 729> 511 150<0 729 233 729 0 729>
LayerCount: 2
Fore
SplineSet
511 0 m 1
 218 504 l 1
 218 0 l 1
 68 0 l 1
 68 729 l 1
 222 729 l 1
 511 233 l 1
 511 729 l 1
 661 729 l 1
 661 0 l 1
 511 0 l 1
500 936 m 1
 374 786 l 1
 304 786 l 1
 374 936 l 1
 500 936 l 1
EndSplineSet
EndChar

StartChar: Ncommaaccent
Encoding: 316 325 209
Width: 722
Flags: W
HStem: -172 112<300 367 300 422> 0 20 709 20<68 222 222 222 511 661 661 661>
VStem: 68 122 68 150<0 504 0 729> 511 150<0 729 233 729 0 729>
LayerCount: 2
Fore
SplineSet
511 0 m 1xec
 218 504 l 1
 218 0 l 1
 68 0 l 1
 68 729 l 1
 222 729 l 1
 511 233 l 1
 511 729 l 1
 661 729 l 1
 661 0 l 1
 511 0 l 1xec
300 -60 m 1xf0
 422 -60 l 1
 422 -163 l 2
 422 -245 371 -305 300 -307 c 1
 300 -261 l 1
 346 -252 368 -222 367 -172 c 1
 300 -172 l 1
 300 -60 l 1xf0
EndSplineSet
EndChar

StartChar: ncommaaccent
Encoding: 379 326 272
Width: 611
Flags: W
HStem: -172 112<244 311 244 366> 0 20 430 119<328.5 346> 520 20<63 203 203 203>
VStem: 63 122 63 140<0 324 462 540> 406 140<0 333 333 362 0 365>
LayerCount: 2
Fore
SplineSet
63 540 m 1x56
 203 540 l 1x16
 203 462 l 1
 243 522 292 549 365 549 c 0
 480 549 546 481 546 362 c 2
 546 0 l 1
 406 0 l 1
 406 333 l 2
 406 397 376 430 316 430 c 0x66
 248 430 203 388 203 324 c 2
 203 0 l 1
 63 0 l 1
 63 540 l 1x56
244 -60 m 1x88
 366 -60 l 1
 366 -163 l 2
 366 -245 315 -305 244 -307 c 1
 244 -261 l 1
 290 -252 312 -222 311 -172 c 1
 244 -172 l 1
 244 -60 l 1x88
EndSplineSet
EndChar

StartChar: ncaron
Encoding: 349 328 242
Width: 611
Flags: W
HStem: 0 20 430 119<328.5 346> 520 20<63 203 203 203>
VStem: 63 140<0 324 462 540> 406 140<0 333 333 362 0 365>
LayerCount: 2
Fore
SplineSet
63 540 m 1xb8
 203 540 l 1x38
 203 462 l 1
 243 522 292 549 365 549 c 0
 480 549 546 481 546 362 c 2
 546 0 l 1
 406 0 l 1
 406 333 l 2
 406 397 376 430 316 430 c 0xd8
 248 430 203 388 203 324 c 2
 203 0 l 1
 63 0 l 1
 63 540 l 1xb8
351 607 m 1
 244 607 l 1
 141 757 l 1
 219 757 l 1
 301 660 l 1
 383 757 l 1
 459 757 l 1
 351 607 l 1
EndSplineSet
EndChar

StartChar: napostrophe
Encoding: 649 329 542
Width: 611
Flags: MW
HStem: 0 21G<63 203 63 63 406 546 406 406> 430 119<328.5 346> 724 125<66 146 66 201>
VStem: 63 140<0 324 462 540> 406 140<0 333 333 362 0 365>
LayerCount: 2
Fore
SplineSet
66 849 m 1
 201 849 l 1
 201 740 l 2
 201 683 188 650 156 623 c 0
 132 603 100 591 66 589 c 1
 66 635 l 1
 122 645 148 674 146 724 c 1
 66 724 l 1
 66 849 l 1
63 540 m 1
 203 540 l 1
 203 462 l 1
 243 522 292 549 365 549 c 0
 480 549 546 481 546 362 c 2
 546 0 l 1
 406 0 l 1
 406 333 l 2
 406 397 376 430 316 430 c 0
 248 430 203 388 203 324 c 2
 203 0 l 1
 63 0 l 1
 63 540 l 1
EndSplineSet
EndChar

StartChar: Eng
Encoding: 650 330 543
Width: 722
Flags: MW
HStem: -172 125<376 401 401 413 376 401> 0 21G<68 218 68 68> 709 20G<68 222 222 222 511 661 661 661>
VStem: 68 150<0 504 0 729> 511 150<233 729>
LayerCount: 2
Fore
SplineSet
495 28 m 2
 218 504 l 1
 218 0 l 1
 68 0 l 1
 68 729 l 1
 222 729 l 1
 511 233 l 1
 511 729 l 1
 661 729 l 1
 661 50 l 2
 661 -76 561 -172 413 -172 c 2
 376 -172 l 1
 376 -47 l 1
 401 -47 l 2
 451 -47 498 -14 498 15 c 0
 498 19 497 23 495 28 c 2
EndSplineSet
EndChar

StartChar: eng
Encoding: 651 331 544
Width: 611
Flags: MW
HStem: -187 119<320 347 320 370 320 347> 0 21G<63 203 63 63 546 546> 430 119<328.5 346>
VStem: 63 140<0 324 0 462 462 540> 406 140<32 333 333 362>
LayerCount: 2
Fore
SplineSet
406 32 m 2
 406 333 l 2
 406 397 376 430 316 430 c 0
 248 430 203 388 203 324 c 2
 203 0 l 1
 63 0 l 1
 63 540 l 1
 203 540 l 1
 203 462 l 1
 243 522 292 549 365 549 c 0
 480 549 546 481 546 362 c 2
 546 0 l 2
 546 -122 477 -187 370 -187 c 2
 320 -187 l 1
 320 -68 l 1
 374 -68 406 -39 406 32 c 2
EndSplineSet
EndChar

StartChar: omacron
Encoding: 380 333 273
Width: 611
Flags: MW
HStem: -23 113<264 339.5 264 384> 436 113<264 340.5> 640 79<153 452 153 452>
VStem: 35 140<211.5 314.5 211.5 351.5> 429 140<210.5 314>
LayerCount: 2
Fore
SplineSet
301 549 m 0
 470 549 569 442 569 259 c 0
 569 86 466 -23 302 -23 c 0
 136 -23 35 85 35 263 c 0
 35 440 136 549 301 549 c 0
302 436 m 0
 226 436 175 366 175 263 c 0
 175 160 226 90 302 90 c 0
 377 90 429 160 429 261 c 0
 429 367 379 436 302 436 c 0
452 719 m 1
 452 640 l 1
 153 640 l 1
 153 719 l 1
 452 719 l 1
EndSplineSet
EndChar

StartChar: Obreve
Encoding: 652 334 545
Width: 778
Flags: MW
HStem: -23 128<339 443> 613 128<339 442.5 339 452.5> 829 77<369 414 369 428.5>
VStem: 40 150<304.5 413.5> 259 56<962 972 972 972> 592 150<302.5 411 302.5 434>
LayerCount: 2
Fore
SplineSet
523 972 m 1
 523 961 l 2
 523 886 466 829 391 829 c 0
 316 829 259 886 259 962 c 2
 259 972 l 1
 315 972 l 1
 321 928 346 906 392 906 c 0
 436 906 459 926 467 972 c 1
 523 972 l 1
390 741 m 0
 495 741 576 709 640 640 c 0
 705 570 742 468 742 354 c 0
 742 251 703 145 640 78 c 0
 577 10 495 -23 391 -23 c 0
 287 -23 205 10 142 78 c 0
 77 147 40 250 40 359 c 0
 40 468 77 570 142 640 c 0
 204 707 288 741 390 741 c 0
391 613 m 0
 270 613 190 512 190 359 c 0
 190 206 270 105 391 105 c 0
 511 105 592 206 592 355 c 0
 592 513 514 613 391 613 c 0
EndSplineSet
EndChar

StartChar: obreve
Encoding: 653 335 546
Width: 611
Flags: W
HStem: -23 113<264 339.5 264 384> 436 113<264 340.5> 640 77<280 325 280 339.5>
VStem: 35 140<211.5 314.5 211.5 351.5> 170 56<773 783 783 783> 429 140<210.5 314>
LayerCount: 2
Fore
SplineSet
434 783 m 1xec
 434 772 l 2
 434 697 377 640 302 640 c 0
 227 640 170 697 170 773 c 2
 170 783 l 1
 226 783 l 1
 232 739 257 717 303 717 c 0
 347 717 370 737 378 783 c 1
 434 783 l 1xec
301 549 m 0
 470 549 569 442 569 259 c 0
 569 86 466 -23 302 -23 c 0
 136 -23 35 85 35 263 c 0xf4
 35 440 136 549 301 549 c 0
302 436 m 0
 226 436 175 366 175 263 c 0
 175 160 226 90 302 90 c 0
 377 90 429 160 429 261 c 0
 429 367 379 436 302 436 c 0
EndSplineSet
EndChar

StartChar: OE
Encoding: 234 338 141
Width: 1000
Flags: W
HStem: -23 128<302 359> 0 125<624 970 624 970> 314 125<624 923 624 923> 604 125<624 951 624 624> 613 128<302.5 361 240 383>
VStem: 28 150<283 435.5 283 471.5> 474 150<178 314 125 439 439 540 540 540>
LayerCount: 2
Fore
SplineSet
624 314 m 1x36
 624 125 l 1
 970 125 l 1
 970 0 l 1
 480 0 l 1x66
 480 59 l 1
 431 -3 393 -23 325 -23 c 0
 152 -23 28 136 28 359 c 0
 28 584 151 741 329 741 c 0x8e
 393 741 432 724 480 677 c 1
 480 729 l 1
 951 729 l 1
 951 604 l 1
 624 604 l 1
 624 439 l 1
 923 439 l 1
 923 314 l 1
 624 314 l 1x36
474 178 m 1x8e
 474 540 l 1
 445 591 410 613 356 613 c 0
 249 613 178 512 178 359 c 0
 178 207 249 105 355 105 c 0
 409 105 445 127 474 178 c 1x8e
EndSplineSet
EndChar

StartChar: oe
Encoding: 250 339 147
Width: 944
Flags: W
HStem: -23 107<651 695.5 651 724.5> -23 113<252 327.5 252 330> 226 93<559 774 559 919 557 774> 436 113<252 328.5> 442 107<647 682.5>
VStem: 23 140<211.5 314.5 211.5 352>
LayerCount: 2
Fore
SplineSet
776 152 m 1xac
 914 152 l 1
 882 46 785 -23 664 -23 c 0x94
 592 -23 528 3 485 52 c 1
 434 2 370 -23 290 -23 c 0
 124 -23 23 85 23 263 c 0
 23 441 124 549 290 549 c 0x74
 370 549 436 524 485 473 c 1
 528 523 590 549 665 549 c 0
 776 549 863 490 899 392 c 0
 912 354 920 304 920 250 c 0
 920 243 920 238 919 226 c 1
 557 226 l 1
 558 180 564 155 578 132 c 0
 596 102 631 84 671 84 c 0
 720 84 763 112 776 152 c 1xac
290 436 m 0
 214 436 163 366 163 263 c 0
 163 160 214 90 290 90 c 0x74
 365 90 417 160 417 261 c 0
 417 367 367 436 290 436 c 0
559 319 m 1
 774 319 l 1
 770 358 764 378 751 397 c 0
 732 424 699 442 666 442 c 0x2c
 628 442 593 421 576 388 c 0
 567 370 562 351 559 319 c 1
EndSplineSet
EndChar

StartChar: Racute
Encoding: 292 340 185
Width: 722
Flags: MW
HStem: 0 20 289 125<230 411 230 402> 604 125<230 411 230 230>
VStem: 80 150<0 289 414 604> 517 150<493.5 528>
LayerCount: 2
Fore
SplineSet
230 289 m 1
 230 0 l 1
 80 0 l 1
 80 729 l 1
 471 729 l 2
 533 729 579 713 612 679 c 0
 647 643 667 590 667 532 c 0
 667 443 626 384 544 352 c 1
 637 312 641 302 645 87 c 0
 645 55 654 40 677 27 c 1
 677 0 l 1
 516 0 l 1
 497 35 493 57 493 125 c 0
 493 136 493 154 494 173 c 0
 495 186 495 196 495 202 c 0
 495 263 467 289 402 289 c 2
 230 289 l 1
230 414 m 1
 411 414 l 2
 454 414 474 419 490 433 c 0
 507 448 517 476 517 511 c 0
 517 545 508 570 490 585 c 0
 472 600 454 604 411 604 c 2
 230 604 l 1
 230 414 l 1
494 936 m 1
 368 786 l 1
 298 786 l 1
 368 936 l 1
 494 936 l 1
EndSplineSet
EndChar

StartChar: racute
Encoding: 357 341 250
Width: 389
Flags: W
HStem: 0 20 410 139<321 333.5> 520 20<63 203 203 203>
VStem: 63 140<0 287 434 540>
LayerCount: 2
Fore
SplineSet
63 540 m 1xb0
 203 540 l 1x30
 203 434 l 1
 233 507 289 549 353 549 c 0
 357 549 362 549 370 548 c 1
 370 406 l 1
 351 409 341 410 326 410 c 0x50
 244 410 203 369 203 287 c 2
 203 0 l 1
 63 0 l 1
 63 540 l 1xb0
348 757 m 1
 222 607 l 1
 152 607 l 1
 222 757 l 1
 348 757 l 1
EndSplineSet
EndChar

StartChar: rcommaaccent
Encoding: 381 343 274
Width: 389
Flags: W
HStem: -172 112<74 141 74 196> 0 20 410 139<321 333.5> 520 20<63 203 203 203>
VStem: 63 122 63 140<0 287 434 540>
LayerCount: 2
Fore
SplineSet
63 540 m 1x54
 203 540 l 1x14
 203 434 l 1
 233 507 289 549 353 549 c 0
 357 549 362 549 370 548 c 1
 370 406 l 1
 351 409 341 410 326 410 c 0x24
 244 410 203 369 203 287 c 2
 203 0 l 1
 63 0 l 1
 63 540 l 1x54
74 -60 m 1x88
 196 -60 l 1
 196 -163 l 2
 196 -245 145 -305 74 -307 c 1
 74 -261 l 1
 120 -252 142 -222 141 -172 c 1
 74 -172 l 1
 74 -60 l 1x88
EndSplineSet
EndChar

StartChar: rcaron
Encoding: 384 345 277
Width: 389
Flags: W
HStem: 0 20 410 139<321 333.5> 520 20<63 203 203 203>
VStem: 63 140<0 287 434 540>
LayerCount: 2
Fore
SplineSet
63 540 m 1xb0
 203 540 l 1x30
 203 434 l 1
 233 507 289 549 353 549 c 0
 357 549 362 549 370 548 c 1
 370 406 l 1
 351 409 341 410 326 410 c 0x50
 244 410 203 369 203 287 c 2
 203 0 l 1
 63 0 l 1
 63 540 l 1xb0
264 607 m 1
 157 607 l 1
 54 757 l 1
 132 757 l 1
 214 660 l 1
 296 757 l 1
 372 757 l 1
 264 607 l 1
EndSplineSet
EndChar

StartChar: Scedilla
Encoding: 296 350 189
Width: 667
Flags: MW
HStem: -220 50<290 314 284 353.5> -94 191<294 319.5> 621 120<275.5 361.5>
VStem: 45 143<504.5 558.5 504.5 588> 355 86<-140.5 -118.5> 489 144<164.5 224.5>
LayerCount: 2
Fore
SplineSet
340 -23 m 1
 323 -62 l 1
 338 -58 349 -56 364 -56 c 0
 412 -56 441 -83 441 -127 c 0
 441 -187 395 -220 312 -220 c 0
 268 -220 235 -213 174 -192 c 1
 193 -140 l 1
 243 -162 270 -170 298 -170 c 0
 330 -170 355 -152 355 -129 c 0
 355 -108 335 -94 304 -94 c 0
 284 -94 274 -97 255 -106 c 1
 297 -23 l 1
 126 -5 42 72 32 218 c 1
 178 218 l 1
 183 140 240 97 342 97 c 0
 433 97 489 134 489 195 c 0
 489 254 452 282 352 301 c 2
 250 321 l 1
 102 349 45 404 45 517 c 0
 45 659 146 741 321 741 c 0
 426 741 507 712 556 658 c 0
 592 618 607 574 607 507 c 1
 467 507 l 1
 462 581 409 621 314 621 c 0
 237 621 188 586 188 531 c 0
 188 478 219 457 326 436 c 2
 440 414 l 2
 575 388 633 328 633 214 c 0
 633 65 535 -14 340 -23 c 1
EndSplineSet
EndChar

StartChar: scedilla
Encoding: 385 351 278
Width: 556
Flags: W
HStem: -220 50<231.5 255 225 295> -23 110<283 283 283 301> 439 110<244.5 302.5>
VStem: 48 140<378 404 378 424.5> 296 86<-140.5 -118.5> 380 140<123.5 151>
LayerCount: 2
Fore
SplineSet
283 -23 m 1xf4
 264 -63 l 1
 279 -58 291 -56 306 -56 c 0
 353 -56 382 -83 382 -127 c 0
 382 -187 336 -220 254 -220 c 0
 209 -220 180 -214 115 -192 c 1
 134 -140 l 1
 187 -163 211 -170 239 -170 c 0
 271 -170 296 -152 296 -129 c 0xe8
 296 -108 276 -94 245 -94 c 0
 225 -94 215 -97 196 -106 c 1
 239 -22 l 1
 96 -5 34 48 29 157 c 1
 166 157 l 1
 172 128 178 117 193 106 c 0
 211 94 240 87 276 87 c 0
 341 87 380 107 380 140 c 0
 380 162 368 173 333 184 c 2
 166 236 l 2
 114 253 97 262 78 281 c 1
 59 302 48 333 48 369 c 0
 48 480 133 549 270 549 c 0
 415 549 503 480 505 366 c 1
 370 366 l 1
 369 415 336 439 269 439 c 0
 220 439 188 419 188 389 c 0
 188 367 198 359 237 347 c 2
 414 296 l 2
 485 275 520 230 520 160 c 0
 520 52 430 -23 301 -23 c 2
 283 -23 l 1xf4
EndSplineSet
EndChar

StartChar: Tcommaaccent
Encoding: 309 354 202
Width: 611
Flags: MW
HStem: -172 112<252 319 252 374> 0 20 604 125<14 235 14 598 385 598 385 385>
VStem: 14 122 235 150<0 604 0 604>
LayerCount: 2
Fore
SplineSet
385 604 m 1
 385 0 l 1
 235 0 l 1
 235 604 l 1
 14 604 l 1
 14 729 l 1
 598 729 l 1
 598 604 l 1
 385 604 l 1
252 -60 m 1
 374 -60 l 1
 374 -163 l 2
 374 -245 323 -305 252 -307 c 1
 252 -261 l 1
 298 -252 320 -222 319 -172 c 1
 252 -172 l 1
 252 -60 l 1
EndSplineSet
EndChar

StartChar: tcommaaccent
Encoding: 373 355 266
Width: 333
Flags: W
HStem: -172 112<127 194 127 249> -23 106<174 274> 436 93<14 83 14 83 223 301>
VStem: 14 122 83 140<118 142 142 436 529 674>
LayerCount: 2
Fore
SplineSet
301 529 m 1xe8
 301 436 l 1
 223 436 l 1
 223 142 l 2
 223 94 232 83 269 83 c 0
 279 83 287 84 301 86 c 1
 301 -12 l 1
 276 -20 251 -23 220 -23 c 0
 128 -23 83 19 83 104 c 2
 83 436 l 1
 14 436 l 1
 14 529 l 1
 83 529 l 1
 83 674 l 1
 223 674 l 1
 223 529 l 1
 301 529 l 1xe8
127 -60 m 1xf0
 249 -60 l 1
 249 -163 l 2
 249 -245 198 -305 127 -307 c 1
 127 -261 l 1
 173 -252 195 -222 194 -172 c 1
 127 -172 l 1
 127 -60 l 1xf0
EndSplineSet
EndChar

StartChar: Tcaron
Encoding: 297 356 190
Width: 611
Flags: MW
HStem: 0 20 604 125<14 235 14 598 385 598 385 385>
VStem: 235 150<0 604 0 604>
LayerCount: 2
Fore
SplineSet
385 604 m 1
 385 0 l 1
 235 0 l 1
 235 604 l 1
 14 604 l 1
 14 729 l 1
 598 729 l 1
 598 604 l 1
 385 604 l 1
361 786 m 1
 254 786 l 1
 151 936 l 1
 229 936 l 1
 311 839 l 1
 393 936 l 1
 469 936 l 1
 361 786 l 1
EndSplineSet
EndChar

StartChar: tcaron
Encoding: 361 357 254
Width: 385
Flags: W
HStem: -23 106<174 274> 436 93<14 83 14 83 223 301> 617 112
VStem: 14 122 83 140<118 142 142 436 529 674>
LayerCount: 2
Fore
SplineSet
301 529 m 1xe8
 301 436 l 1
 223 436 l 1
 223 142 l 2
 223 94 232 83 269 83 c 0
 279 83 287 84 301 86 c 1
 301 -12 l 1
 276 -20 251 -23 220 -23 c 0
 128 -23 83 19 83 104 c 2
 83 436 l 1
 14 436 l 1
 14 529 l 1
 83 529 l 1
 83 674 l 1
 223 674 l 1
 223 529 l 1
 301 529 l 1xe8
276 829 m 1xf0
 398 829 l 1
 398 726 l 2
 398 644 347 584 276 582 c 1
 276 628 l 1
 322 637 344 667 343 717 c 1
 276 717 l 1
 276 829 l 1xf0
EndSplineSet
EndChar

StartChar: Tbar
Encoding: 656 358 549
Width: 611
Flags: MW
HStem: 0 21G<235 385 235 235> 327 79<158 235 158 235 385 457> 604 125<14 235 14 598 385 385 385 598>
VStem: 235 150<0 327 0 327 406 604>
LayerCount: 2
Fore
SplineSet
235 406 m 1
 235 604 l 1
 14 604 l 1
 14 729 l 1
 598 729 l 1
 598 604 l 1
 385 604 l 1
 385 406 l 1
 457 406 l 1
 457 327 l 1
 385 327 l 1
 385 0 l 1
 235 0 l 1
 235 327 l 1
 158 327 l 1
 158 406 l 1
 235 406 l 1
EndSplineSet
EndChar

StartChar: tbar
Encoding: 657 359 550
Width: 333
Flags: MW
HStem: -23 106<174 274> 268 79<14 83 14 83 223 302> 436 93<14 83 14 83 223 301>
VStem: 83 140<118 142 142 268 118 268 347 436 529 674>
LayerCount: 2
Fore
SplineSet
83 347 m 1
 83 436 l 1
 14 436 l 1
 14 529 l 1
 83 529 l 1
 83 674 l 1
 223 674 l 1
 223 529 l 1
 301 529 l 1
 301 436 l 1
 223 436 l 1
 223 347 l 1
 302 347 l 1
 302 268 l 1
 223 268 l 1
 223 142 l 2
 223 94 232 83 269 83 c 0
 279 83 287 84 301 86 c 1
 301 -12 l 1
 276 -20 251 -23 220 -23 c 0
 128 -23 83 19 83 104 c 2
 83 268 l 1
 14 268 l 1
 14 347 l 1
 83 347 l 1
EndSplineSet
EndChar

StartChar: Utilde
Encoding: 658 360 551
Width: 722
Flags: W
HStem: -23 128<321 409> 709 20G<76 226 226 226 504 654 654 654> 830 79<439.5 453.5 439.5 476.5> 874 79<279 291.5 254.5 295.5>
VStem: 76 150<235 729> 479 63<957 957> 504 150<235 729>
LayerCount: 2
Fore
SplineSet
479 957 m 1xec
 542 957 l 1
 538 872 506 830 447 830 c 0xec
 432 830 413 834 392 842 c 2
 321 868 l 2
 309 872 300 874 291 874 c 0
 267 874 256 861 251 829 c 1
 188 829 l 1
 192 907 227 953 282 953 c 0xdc
 301 953 302 953 338 940 c 2
 409 915 l 2
 416 912 436 909 443 909 c 0
 464 909 476 925 479 957 c 1xec
504 729 m 1xca
 654 729 l 1
 654 235 l 2
 654 153 632 95 583 51 c 0
 530 3 453 -23 365 -23 c 0
 277 -23 200 3 147 51 c 0
 98 95 76 153 76 235 c 2
 76 729 l 1
 226 729 l 1
 226 235 l 2
 226 147 271 105 365 105 c 0
 459 105 504 147 504 235 c 2
 504 729 l 1xca
EndSplineSet
EndChar

StartChar: utilde
Encoding: 659 361 552
Width: 611
Flags: W
HStem: -23 119<258 275.5> 520 20G<58 198 198 198 401 541 541 541> 641 79<373.5 387.5 373.5 410.5> 685 79<213 225.5 188.5 229.5>
VStem: 58 140<164 193 193 540> 401 140<0 64 64 64 202 540> 413 63<768 768>
LayerCount: 2
Fore
SplineSet
413 768 m 1xea
 476 768 l 1
 472 683 440 641 381 641 c 0xea
 366 641 347 645 326 653 c 2
 255 679 l 2
 243 683 234 685 225 685 c 0
 201 685 190 672 185 640 c 1
 122 640 l 1
 126 718 161 764 216 764 c 0xda
 235 764 236 764 272 751 c 2
 343 726 l 2
 350 723 370 720 377 720 c 0
 398 720 410 736 413 768 c 1xea
541 0 m 1xcc
 401 0 l 1
 401 64 l 1
 361 4 312 -23 239 -23 c 0
 124 -23 58 45 58 164 c 2
 58 540 l 1
 198 540 l 1
 198 193 l 2
 198 128 228 96 288 96 c 0
 356 96 401 138 401 202 c 2
 401 540 l 1
 541 540 l 1
 541 0 l 1xcc
EndSplineSet
EndChar

StartChar: Umacron
Encoding: 320 362 213
Width: 722
Flags: MW
HStem: -23 128<321 409> 709 20<76 226 226 226 504 654 654 654> 819 79<216 515 216 515>
VStem: 76 150<235 729> 504 150<235 729>
LayerCount: 2
Fore
SplineSet
504 729 m 1
 654 729 l 1
 654 235 l 2
 654 153 632 95 583 51 c 0
 530 3 453 -23 365 -23 c 0
 277 -23 200 3 147 51 c 0
 98 95 76 153 76 235 c 2
 76 729 l 1
 226 729 l 1
 226 235 l 2
 226 147 271 105 365 105 c 0
 459 105 504 147 504 235 c 2
 504 729 l 1
515 898 m 1
 515 819 l 1
 216 819 l 1
 216 898 l 1
 515 898 l 1
EndSplineSet
EndChar

StartChar: Ubreve
Encoding: 660 364 553
Width: 722
Flags: MW
HStem: -23 128<321 409> 709 20G<76 226 226 226 504 654 654 654> 829 77<343 388 343 402.5>
VStem: 76 150<235 729> 233 56<962 972 972 972> 504 150<235 729>
LayerCount: 2
Fore
SplineSet
497 972 m 1
 497 961 l 2
 497 886 440 829 365 829 c 0
 290 829 233 886 233 962 c 2
 233 972 l 1
 289 972 l 1
 295 928 320 906 366 906 c 0
 410 906 433 926 441 972 c 1
 497 972 l 1
504 729 m 1
 654 729 l 1
 654 235 l 2
 654 153 632 95 583 51 c 0
 530 3 453 -23 365 -23 c 0
 277 -23 200 3 147 51 c 0
 98 95 76 153 76 235 c 2
 76 729 l 1
 226 729 l 1
 226 235 l 2
 226 147 271 105 365 105 c 0
 459 105 504 147 504 235 c 2
 504 729 l 1
EndSplineSet
EndChar

StartChar: ubreve
Encoding: 661 365 554
Width: 611
Flags: W
HStem: -23 119<258 275.5> 520 20G<58 198 198 198 401 541 541 541> 640 77<278 323 278 337.5>
VStem: 58 140<164 193 193 540> 168 56<773 783 783 783> 401 140<0 64 64 64 202 540>
LayerCount: 2
Fore
SplineSet
432 783 m 1xec
 432 772 l 2
 432 697 375 640 300 640 c 0
 225 640 168 697 168 773 c 2
 168 783 l 1
 224 783 l 1
 230 739 255 717 301 717 c 0
 345 717 368 737 376 783 c 1
 432 783 l 1xec
541 0 m 1
 401 0 l 1
 401 64 l 1
 361 4 312 -23 239 -23 c 0
 124 -23 58 45 58 164 c 2
 58 540 l 1
 198 540 l 1
 198 193 l 2xf4
 198 128 228 96 288 96 c 0
 356 96 401 138 401 202 c 2
 401 540 l 1
 541 540 l 1
 541 0 l 1
EndSplineSet
EndChar

StartChar: Uring
Encoding: 302 366 195
Width: 722
Flags: W
HStem: -23 128<321 409> 709 20<76 226 226 226 504 654 654 654> 769 48<354 377 354 389.5> 901 48<354 377.5>
VStem: 76 48 76 150<235 729> 208 48 504 150<235 729>
LayerCount: 2
Fore
SplineSet
504 729 m 1xf5
 654 729 l 1
 654 235 l 2
 654 153 632 95 583 51 c 0
 530 3 453 -23 365 -23 c 0
 277 -23 200 3 147 51 c 0
 98 95 76 153 76 235 c 2
 76 729 l 1
 226 729 l 1
 226 235 l 2
 226 147 271 105 365 105 c 0
 459 105 504 147 504 235 c 2
 504 729 l 1xf5
366 949 m 0xfa
 416 949 455 909 455 858 c 0
 455 809 414 769 365 769 c 0
 315 769 275 809 275 859 c 0
 275 909 315 949 366 949 c 0xfa
366 901 m 0
 342 901 323 882 323 859 c 0
 323 836 342 817 366 817 c 0
 388 817 407 836 407 859 c 0
 407 882 389 901 366 901 c 0
EndSplineSet
EndChar

StartChar: uring
Encoding: 366 367 259
Width: 611
Flags: W
HStem: -23 119<258 275.5> 520 20<58 198 198 198 401 541 541 541> 590 48<288 311 288 323.5> 722 48<288 311.5>
VStem: 58 48 58 140<164 193 193 540> 190 48 401 140<0 64 64 64 202 540>
LayerCount: 2
Fore
SplineSet
541 0 m 1xf5
 401 0 l 1
 401 64 l 1
 361 4 312 -23 239 -23 c 0
 124 -23 58 45 58 164 c 2
 58 540 l 1
 198 540 l 1
 198 193 l 2
 198 128 228 96 288 96 c 0
 356 96 401 138 401 202 c 2
 401 540 l 1
 541 540 l 1
 541 0 l 1xf5
300 770 m 0xfa
 350 770 389 730 389 679 c 0
 389 630 348 590 299 590 c 0
 249 590 209 630 209 680 c 0
 209 730 249 770 300 770 c 0xfa
300 722 m 0
 276 722 257 703 257 680 c 0
 257 657 276 638 300 638 c 0
 322 638 341 657 341 680 c 0
 341 703 323 722 300 722 c 0
EndSplineSet
EndChar

StartChar: Uhungarumlaut
Encoding: 303 368 196
Width: 722
Flags: MW
HStem: -23 128<321 409> 709 20<76 226 226 226 504 654 654 654>
VStem: 76 150<235 729> 504 150<235 729>
LayerCount: 2
Fore
SplineSet
504 729 m 1
 654 729 l 1
 654 235 l 2
 654 153 632 95 583 51 c 0
 530 3 453 -23 365 -23 c 0
 277 -23 200 3 147 51 c 0
 98 95 76 153 76 235 c 2
 76 729 l 1
 226 729 l 1
 226 235 l 2
 226 147 271 105 365 105 c 0
 459 105 504 147 504 235 c 2
 504 729 l 1
433 936 m 1
 307 789 l 1
 237 789 l 1
 307 936 l 1
 433 936 l 1
621 936 m 1
 495 789 l 1
 425 789 l 1
 495 936 l 1
 621 936 l 1
EndSplineSet
EndChar

StartChar: Uogonek
Encoding: 321 370 214
Width: 722
Flags: MW
HStem: -234 51<513 531.5> -23 128<322.5 387.5> 709 20<76 226 226 226 504 654 654 654>
VStem: 76 150<235 729> 373 89<-149 -115 -149 -114> 504 150<235 729>
LayerCount: 2
Fore
SplineSet
597 -177 m 1
 597 -224 l 1
 570 -231 546 -234 517 -234 c 0
 490 -234 465 -230 441 -222 c 0
 395 -207 373 -179 373 -138 c 0
 373 -90 400 -55 477 -7 c 1
 429 -20 407 -23 368 -23 c 0
 277 -23 200 3 147 51 c 0
 98 95 76 153 76 235 c 2
 76 729 l 1
 226 729 l 1
 226 235 l 2
 226 147 271 105 365 105 c 0
 459 105 504 147 504 235 c 2
 504 729 l 1
 654 729 l 1
 654 235 l 2
 654 166 638 116 602 69 c 0
 585 48 585 48 527 -13 c 1
 482 -62 462 -98 462 -132 c 0
 462 -166 487 -183 539 -183 c 0
 560 -183 578 -181 597 -177 c 1
EndSplineSet
EndChar

StartChar: uogonek
Encoding: 383 371 276
Width: 611
Flags: W
HStem: -233 51<480 502.5> -23 119<258 275.5> 520 20<58 198 198 198 401 541 541 541>
VStem: 58 140<164 193 193 540> 340 90<-147 -116.5> 401 140<0 64 64 64 202 540 0 540>
LayerCount: 2
Fore
SplineSet
465 0 m 1xe8
 401 0 l 1
 401 64 l 1
 361 4 312 -23 239 -23 c 0
 124 -23 58 45 58 164 c 2
 58 540 l 1
 198 540 l 1
 198 193 l 2
 198 128 228 96 288 96 c 0
 356 96 401 138 401 202 c 2
 401 540 l 1
 541 540 l 1
 541 0 l 1xf4
 468 -37 430 -82 430 -129 c 0
 430 -165 454 -182 506 -182 c 0
 526 -182 545 -180 564 -177 c 1
 564 -224 l 1
 536 -231 516 -233 489 -233 c 0
 395 -233 340 -198 340 -138 c 0
 340 -95 370 -49 419 -21 c 0
 433 -12 441 -9 465 0 c 1xe8
EndSplineSet
EndChar

StartChar: Wcircumflex
Encoding: 662 372 555
Width: 944
Flags: MW
HStem: 0 21G<219 354 219 219 595 730 595 595> 709 20G<13 172 172 172 398 546 546 546 773 932 932 932>
LayerCount: 2
Fore
SplineSet
421 979 m 1
 528 979 l 1
 631 829 l 1
 553 829 l 1
 471 929 l 1
 389 829 l 1
 313 829 l 1
 421 979 l 1
730 0 m 1
 595 0 l 1
 473 569 l 1
 354 0 l 1
 219 0 l 1
 13 729 l 1
 172 729 l 1
 285 183 l 1
 398 729 l 1
 546 729 l 1
 664 182 l 1
 773 729 l 1
 932 729 l 1
 730 0 l 1
EndSplineSet
EndChar

StartChar: wcircumflex
Encoding: 663 373 556
Width: 778
Flags: MW
HStem: 0 21G<157 301 157 157 468 613 468 468> 520 20G<5 150 150 150 318 458 458 458 621 766 766 766>
LayerCount: 2
Fore
SplineSet
335 790 m 1
 442 790 l 1
 545 640 l 1
 467 640 l 1
 385 740 l 1
 303 640 l 1
 227 640 l 1
 335 790 l 1
613 0 m 1
 468 0 l 1
 387 381 l 1
 301 0 l 1
 157 0 l 1
 5 540 l 1
 150 540 l 1
 236 162 l 1
 318 540 l 1
 458 540 l 1
 539 162 l 1
 621 540 l 1
 766 540 l 1
 613 0 l 1
EndSplineSet
EndChar

StartChar: Ycircumflex
Encoding: 664 374 557
Width: 667
Flags: MW
HStem: 0 21G<269 419 269 269> 709 20G<27 194 194 194 482 650 650 650>
VStem: 269 150<0 270 0 270>
LayerCount: 2
Fore
SplineSet
287 979 m 1
 394 979 l 1
 497 829 l 1
 419 829 l 1
 337 929 l 1
 255 829 l 1
 179 829 l 1
 287 979 l 1
419 270 m 1
 419 0 l 1
 269 0 l 1
 269 270 l 1
 27 729 l 1
 194 729 l 1
 343 407 l 1
 482 729 l 1
 650 729 l 1
 419 270 l 1
EndSplineSet
EndChar

StartChar: ycircumflex
Encoding: 665 375 558
Width: 556
Flags: MW
HStem: -219 103<127.5 147.5 117.5 153.5> 520 20G<9 163 163 163 394 538 538 538>
LayerCount: 2
Fore
SplineSet
223 790 m 1
 330 790 l 1
 433 640 l 1
 355 640 l 1
 273 740 l 1
 191 640 l 1
 115 640 l 1
 223 790 l 1
394 540 m 1
 538 540 l 1
 316 -99 l 2
 293 -163 276 -186 237 -202 c 0
 213 -212 171 -219 136 -219 c 0
 119 -219 107 -218 86 -215 c 1
 86 -110 l 1
 104 -115 112 -116 123 -116 c 0
 172 -116 210 -77 210 -26 c 2
 210 -23 l 1
 210 -22 l 1
 9 540 l 1
 163 540 l 1
 282 147 l 1
 394 540 l 1
EndSplineSet
EndChar

StartChar: Ydieresis
Encoding: 310 376 203
Width: 667
Flags: W
HStem: 0 20 709 20<27 194 194 194 482 650 650 650> 800 122<194 304 194 304 194 380 380 490>
VStem: 27 110 213 110 269 150<0 270 0 270>
LayerCount: 2
Fore
SplineSet
419 270 m 1xe4
 419 0 l 1
 269 0 l 1
 269 270 l 1
 27 729 l 1
 194 729 l 1
 343 407 l 1
 482 729 l 1
 650 729 l 1
 419 270 l 1xe4
304 922 m 1xf8
 304 800 l 1
 194 800 l 1
 194 922 l 1
 304 922 l 1xf8
490 922 m 1
 490 800 l 1
 380 800 l 1
 380 922 l 1
 490 922 l 1
EndSplineSet
EndChar

StartChar: Zacute
Encoding: 305 377 198
Width: 611
Flags: MW
HStem: 0 125<206 578 30 30> 604 125<30 403 30 578 30 578>
LayerCount: 2
Fore
SplineSet
578 729 m 1
 578 604 l 1
 206 125 l 1
 578 125 l 1
 578 0 l 1
 30 0 l 1
 30 125 l 1
 403 604 l 1
 30 604 l 1
 30 729 l 1
 578 729 l 1
441 936 m 1
 315 786 l 1
 245 786 l 1
 315 936 l 1
 441 936 l 1
EndSplineSet
EndChar

StartChar: Zdotaccent
Encoding: 307 379 200
Width: 611
Flags: MW
HStem: 0 125<206 578 30 30> 604 125<30 403 30 578 30 578> 800 122<252 362 252 362>
VStem: 30 110
LayerCount: 2
Fore
SplineSet
578 729 m 1
 578 604 l 1
 206 125 l 1
 578 125 l 1
 578 0 l 1
 30 0 l 1
 30 125 l 1
 403 604 l 1
 30 604 l 1
 30 729 l 1
 578 729 l 1
362 922 m 1
 362 800 l 1
 252 800 l 1
 252 922 l 1
 362 922 l 1
EndSplineSet
EndChar

StartChar: Zcaron
Encoding: 306 381 199
Width: 611
Flags: MW
HStem: 0 125<206 578 30 30> 604 125<30 403 30 578 30 578>
LayerCount: 2
Fore
SplineSet
578 729 m 1
 578 604 l 1
 206 125 l 1
 578 125 l 1
 578 0 l 1
 30 0 l 1
 30 125 l 1
 403 604 l 1
 30 604 l 1
 30 729 l 1
 578 729 l 1
358 786 m 1
 251 786 l 1
 148 936 l 1
 226 936 l 1
 308 839 l 1
 390 936 l 1
 466 936 l 1
 358 786 l 1
EndSplineSet
EndChar

StartChar: zcaron
Encoding: 370 382 263
Width: 500
Flags: MW
HStem: 0 113<194 468 21 21> 427 113<39 288 39 459 39 459>
LayerCount: 2
Fore
SplineSet
459 540 m 1
 459 427 l 1
 194 113 l 1
 468 113 l 1
 468 0 l 1
 21 0 l 1
 21 113 l 1
 288 427 l 1
 39 427 l 1
 39 540 l 1
 459 540 l 1
302 607 m 1
 195 607 l 1
 92 757 l 1
 170 757 l 1
 252 660 l 1
 334 757 l 1
 410 757 l 1
 302 607 l 1
EndSplineSet
EndChar

StartChar: longs
Encoding: 666 383 559
Width: 333
Flags: MW
HStem: 0 21G<90 230 90 90> 436 93<14 90 14 90> 624 105<181.5 274>
VStem: 90 140<0 436 436 436 529 582>
LayerCount: 2
Fore
SplineSet
230 0 m 1
 90 0 l 1
 90 436 l 1
 14 436 l 1
 14 529 l 1
 90 529 l 1
 90 594 l 2
 90 685 135 729 228 729 c 0
 247 729 282 728 308 726 c 1
 308 621 l 1
 296 623 280 624 268 624 c 0
 242 624 230 610 230 582 c 2
 230 0 l 1
EndSplineSet
EndChar

StartChar: florin
Encoding: 166 402 100
Width: 556
Flags: MW
HStem: -220 116<95 119.5 94 135.5> 383 97<104 227 104 242 377 500> 628 116<440 454.5 386.5 468>
LayerCount: 2
Fore
SplineSet
500 480 m 1
 500 383 l 1
 363 383 l 1
 304 1 l 2
 291 -84 270 -138 236 -172 c 0
 206 -202 160 -220 111 -220 c 0
 79 -220 52 -214 21 -198 c 1
 45 -83 l 1
 70 -98 86 -104 102 -104 c 0
 137 -104 154 -76 167 7 c 2
 227 383 l 1
 104 383 l 1
 104 480 l 1
 242 480 l 1
 253 539 l 1
 276 681 334 744 439 744 c 0
 470 744 492 740 535 727 c 1
 515 612 l 1
 486 625 476 628 460 628 c 0
 420 628 396 593 384 521 c 2
 377 480 l 1
 500 480 l 1
EndSplineSet
EndChar

StartChar: Scommaaccent
Encoding: 388 536 281
Width: 667
Flags: W
HStem: -172 112<282 349 282 404> -23 120<291 387.5 291 428> 621 120<275.5 361.5>
VStem: 32 122 45 143<504.5 558.5 504.5 588> 489 144<164.5 224.5>
LayerCount: 2
Fore
SplineSet
607 507 m 1xec
 467 507 l 1
 462 581 409 621 314 621 c 0
 237 621 188 586 188 531 c 0
 188 478 219 457 326 436 c 2
 440 414 l 2
 575 388 633 328 633 213 c 0
 633 65 522 -23 334 -23 c 0
 148 -23 41 62 32 218 c 1
 178 218 l 1
 183 140 240 97 342 97 c 0
 433 97 489 134 489 195 c 0
 489 254 452 282 352 301 c 2
 250 321 l 1
 102 349 45 404 45 517 c 0
 45 659 146 741 321 741 c 0
 426 741 507 712 556 658 c 0
 592 618 607 574 607 507 c 1xec
282 -60 m 1xf0
 404 -60 l 1
 404 -163 l 2
 404 -245 353 -305 282 -307 c 1
 282 -261 l 1
 328 -252 350 -222 349 -172 c 1
 282 -172 l 1
 282 -60 l 1xf0
EndSplineSet
EndChar

StartChar: circumflex
Encoding: 195 710 125
Width: 333
Flags: W
LayerCount: 2
Fore
SplineSet
116 757 m 1
 223 757 l 1
 326 607 l 1
 248 607 l 1
 166 707 l 1
 84 607 l 1
 8 607 l 1
 116 757 l 1
EndSplineSet
EndChar

StartChar: caron
Encoding: 207 711 135
Width: 333
Flags: W
LayerCount: 2
Fore
SplineSet
219 607 m 1
 112 607 l 1
 9 757 l 1
 87 757 l 1
 169 660 l 1
 251 757 l 1
 327 757 l 1
 219 607 l 1
EndSplineSet
EndChar

StartChar: breve
Encoding: 198 728 128
Width: 333
Flags: MW
HStem: 605 77<145 190 145 204.5> 728 20<35 91 91 91 243 299 299 299>
LayerCount: 2
Fore
SplineSet
299 748 m 1
 299 737 l 2
 299 662 242 605 167 605 c 0
 92 605 35 662 35 738 c 2
 35 748 l 1
 91 748 l 1
 97 704 122 682 168 682 c 0
 212 682 235 702 243 748 c 1
 299 748 l 1
EndSplineSet
EndChar

StartChar: dotaccent
Encoding: 199 729 129
Width: 333
Flags: MW
HStem: 621 122<112 222 112 222>
VStem: 112 110<621 743 621 743>
LayerCount: 2
Fore
SplineSet
222 743 m 1
 222 621 l 1
 112 621 l 1
 112 743 l 1
 222 743 l 1
EndSplineSet
EndChar

StartChar: ring
Encoding: 202 730 131
Width: 333
Flags: MW
HStem: 590 48<156 179 156 191.5> 722 48<156 179.5>
VStem: 77 48<668.5 691.5 668.5 705> 209 48<668.5 691.5>
LayerCount: 2
Fore
SplineSet
168 770 m 0
 218 770 257 730 257 679 c 0
 257 630 216 590 167 590 c 0
 117 590 77 630 77 680 c 0
 77 730 117 770 168 770 c 0
168 722 m 0
 144 722 125 703 125 680 c 0
 125 657 144 638 168 638 c 0
 190 638 209 657 209 680 c 0
 209 703 191 722 168 722 c 0
EndSplineSet
EndChar

StartChar: ogonek
Encoding: 206 731 134
Width: 333
Flags: MW
HStem: -234 51<184.5 203>
VStem: 45 90<-150 -109.5>
LayerCount: 2
Fore
SplineSet
169 0 m 1
 244 0 l 1
 159 -53 135 -82 135 -133 c 0
 135 -167 158 -183 211 -183 c 0
 231 -183 250 -181 268 -177 c 1
 268 -224 l 1
 241 -231 217 -234 189 -234 c 0
 100 -234 45 -197 45 -139 c 0
 45 -80 92 -28 169 0 c 1
EndSplineSet
EndChar

StartChar: tilde
Encoding: 196 732 126
Width: 333
Flags: W
HStem: 622 79<242.5 256.5 242.5 279.5> 666 79<82 94.5 57.5 98.5> 729 20<282 345 345 345>
LayerCount: 2
Fore
SplineSet
282 749 m 1xa0
 345 749 l 1
 341 664 309 622 250 622 c 0xa0
 235 622 216 626 195 634 c 2
 124 660 l 2
 112 664 103 666 94 666 c 0
 70 666 59 653 54 621 c 1
 -9 621 l 1
 -5 699 30 745 85 745 c 0x40
 104 745 105 745 141 732 c 2
 212 707 l 2
 219 704 239 701 246 701 c 0
 267 701 279 717 282 749 c 1xa0
EndSplineSet
EndChar

StartChar: hungarumlaut
Encoding: 205 733 133
Width: 333
Flags: W
LayerCount: 2
Fore
SplineSet
152 757 m 1
 26 610 l 1
 -44 610 l 1
 26 757 l 1
 152 757 l 1
340 757 m 1
 214 610 l 1
 144 610 l 1
 214 757 l 1
 340 757 l 1
EndSplineSet
EndChar

StartChar: Delta
Encoding: 412 916 305
Width: 729
Flags: MW
HStem: 0 125<205 524 205 721> 709 20<268 461 461 461>
LayerCount: 2
Fore
SplineSet
8 0 m 1
 268 729 l 1
 461 729 l 1
 721 0 l 1
 8 0 l 1
205 125 m 1
 524 125 l 1
 364 614 l 1
 205 125 l 1
EndSplineSet
EndChar

StartChar: mu
Encoding: 421 956 314
Width: 611
Flags: W
HStem: -220 20 -23 100<479.5 556> -23 119<271.5 311.5 268 315> 520 20<58 198 198 198 383 523 523 523>
VStem: 58 134<-220 15> 58 140<186.5 206 206 540> 383 140<202 540>
LayerCount: 2
Fore
SplineSet
192 -220 m 1xaa
 58 -220 l 1
 58 540 l 1
 198 540 l 1
 198 206 l 2
 198 167 202 149 216 129 c 0
 230 108 254 96 282 96 c 0xb4
 341 96 383 140 383 202 c 2
 383 540 l 1
 523 540 l 1
 523 150 l 2
 523 92 529 77 553 77 c 0
 559 77 563 78 573 81 c 1
 573 -6 l 1
 550 -18 531 -23 503 -23 c 0x5a
 456 -23 432 -9 408 31 c 1
 369 -9 338 -23 292 -23 c 0
 251 -23 220 -12 192 15 c 1
 192 -220 l 1xaa
EndSplineSet
EndChar

StartChar: uni0400
Encoding: 488 1024 381
Width: 709
Flags: MW
HStem: 0 125<232 627 232 627> 314 125<232 581 232 581> 604 125<232 609 232 232>
VStem: 82 150<125 314 125 439 439 604>
LayerCount: 2
Fore
SplineSet
184 951 m 1
 310 951 l 1
 380 801 l 1
 310 801 l 1
 184 951 l 1
232 314 m 1
 232 125 l 1
 627 125 l 1
 627 0 l 1
 82 0 l 1
 82 729 l 1
 609 729 l 1
 609 604 l 1
 232 604 l 1
 232 439 l 1
 581 439 l 1
 581 314 l 1
 232 314 l 1
EndSplineSet
EndChar

StartChar: afii10023
Encoding: 428 1025 321
Width: 709
Flags: W
HStem: 0 125<232 627 232 627> 314 125<232 581 232 581> 604 125<232 609 232 232> 800 122<200 310 200 310 200 386 386 496>
VStem: 82 150<125 314 125 439 439 604> 200 110<800 922 800 922> 386 110<800 922 800 922>
LayerCount: 2
Fore
SplineSet
232 314 m 1xfa
 232 125 l 1
 627 125 l 1
 627 0 l 1
 82 0 l 1
 82 729 l 1
 609 729 l 1
 609 604 l 1
 232 604 l 1
 232 439 l 1
 581 439 l 1
 581 314 l 1
 232 314 l 1xfa
310 922 m 1xf6
 310 800 l 1
 200 800 l 1
 200 922 l 1
 310 922 l 1xf6
496 922 m 1
 496 800 l 1
 386 800 l 1
 386 922 l 1
 496 922 l 1
EndSplineSet
EndChar

StartChar: afii10051
Encoding: 489 1026 382
Width: 769
Flags: MW
HStem: 0 21G<195 345 195 195> 379 125<345 460 345 472> 604 125<14 195 14 518 345 345 345 518>
VStem: 195 150<0 379 0 504 504 604> 570 150<56 276 276 282>
LayerCount: 2
Fore
SplineSet
435 -47 m 1
 460 -47 l 2
 518 -47 570 -10 570 56 c 2
 570 276 l 2
 570 342 518 379 460 379 c 2
 345 379 l 1
 345 0 l 1
 195 0 l 1
 195 604 l 1
 14 604 l 1
 14 729 l 1
 518 729 l 1
 518 604 l 1
 345 604 l 1
 345 504 l 1
 472 504 l 2
 620 504 720 408 720 282 c 2
 720 50 l 2
 720 -76 620 -172 472 -172 c 2
 435 -172 l 1
 435 -47 l 1
EndSplineSet
EndChar

StartChar: afii10052
Encoding: 490 1027 383
Width: 611
Flags: MW
HStem: 0 21G<82 232 82 82> 604 125<232 594 232 232>
VStem: 82 150<0 604>
LayerCount: 2
Fore
SplineSet
499 951 m 1
 373 801 l 1
 303 801 l 1
 373 951 l 1
 499 951 l 1
232 0 m 1
 82 0 l 1
 82 729 l 1
 594 729 l 1
 594 604 l 1
 232 604 l 1
 232 0 l 1
EndSplineSet
EndChar

StartChar: afii10053
Encoding: 491 1028 384
Width: 722
Flags: MW
HStem: -23 126<325.5 424.5 325.5 464.5> 311 125<197 488 197 488 196 488> 613 128<334.5 409>
LayerCount: 2
Fore
SplineSet
488 311 m 1
 196 311 l 1
 208 179 273 103 378 103 c 0
 471 103 530 156 539 249 c 1
 685 249 l 1
 676 82 555 -23 374 -23 c 0
 171 -23 44 124 44 358 c 0
 44 594 172 741 378 741 c 0
 487 741 577 700 633 626 c 0
 664 585 677 545 682 482 c 1
 539 482 l 1
 530 521 522 540 506 560 c 0
 478 595 435 613 383 613 c 0
 286 613 217 548 197 436 c 1
 488 436 l 1
 488 311 l 1
EndSplineSet
EndChar

StartChar: afii10055
Encoding: 493 1030 386
Width: 278
Flags: MW
HStem: 0 21G<63 213 63 63> 709 20G<63 213 213 213>
VStem: 63 150<0 729 0 729>
LayerCount: 2
Fore
SplineSet
213 729 m 1
 213 0 l 1
 63 0 l 1
 63 729 l 1
 213 729 l 1
EndSplineSet
EndChar

StartChar: afii10056
Encoding: 494 1031 387
Width: 278
Flags: W
HStem: 0 21G<63 213 63 63> 709 20G<63 213 213 213> 800 122<-9 101 -9 101 -9 177 177 287>
VStem: -9 110<800 922 800 922> 63 150<0 729 0 729> 177 110<800 922 800 922>
LayerCount: 2
Fore
SplineSet
101 922 m 1xf0
 101 800 l 1
 -9 800 l 1
 -9 922 l 1
 101 922 l 1xf0
287 922 m 1xe4
 287 800 l 1
 177 800 l 1
 177 922 l 1
 287 922 l 1xe4
213 729 m 1xe8
 213 0 l 1
 63 0 l 1
 63 729 l 1
 213 729 l 1xe8
EndSplineSet
EndChar

StartChar: afii10058
Encoding: 496 1033 389
Width: 1106
Flags: MW
HStem: 0 125<657 797 797 829> 344 125<657 844 657 797> 604 125<285 507 285 285>
VStem: 135 150<461 604> 507 150<125 344 469 604 604 604> 914 150<197.5 272>
LayerCount: 2
Fore
SplineSet
507 0 m 1
 507 604 l 1
 285 604 l 1
 285 414 l 2
 285 237 258 0 46 0 c 1
 46 145 l 1
 117 144 135 255 135 461 c 2
 135 729 l 1
 657 729 l 1
 657 469 l 1
 844 469 l 2
 978 469 1064 374 1064 226 c 0
 1064 80 981 0 829 0 c 2
 507 0 l 1
657 344 m 1
 657 125 l 1
 797 125 l 2
 877 125 914 160 914 235 c 0
 914 309 877 344 797 344 c 2
 657 344 l 1
EndSplineSet
EndChar

StartChar: afii10059
Encoding: 497 1034 390
Width: 1113
Flags: MW
HStem: 0 125<657 797 797 829> 344 125<657 844 657 797> 709 20G<68 218 218 218 506 657 657 657>
VStem: 68 150<0 342 0 467 467 729> 506 151<469 729> 914 150<197.5 272>
LayerCount: 2
Fore
SplineSet
657 729 m 1
 657 469 l 1
 844 469 l 2
 978 469 1064 374 1064 226 c 0
 1064 80 981 0 829 0 c 2
 507 0 l 1
 507 342 l 1
 218 342 l 1
 218 0 l 1
 68 0 l 1
 68 729 l 1
 218 729 l 1
 218 467 l 1
 506 467 l 1
 506 729 l 1
 657 729 l 1
657 344 m 1
 657 125 l 1
 797 125 l 2
 877 125 914 160 914 235 c 0
 914 309 877 344 797 344 c 2
 657 344 l 1
EndSplineSet
EndChar

StartChar: afii10060
Encoding: 498 1035 391
Width: 769
Flags: MW
HStem: 0 21G<195 345 195 195 570 570 570 720> 379 125<345 460 345 345> 604 125<14 195 14 518 345 345 345 518>
VStem: 195 150<0 379> 570 150<0 276 276 282 0 309>
LayerCount: 2
Fore
SplineSet
345 0 m 1
 195 0 l 1
 195 604 l 1
 14 604 l 1
 14 729 l 1
 518 729 l 1
 518 604 l 1
 345 604 l 1
 344 504 l 1
 472 504 l 2
 620 504 720 408 720 282 c 2
 720 0 l 1
 570 0 l 1
 570 276 l 2
 570 342 518 379 460 379 c 2
 345 379 l 1
 345 0 l 1
EndSplineSet
EndChar

StartChar: uni040D
Encoding: 500 1037 393
Width: 757
Flags: MW
HStem: 0 21G<82 232 82 82 525 525 525 675> 709 20G<82 232 232 232 521 675 675 675>
VStem: 82 150<233 729> 525 150<0 504 504 504>
LayerCount: 2
Fore
SplineSet
218 951 m 1
 344 951 l 1
 414 801 l 1
 344 801 l 1
 218 951 l 1
232 0 m 1
 82 0 l 1
 82 729 l 1
 232 729 l 1
 232 233 l 1
 521 729 l 1
 675 729 l 1
 675 0 l 1
 525 0 l 1
 525 504 l 1
 232 0 l 1
EndSplineSet
EndChar

StartChar: afii10062
Encoding: 501 1038 394
Width: 718
Flags: MW
HStem: 0 21G<154 328 154 154> 709 20G<15 178 178 178 522 696 696 696> 801 77<333 378 333 393>
VStem: 224 56<934 944 944 944>
LayerCount: 2
Fore
SplineSet
488 944 m 1
 488 933 l 2
 488 858 430 801 356 801 c 0
 280 801 224 858 224 934 c 2
 224 944 l 1
 280 944 l 1
 286 900 310 878 356 878 c 0
 400 878 424 898 432 944 c 1
 488 944 l 1
328 0 m 1
 154 0 l 1
 268 226 l 1
 15 729 l 1
 178 729 l 1
 350 384 l 1
 522 729 l 1
 696 729 l 1
 328 0 l 1
EndSplineSet
EndChar

StartChar: afii10145
Encoding: 502 1039 395
Width: 722
Flags: MW
HStem: 0 125<218 298 428 508 218 658 428 428> 709 20G<68 218 218 218 508 658 658 658>
VStem: 68 150<125 729 125 729 125 729> 298 130<-150 0 -150 0> 508 150<125 729 0 729>
LayerCount: 2
Fore
SplineSet
428 0 m 1
 428 -150 l 1
 298 -150 l 1
 298 0 l 1
 68 0 l 1
 68 729 l 1
 218 729 l 1
 218 125 l 1
 508 125 l 1
 508 729 l 1
 658 729 l 1
 658 0 l 1
 428 0 l 1
EndSplineSet
EndChar

StartChar: afii10017
Encoding: 422 1040 315
Width: 722
Flags: MW
HStem: 0 21G<26 179 26 26 552 552 552 703> 147 125<270 460 270 502 228 460> 709 20G<285 451 451 451>
LayerCount: 2
Fore
SplineSet
502 147 m 1
 228 147 l 1
 179 0 l 1
 26 0 l 1
 285 729 l 1
 451 729 l 1
 703 0 l 1
 552 0 l 1
 502 147 l 1
460 272 m 1
 365 557 l 1
 270 272 l 1
 460 272 l 1
EndSplineSet
EndChar

StartChar: afii10018
Encoding: 423 1041 316
Width: 722
Flags: MW
HStem: 0 125<232 410> 338 125<232 395 232 395 395 411> 604 125<232 594 232 232>
VStem: 82 150<125 338 463 604> 522 144<200.5 262>
LayerCount: 2
Fore
SplineSet
395 463 m 2
 618 463 666 328 666 226 c 0
 666 168 638 90 594 53 c 0
 550 16 494 0 410 0 c 2
 82 0 l 1
 82 729 l 1
 594 729 l 1
 594 604 l 1
 232 604 l 1
 232 463 l 1
 395 463 l 2
232 338 m 1
 232 125 l 1
 411 125 l 2
 484 125 522 170 522 231 c 0
 522 293 484 338 411 338 c 2
 232 338 l 1
EndSplineSet
EndChar

StartChar: afii10019
Encoding: 424 1042 317
Width: 722
Flags: W
HStem: 0 125<232 410> 314 125<232 395 232 395 395 411> 604 125<232 232 232 395>
VStem: 82 150<125 314 439 604> 501 144<506 548> 522 144<188.5 246 181 250>
LayerCount: 2
Fore
SplineSet
82 0 m 1xf4
 82 729 l 1
 407 729 l 2
 485 729 536 713 579 676 c 0
 620 640 645 587 645 537 c 0xf8
 645 475 612 414 545 387 c 1
 627 363 666 282 666 210 c 0
 666 152 638 90 594 53 c 0
 550 16 494 0 410 0 c 2
 82 0 l 1xf4
232 604 m 1
 232 439 l 1
 395 439 l 2
 464 439 501 468 501 521 c 0
 501 575 464 604 395 604 c 2
 232 604 l 1
232 314 m 1
 232 125 l 1
 411 125 l 2
 484 125 522 158 522 219 c 0xf4
 522 281 484 314 411 314 c 2
 232 314 l 1
EndSplineSet
EndChar

StartChar: afii10020
Encoding: 425 1043 318
Width: 611
Flags: MW
HStem: 0 21G<82 232 82 82> 604 125<232 594 232 232>
VStem: 82 150<0 604>
LayerCount: 2
Fore
SplineSet
232 0 m 1
 82 0 l 1
 82 729 l 1
 594 729 l 1
 594 604 l 1
 232 604 l 1
 232 0 l 1
EndSplineSet
EndChar

StartChar: afii10021
Encoding: 426 1044 319
Width: 900
Flags: W
HStem: 0 125<333 600 333 735> 604 125<380 600 380 380>
VStem: 35 130<-150 0 -150 108 -150 108> 230 150<461 604> 600 150<125 604 604 604> 735 130<-150 0 0 0>
LayerCount: 2
Fore
SplineSet
139 108 m 2xf4
 192 108 230 255 230 461 c 2
 230 729 l 1
 750 729 l 1
 750 108 l 1xf8
 865 108 l 1
 865 -150 l 1
 735 -150 l 1
 735 0 l 1
 165 0 l 1
 165 -150 l 1
 35 -150 l 1
 35 108 l 1
 139 108 l 2xf4
333 125 m 1
 600 125 l 1
 600 604 l 1
 380 604 l 1
 380 414 l 2
 380 319 373 209 333 125 c 1
EndSplineSet
EndChar

StartChar: afii10022
Encoding: 427 1045 320
Width: 709
Flags: MW
HStem: 0 125<232 627 232 627> 314 125<232 581 232 581> 604 125<232 609 232 232>
VStem: 82 150<125 314 125 439 439 604>
LayerCount: 2
Fore
SplineSet
232 314 m 1
 232 125 l 1
 627 125 l 1
 627 0 l 1
 82 0 l 1
 82 729 l 1
 609 729 l 1
 609 604 l 1
 232 604 l 1
 232 439 l 1
 581 439 l 1
 581 314 l 1
 232 314 l 1
EndSplineSet
EndChar

StartChar: afii10024
Encoding: 429 1046 322
Width: 1093
Flags: MW
HStem: 0 21G<22 206 22 22 475 475 475 625 894 894 894 1078> 709 20G<66 230 230 230 475 625 625 625 870 1034 1034 1034>
VStem: 475 150<0 285 0 285 450 729>
LayerCount: 2
Fore
SplineSet
475 285 m 1
 206 0 l 1
 22 0 l 1
 379 378 l 1
 66 729 l 1
 230 729 l 1
 475 450 l 1
 475 729 l 1
 625 729 l 1
 625 450 l 1
 870 729 l 1
 1034 729 l 1
 721 378 l 1
 1078 0 l 1
 894 0 l 1
 625 285 l 1
 625 0 l 1
 475 0 l 1
 475 285 l 1
EndSplineSet
EndChar

StartChar: afii10025
Encoding: 430 1047 323
Width: 672
Flags: W
HStem: -23 120<291 387.5 291 428> 308 120<250 326 326 352 250 326> 621 120<290.5 376.5>
VStem: 32 146<218 218> 464 143<504.5 558.5> 489 144<164.5 224.5>
LayerCount: 2
Fore
SplineSet
250 428 m 1xf4
 326 428 l 2
 435 428 464 478 464 531 c 0
 464 586 415 621 338 621 c 0
 243 621 190 581 185 507 c 1
 45 507 l 1
 45 574 60 618 96 658 c 0
 145 712 226 741 331 741 c 0
 506 741 607 659 607 517 c 0xf8
 607 453 587 409 544 377 c 1
 606 343 633 293 633 213 c 0
 633 65 522 -23 334 -23 c 0
 148 -23 41 62 32 218 c 1
 178 218 l 1
 183 140 240 97 342 97 c 0
 433 97 489 134 489 195 c 0
 489 254 454 308 352 308 c 2
 250 308 l 1
 250 428 l 1xf4
EndSplineSet
EndChar

StartChar: afii10027
Encoding: 432 1049 325
Width: 757
Flags: MW
HStem: 0 21G<82 232 82 82 525 525 525 675> 709 20G<82 232 232 232 521 675 675 675> 784 77<353 398 353 412.5>
VStem: 82 150<233 729> 243 56<917 927 927 927> 525 150<0 504 504 504>
LayerCount: 2
Fore
SplineSet
507 927 m 1
 507 916 l 2
 507 841 450 784 375 784 c 0
 300 784 243 841 243 917 c 2
 243 927 l 1
 299 927 l 1
 305 883 330 861 376 861 c 0
 420 861 442 881 451 927 c 1
 507 927 l 1
232 0 m 1
 82 0 l 1
 82 729 l 1
 232 729 l 1
 232 233 l 1
 521 729 l 1
 675 729 l 1
 675 0 l 1
 525 0 l 1
 525 504 l 1
 232 0 l 1
EndSplineSet
EndChar

StartChar: afii10028
Encoding: 433 1050 326
Width: 750
Flags: MW
HStem: 0 21G<82 232 82 82 525 525 525 725> 709 20G<82 232 232 232 517 694 694 694>
VStem: 82 150<0 285 450 729>
LayerCount: 2
Fore
SplineSet
232 0 m 1
 82 0 l 1
 82 729 l 1
 232 729 l 1
 232 450 l 1
 517 729 l 1
 694 729 l 1
 328 378 l 1
 725 0 l 1
 525 0 l 1
 232 285 l 1
 232 0 l 1
EndSplineSet
EndChar

StartChar: afii10029
Encoding: 434 1051 327
Width: 729
Flags: MW
HStem: 0 21G<497 647 497 497> 604 125<275 497 275 275>
VStem: 125 150<447 604> 497 150<0 604 604 604>
LayerCount: 2
Fore
SplineSet
497 604 m 1
 275 604 l 1
 275 400 l 2
 275 223 248 -12 36 -12 c 1
 36 133 l 1
 107 132 125 228 125 447 c 2
 125 729 l 1
 647 729 l 1
 647 0 l 1
 497 0 l 1
 497 604 l 1
EndSplineSet
EndChar

StartChar: afii10030
Encoding: 435 1052 328
Width: 874
Flags: MW
HStem: 0 21G<82 232 82 82 363 363 363 513 642 642 642 792> 709 20G<82 306 306 306 566 792 792 792>
VStem: 82 150<0 568 0 729> 642 150<0 568 568 568>
LayerCount: 2
Fore
SplineSet
232 568 m 1
 232 0 l 1
 82 0 l 1
 82 729 l 1
 306 729 l 1
 438 149 l 1
 566 729 l 1
 792 729 l 1
 792 0 l 1
 642 0 l 1
 642 568 l 1
 513 0 l 1
 363 0 l 1
 232 568 l 1
EndSplineSet
EndChar

StartChar: afii10031
Encoding: 436 1053 329
Width: 753
Flags: MW
HStem: 0 21G<82 232 82 82 521 521 521 671> 331 125<232 520 232 521 232 520> 709 20G<82 232 232 232 520 671 671 671>
VStem: 82 150<0 331 0 456 456 729> 521 150<0 331 331 331>
LayerCount: 2
Fore
SplineSet
521 331 m 1
 232 331 l 1
 232 0 l 1
 82 0 l 1
 82 729 l 1
 232 729 l 1
 232 456 l 1
 520 456 l 1
 520 729 l 1
 671 729 l 1
 671 0 l 1
 521 0 l 1
 521 331 l 1
EndSplineSet
EndChar

StartChar: afii10033
Encoding: 438 1055 331
Width: 753
Flags: MW
HStem: 0 21G<82 232 82 82 521 521 521 671> 604 125<232 521 232 232>
VStem: 82 150<0 604 0 729 0 729> 521 150<0 604 604 604>
LayerCount: 2
Fore
SplineSet
521 604 m 1
 232 604 l 1
 232 0 l 1
 82 0 l 1
 82 729 l 1
 671 729 l 1
 671 0 l 1
 521 0 l 1
 521 604 l 1
EndSplineSet
EndChar

StartChar: afii10034
Encoding: 439 1056 332
Width: 671
Flags: MW
HStem: 0 21G<82 232 82 82> 260 125<232 372 232 372 372 412 232 419> 604 125<232 372 232 232>
VStem: 82 150<0 260 385 604> 489 150<457 531.5>
LayerCount: 2
Fore
SplineSet
232 260 m 1
 232 0 l 1
 82 0 l 1
 82 729 l 1
 404 729 l 2
 556 729 639 649 639 503 c 0
 639 355 553 260 419 260 c 2
 232 260 l 1
232 385 m 1
 372 385 l 2
 452 385 489 420 489 494 c 0
 489 569 452 604 372 604 c 2
 232 604 l 1
 232 385 l 1
EndSplineSet
EndChar

StartChar: afii10036
Encoding: 441 1058 334
Width: 611
Flags: MW
HStem: 0 21G<235 385 235 235> 604 125<14 235 14 598 385 598 385 385>
VStem: 235 150<0 604 0 604>
LayerCount: 2
Fore
SplineSet
385 604 m 1
 385 0 l 1
 235 0 l 1
 235 604 l 1
 14 604 l 1
 14 729 l 1
 598 729 l 1
 598 604 l 1
 385 604 l 1
EndSplineSet
EndChar

StartChar: afii10038
Encoding: 443 1060 336
Width: 892
Flags: MW
HStem: 0 21G<371 371 371 521> 94 94<340 371 340 371 521 552> 540 98<342.5 371 521 549.5> 709 20G<371 521 521 521>
VStem: 30 134<270 459 270 513> 371 150<0 94 0 94 188 540 638 729> 728 134<270 459>
LayerCount: 2
Fore
SplineSet
371 0 m 1
 371 94 l 1
 306 94 30 72 30 374 c 0
 30 652 282 638 371 638 c 1
 371 729 l 1
 521 729 l 1
 521 638 l 1
 610 638 862 652 862 374 c 0
 862 72 586 94 521 94 c 1
 521 0 l 1
 371 0 l 1
371 188 m 1
 371 540 l 1
 314 540 164 548 164 370 c 0
 164 170 309 188 371 188 c 1
521 188 m 1
 583 188 728 170 728 370 c 0
 728 548 578 540 521 540 c 1
 521 188 l 1
EndSplineSet
EndChar

StartChar: afii10039
Encoding: 444 1061 337
Width: 667
Flags: MW
HStem: 0 21G<22 196 22 22 483 654 483 483> 709 20G<30 208 208 208 470 644 644 644>
LayerCount: 2
Fore
SplineSet
429 372 m 1
 654 0 l 1
 483 0 l 1
 338 241 l 1
 196 0 l 1
 22 0 l 1
 252 367 l 1
 30 729 l 1
 208 729 l 1
 340 503 l 1
 470 729 l 1
 644 729 l 1
 429 372 l 1
EndSplineSet
EndChar

StartChar: afii10040
Encoding: 445 1062 338
Width: 816
Flags: W
HStem: 0 125<232 521 232 651> 709 20G<82 232 232 232 521 671 671 671>
VStem: 82 150<125 729 125 729 125 729> 521 150<125 729 108 729> 651 130<-150 0 0 0>
LayerCount: 2
Fore
SplineSet
521 125 m 1xf0
 521 729 l 1
 671 729 l 1
 671 108 l 1xf0
 781 108 l 1
 781 -150 l 1
 651 -150 l 1
 651 0 l 1xe8
 82 0 l 1
 82 729 l 1
 232 729 l 1
 232 125 l 1
 521 125 l 1xf0
EndSplineSet
EndChar

StartChar: afii10041
Encoding: 446 1063 339
Width: 685
Flags: MW
HStem: 0 21G<474 624 474 474> 225 125<242 473 328 473 328 474> 709 20G<68 218 218 218 473 624 624 624>
VStem: 68 150<447 453 453 729> 474 150<0 225 225 225>
LayerCount: 2
Fore
SplineSet
474 225 m 1
 316 225 l 2
 168 225 68 321 68 447 c 2
 68 729 l 1
 218 729 l 1
 218 453 l 2
 218 387 270 350 328 350 c 2
 473 350 l 1
 473 729 l 1
 624 729 l 1
 624 0 l 1
 474 0 l 1
 474 225 l 1
EndSplineSet
EndChar

StartChar: afii10042
Encoding: 447 1064 340
Width: 1057
Flags: MW
HStem: 0 125<218 437 587 817> 709 20G<68 218 218 218 437 587 587 587 817 967 967 967>
VStem: 68 150<125 729 125 729 125 729> 437 150<125 729 125 729> 817 150<125 729>
LayerCount: 2
Fore
SplineSet
967 0 m 1
 68 0 l 1
 68 729 l 1
 218 729 l 1
 218 125 l 1
 437 125 l 1
 437 729 l 1
 587 729 l 1
 587 125 l 1
 817 125 l 1
 817 729 l 1
 967 729 l 1
 967 0 l 1
EndSplineSet
EndChar

StartChar: afii10043
Encoding: 448 1065 341
Width: 1183
Flags: W
HStem: 0 125<218 447 597 827> 709 20G<68 218 218 218 447 597 597 597 827 977 977 977>
VStem: 68 150<125 729 125 729 125 729> 447 150<125 729 125 729> 827 150<125 729 108 729> 962 135<-150 0 0 0>
LayerCount: 2
Fore
SplineSet
962 0 m 1xf4
 68 0 l 1
 68 729 l 1
 218 729 l 1
 218 125 l 1
 447 125 l 1
 447 729 l 1
 597 729 l 1
 597 125 l 1
 827 125 l 1
 827 729 l 1
 977 729 l 1
 977 108 l 1xf8
 1097 108 l 1
 1097 -150 l 1
 962 -150 l 1
 962 0 l 1xf4
EndSplineSet
EndChar

StartChar: afii10044
Encoding: 449 1066 342
Width: 833
Flags: MW
HStem: 0 125<394 534 534 566> 344 125<394 581 394 534> 604 125<14 244 14 394>
VStem: 244 150<125 344 125 469 469 604 604 604> 651 150<197.5 272>
LayerCount: 2
Fore
SplineSet
394 469 m 1
 581 469 l 2
 715 469 801 374 801 226 c 0
 801 80 718 0 566 0 c 2
 244 0 l 1
 244 604 l 1
 14 604 l 1
 14 729 l 1
 394 729 l 1
 394 469 l 1
394 344 m 1
 394 125 l 1
 534 125 l 2
 614 125 651 160 651 235 c 0
 651 309 614 344 534 344 c 2
 394 344 l 1
EndSplineSet
EndChar

StartChar: afii10045
Encoding: 450 1067 343
Width: 949
Flags: MW
HStem: 0 125<218 358 358 390> 344 125<218 405 218 358> 709 20G<68 218 218 218 734 884 884 884>
VStem: 68 150<125 344 125 469 469 729> 475 150<197.5 272> 734 150<0 729 0 729>
LayerCount: 2
Fore
SplineSet
884 729 m 1
 884 0 l 1
 734 0 l 1
 734 729 l 1
 884 729 l 1
218 469 m 1
 405 469 l 2
 539 469 625 374 625 226 c 0
 625 80 542 0 390 0 c 2
 68 0 l 1
 68 729 l 1
 218 729 l 1
 218 469 l 1
218 344 m 1
 218 125 l 1
 358 125 l 2
 438 125 475 160 475 235 c 0
 475 309 438 344 358 344 c 2
 218 344 l 1
EndSplineSet
EndChar

StartChar: afii10046
Encoding: 451 1068 344
Width: 687
Flags: MW
HStem: 0 125<226 366 366 398> 344 125<226 413 226 366> 709 20G<76 226 226 226>
VStem: 76 150<125 344 125 469 469 729> 483 150<197.5 272>
LayerCount: 2
Fore
SplineSet
226 469 m 1
 413 469 l 2
 547 469 633 374 633 226 c 0
 633 80 550 0 398 0 c 2
 76 0 l 1
 76 729 l 1
 226 729 l 1
 226 469 l 1
226 344 m 1
 226 125 l 1
 366 125 l 2
 446 125 483 160 483 235 c 0
 483 309 446 344 366 344 c 2
 226 344 l 1
EndSplineSet
EndChar

StartChar: afii10047
Encoding: 452 1069 345
Width: 722
Flags: MW
HStem: -23 126<304.5 403.5 304.5 456.5> 311 125<241 532 241 532 241 533> 613 128<320 394.5>
LayerCount: 2
Fore
SplineSet
241 311 m 1
 241 436 l 1
 532 436 l 1
 512 548 443 613 346 613 c 0
 294 613 251 595 223 560 c 0
 207 540 199 521 190 482 c 1
 47 482 l 1
 52 545 65 585 96 626 c 0
 152 700 242 741 351 741 c 0
 557 741 685 594 685 358 c 0
 685 124 558 -23 355 -23 c 0
 174 -23 53 82 44 249 c 1
 190 249 l 1
 199 156 258 103 351 103 c 0
 456 103 521 179 533 311 c 1
 241 311 l 1
EndSplineSet
EndChar

StartChar: afii10048
Encoding: 453 1070 346
Width: 1099
Flags: MW
HStem: -23 128<640 744> 311 125<218 354 218 357> 613 128<640 743.5 640 753.5>
VStem: 68 150<0 311 0 436 436 729> 883 150<302.5 411 302.5 434>
LayerCount: 2
Fore
SplineSet
357 436 m 1
 370 515 404 587 453 640 c 0
 515 707 589 741 691 741 c 0
 796 741 867 709 931 640 c 0
 996 570 1033 468 1033 354 c 0
 1033 251 994 145 931 78 c 0
 868 10 796 -23 692 -23 c 0
 588 -23 516 10 453 78 c 0
 398 137 363 220 354 311 c 1
 218 311 l 1
 218 0 l 1
 68 0 l 1
 68 729 l 1
 218 729 l 1
 218 436 l 1
 357 436 l 1
692 613 m 0
 571 613 501 512 501 359 c 0
 501 206 571 105 692 105 c 0
 812 105 883 206 883 355 c 0
 883 513 815 613 692 613 c 0
EndSplineSet
EndChar

StartChar: afii10049
Encoding: 454 1071 347
Width: 698
Flags: MW
HStem: 0 21G<22 201 22 22 483 483 483 633> 604 125<311 343 343 483>
VStem: 76 150<457 531.5 457 576> 483 150<0 260 260 260 385 604 604 604>
LayerCount: 2
Fore
SplineSet
422 260 m 1
 201 0 l 1
 22 0 l 1
 242 265 l 1
 154 282 76 364 76 503 c 0
 76 649 159 729 311 729 c 2
 633 729 l 1
 633 0 l 1
 483 0 l 1
 483 260 l 1
 422 260 l 1
483 385 m 1
 483 604 l 1
 343 604 l 2
 263 604 226 569 226 494 c 0
 226 420 263 385 343 385 c 2
 483 385 l 1
EndSplineSet
EndChar

StartChar: afii10066
Encoding: 456 1073 349
Width: 606
Flags: MW
HStem: -23 117<271.5 341.5 271.5 390.5> 432 117<304.5 341.5>
VStem: 50 119 425 140<213 299.5 181.5 312>
LayerCount: 2
Fore
SplineSet
438 776 m 1
 542 777 l 1
 542 736 542 690 509 666 c 0
 426 606 334 642 253 592 c 0
 204 562 170 516 169 462 c 1
 204 532 271 549 338 549 c 0
 404 549 470 515 507 462 c 0
 543 410 565 336 565 263 c 0
 565 100 476 -23 305 -23 c 0
 143 -23 50 50 50 292 c 0
 50 428 62 589 190 670 c 0
 235 698 322 716 386 724 c 0
 434 730 438 776 438 776 c 1
307 432 m 0
 237 432 189 363 189 265 c 0
 189 162 236 94 307 94 c 0
 376 94 425 164 425 262 c 0
 425 362 376 432 307 432 c 0
EndSplineSet
EndChar

StartChar: afii10067
Encoding: 457 1074 350
Width: 572
Flags: W
HStem: 0 110<200 300 300 327 200 329> 223 110<200 294 200 294 294 300> 430 110<200 200 200 294>
VStem: 60 140<110 223 333 430> 368 135<375 400> 379 139<147.5 181.5 133.5 193>
LayerCount: 2
Fore
SplineSet
60 0 m 1xf4
 60 540 l 1
 326 540 l 2
 384 540 422 529 454 501 c 0
 484 475 503 435 503 398 c 0xf8
 503 352 474 300 429 286 c 1
 490 268 518 208 518 155 c 0
 518 112 498 66 465 39 c 0
 432 11 391 0 329 0 c 2
 60 0 l 1xf4
200 430 m 1
 200 333 l 1
 294 333 l 2
 345 333 368 341 368 380 c 0
 368 420 345 430 294 430 c 2
 200 430 l 1
200 223 m 1
 200 110 l 1
 300 110 l 2
 354 110 379 125 379 170 c 0xf4
 379 216 354 223 300 223 c 2
 200 223 l 1
EndSplineSet
EndChar

StartChar: afii10068
Encoding: 458 1075 351
Width: 454
Flags: MW
HStem: 0 21G<60 200 60 60> 427 113<200 408 200 200>
VStem: 60 140<0 427 0 540 0 540>
LayerCount: 2
Fore
SplineSet
408 540 m 1
 408 427 l 1
 200 427 l 1
 200 0 l 1
 60 0 l 1
 60 540 l 1
 408 540 l 1
EndSplineSet
EndChar

StartChar: afii10069
Encoding: 459 1076 352
Width: 685
Flags: W
HStem: -125 226<23 85 85 109.5 23 133 23 85 580 662> 0 113<263 440 263 552> 427 113<302 440 302 302>
VStem: 23 110<-125 0 -125 101 -125 101> 162 140<388 427 317.5 540> 440 140<113 427 427 427> 552 110<-125 0 0 0>
LayerCount: 2
Fore
SplineSet
580 101 m 1xbc
 662 101 l 1
 662 -125 l 1
 552 -125 l 1xba
 552 0 l 1
 133 0 l 1x7a
 133 -125 l 1
 23 -125 l 1
 23 101 l 1
 85 101 l 2
 134 101 162 252 162 388 c 2
 162 540 l 1
 580 540 l 1
 580 101 l 1xbc
263 113 m 1x7c
 440 113 l 1
 440 427 l 1
 302 427 l 1
 302 376 l 2
 302 259 290 174 263 113 c 1x7c
EndSplineSet
EndChar

StartChar: afii10072
Encoding: 462 1078 355
Width: 809
Flags: MW
HStem: 0 21G<16 195 16 16 332 332 332 472 609 609 609 788> 520 20G<52 200 200 200 332 472 472 472 604 752 752 752>
VStem: 332 140<0 198 0 198 351 540>
LayerCount: 2
Fore
SplineSet
332 198 m 1
 195 0 l 1
 16 0 l 1
 229 296 l 1
 52 540 l 1
 200 540 l 1
 332 351 l 1
 332 540 l 1
 472 540 l 1
 472 351 l 1
 604 540 l 1
 752 540 l 1
 575 296 l 1
 788 0 l 1
 609 0 l 1
 472 198 l 1
 472 0 l 1
 332 0 l 1
 332 198 l 1
EndSplineSet
EndChar

StartChar: afii10073
Encoding: 463 1079 356
Width: 546
Flags: MW
HStem: -23 110<258 308.5 258 321.5> 208 110<206 300 206 298> 439 110<250.5 308.5>
LayerCount: 2
Fore
SplineSet
206 208 m 1
 206 318 l 1
 300 318 l 2
 372 318 365 367 365 389 c 0
 365 419 333 439 284 439 c 0
 217 439 184 415 183 366 c 1
 48 366 l 1
 50 480 138 549 283 549 c 0
 420 549 505 480 505 369 c 0
 505 333 494 302 475 281 c 0
 471 277 465 274 461 271 c 1
 501 246 520 213 520 160 c 0
 520 107 496 57 456 25 c 0
 416 -7 359 -23 284 -23 c 0
 120 -23 33 39 29 157 c 1
 166 157 l 1
 172 128 178 117 193 106 c 0
 211 94 240 87 276 87 c 0
 341 87 380 107 380 140 c 0
 380 162 382 208 298 208 c 2
 206 208 l 1
EndSplineSet
EndChar

StartChar: afii10075
Encoding: 465 1081 358
Width: 615
Flags: W
HStem: 0 21G<60 220 60 60 415 555 415 415> 520 20G<60 200 200 200 395 555 555 555> 580 77<286 331 286 345.5> 703 20G<176 232 232 232 384 440 440 440>
VStem: 60 140<202 540 202 540 202 540> 176 56<713 723 723 723> 415 140<0 338 338 338>
LayerCount: 2
Fore
SplineSet
60 540 m 1xfa
 200 540 l 1
 200 202 l 1
 395 540 l 1
 555 540 l 1
 555 0 l 1
 415 0 l 1
 415 338 l 1
 220 0 l 1
 60 0 l 1
 60 540 l 1xfa
440 723 m 1
 440 712 l 2
 440 637 383 580 308 580 c 0
 233 580 176 637 176 713 c 2
 176 723 l 1
 232 723 l 1xf6
 238 679 263 657 309 657 c 0
 353 657 376 677 384 723 c 1
 440 723 l 1
EndSplineSet
EndChar

StartChar: afii10076
Encoding: 466 1082 359
Width: 573
Flags: MW
HStem: 0 21G<60 200 60 60 367 549 367 367> 520 20G<60 200 200 200 362 510 510 510>
VStem: 60 140<0 198 351 540>
LayerCount: 2
Fore
SplineSet
200 351 m 1
 362 540 l 1
 510 540 l 1
 296 296 l 1
 549 0 l 1
 367 0 l 1
 200 198 l 1
 200 0 l 1
 60 0 l 1
 60 540 l 1
 200 540 l 1
 200 351 l 1
EndSplineSet
EndChar

StartChar: afii10077
Encoding: 467 1083 360
Width: 577
Flags: MW
HStem: -10 135<29 105.5> 427 113<244 377 244 244>
VStem: 104 140<378 427 234 540> 377 140<0 427 427 427>
LayerCount: 2
Fore
SplineSet
104 540 m 1
 517 540 l 1
 517 0 l 1
 377 0 l 1
 377 427 l 1
 244 427 l 1
 244 366 l 2
 244 102 182 -10 29 -10 c 1
 29 125 l 1
 102 126 104 242 104 378 c 2
 104 540 l 1
EndSplineSet
EndChar

StartChar: afii10078
Encoding: 468 1084 361
Width: 666
Flags: MW
HStem: 0 21G<60 200 60 60 297 369 297 297 466 466 466 606> 520 20G<60 235 235 235 431 606 606 606>
VStem: 60 140<0 297 0 540> 466 140<0 297 297 297>
LayerCount: 2
Fore
SplineSet
369 0 m 1
 297 0 l 1
 200 297 l 1
 200 0 l 1
 60 0 l 1
 60 540 l 1
 235 540 l 1
 333 213 l 1
 431 540 l 1
 606 540 l 1
 606 0 l 1
 466 0 l 1
 466 297 l 1
 369 0 l 1
EndSplineSet
EndChar

StartChar: afii10079
Encoding: 469 1085 362
Width: 603
Flags: MW
HStem: 0 21G<60 200 60 60 403 543 403 403> 207 113<200 403 200 403> 520 20G<60 200 200 200 403 543 543 543>
VStem: 60 140<0 207 320 540> 403 140<0 207 207 207 320 540 0 540>
LayerCount: 2
Fore
SplineSet
60 540 m 1
 200 540 l 1
 200 320 l 1
 403 320 l 1
 403 540 l 1
 543 540 l 1
 543 0 l 1
 403 0 l 1
 403 207 l 1
 200 207 l 1
 200 0 l 1
 60 0 l 1
 60 540 l 1
EndSplineSet
EndChar

StartChar: afii10081
Encoding: 471 1087 364
Width: 603
Flags: MW
HStem: 0 21G<60 200 60 60 403 543 403 403> 427 113<200 403 200 200>
VStem: 60 140<0 427 0 540 0 540> 403 140<0 427 427 427>
LayerCount: 2
Fore
SplineSet
60 540 m 1
 543 540 l 1
 543 0 l 1
 403 0 l 1
 403 427 l 1
 200 427 l 1
 200 0 l 1
 60 0 l 1
 60 540 l 1
EndSplineSet
EndChar

StartChar: afii10082
Encoding: 472 1088 365
Width: 611
Flags: MW
HStem: -24 117<314 350.5 281 413> 432 117<314 351.5>
VStem: 58 140<-218 64 211.5 312.5 460 540> 434 140<211 300 180 311.5>
LayerCount: 2
Fore
SplineSet
198 540 m 1
 198 460 l 1
 232 520 280 549 348 549 c 0
 413 549 480 515 516 464 c 0
 552 414 574 338 574 262 c 0
 574 98 478 -24 348 -24 c 0
 280 -24 232 4 198 64 c 1
 198 -218 l 1
 58 -218 l 1
 58 540 l 1
 198 540 l 1
316 432 m 0
 246 432 198 363 198 262 c 0
 198 161 246 93 316 93 c 0
 385 93 434 162 434 260 c 0
 434 363 387 432 316 432 c 0
EndSplineSet
EndChar

StartChar: afii10086
Encoding: 476 1092 369
Width: 957
Flags: MW
HStem: -24 117<251.5 288 660 696.5> 432 117<250.5 288 221.5 321 660 697.5> 699 20G<404 544 544 544>
VStem: 28 140<211 300> 404 140<-218 64 -218 64 211.5 312.5 460 719> 780 140<211 300 180 311.5>
LayerCount: 2
Fore
SplineSet
404 64 m 1
 370 4 322 -24 254 -24 c 0
 124 -24 28 98 28 262 c 0
 28 338 50 414 86 464 c 0
 122 515 189 549 254 549 c 0
 322 549 370 520 404 460 c 1
 404 719 l 1
 544 719 l 1
 544 460 l 1
 578 520 626 549 694 549 c 0
 759 549 826 515 862 464 c 0
 898 414 920 338 920 262 c 0
 920 98 824 -24 694 -24 c 0
 626 -24 578 4 544 64 c 1
 544 -218 l 1
 404 -218 l 1
 404 64 l 1
286 432 m 0
 215 432 168 363 168 260 c 0
 168 162 217 93 286 93 c 0
 356 93 404 161 404 262 c 0
 404 363 356 432 286 432 c 0
662 432 m 0
 592 432 544 363 544 262 c 0
 544 161 592 93 662 93 c 0
 731 93 780 162 780 260 c 0
 780 363 733 432 662 432 c 0
EndSplineSet
EndChar

StartChar: afii10087
Encoding: 477 1093 370
Width: 556
Flags: MW
HStem: 0 21G<16 184 16 16 367 535 367 367> 520 20G<20 188 188 188 363 531 531 531>
LayerCount: 2
Fore
SplineSet
355 272 m 1
 535 0 l 1
 367 0 l 1
 276 168 l 1
 184 0 l 1
 16 0 l 1
 196 272 l 1
 20 540 l 1
 188 540 l 1
 276 377 l 1
 363 540 l 1
 531 540 l 1
 355 272 l 1
EndSplineSet
EndChar

StartChar: afii10088
Encoding: 478 1094 371
Width: 652
Flags: W
HStem: 0 113<200 403 200 519> 520 20G<60 200 200 200 403 543 543 543>
VStem: 60 140<113 540 113 540 113 540> 403 140<113 540 101 540> 519 110<-125 0 0 0>
LayerCount: 2
Fore
SplineSet
60 0 m 1xe8
 60 540 l 1
 200 540 l 1
 200 113 l 1
 403 113 l 1
 403 540 l 1
 543 540 l 1
 543 101 l 1xf0
 629 101 l 1
 629 -125 l 1
 519 -125 l 1
 519 0 l 1
 60 0 l 1xe8
EndSplineSet
EndChar

StartChar: afii10089
Encoding: 479 1095 372
Width: 578
Flags: MW
HStem: 0 21G<378 518 378 378> 163 113<278 280 280 378> 520 20G<60 200 200 200 378 518 518 518>
VStem: 60 140<345 346 346 540> 378 140<0 163 163 163 276 540 0 540>
LayerCount: 2
Fore
SplineSet
60 540 m 1
 200 540 l 1
 200 346 l 2
 200 298 232 276 278 276 c 2
 378 276 l 1
 378 540 l 1
 518 540 l 1
 518 0 l 1
 378 0 l 1
 378 163 l 1
 280 163 l 2
 170 163 60 212 60 345 c 2
 60 540 l 1
EndSplineSet
EndChar

StartChar: afii10090
Encoding: 480 1096 373
Width: 886
Flags: MW
HStem: 0 113<200 371 511 686> 520 20G<60 200 200 200 371 511 511 511 686 826 826 826>
VStem: 60 140<113 540 113 540 113 540> 371 140<113 540 113 540> 686 140<113 540>
LayerCount: 2
Fore
SplineSet
826 0 m 1
 60 0 l 1
 60 540 l 1
 200 540 l 1
 200 113 l 1
 371 113 l 1
 371 540 l 1
 511 540 l 1
 511 113 l 1
 686 113 l 1
 686 540 l 1
 826 540 l 1
 826 0 l 1
EndSplineSet
EndChar

StartChar: afii10091
Encoding: 481 1097 374
Width: 968
Flags: MW
HStem: 0 113<200 371 511 685> 520 20G<60 200 200 200 371 511 511 511 685 825 825 825>
VStem: 60 140<113 540 113 540 113 540> 371 140<113 540 113 540> 685 140<113 540 101 540> 835 110<-125 0 0 0>
LayerCount: 2
Fore
SplineSet
835 0 m 1
 60 0 l 1
 60 540 l 1
 200 540 l 1
 200 113 l 1
 371 113 l 1
 371 540 l 1
 511 540 l 1
 511 113 l 1
 685 113 l 1
 685 540 l 1
 825 540 l 1
 825 101 l 1
 945 101 l 1
 945 -125 l 1
 835 -125 l 1
 835 0 l 1
EndSplineSet
EndChar

StartChar: afii10092
Encoding: 482 1098 375
Width: 693
Flags: MW
HStem: 0 110<331 440 440 467 331 474> 249 110<331 479 331 435> 427 113<20 191 20 331>
VStem: 191 140<110 249 359 427 427 427> 524 139<157.5 203>
LayerCount: 2
Fore
SplineSet
191 0 m 1
 191 427 l 1
 20 427 l 1
 20 540 l 1
 331 540 l 1
 331 359 l 1
 479 359 l 2
 594 359 663 278 663 168 c 0
 663 125 643 66 610 39 c 0
 577 11 536 0 474 0 c 2
 191 0 l 1
331 249 m 1
 331 110 l 1
 440 110 l 2
 494 110 524 135 524 180 c 0
 524 226 489 249 435 249 c 2
 331 249 l 1
EndSplineSet
EndChar

StartChar: afii10093
Encoding: 483 1099 376
Width: 811
Flags: MW
HStem: 0 110<200 309 309 336 200 343> 249 110<200 318 200 304> 520 20G<60 200 200 200 578 718 718 718>
VStem: 60 140<110 249 359 540> 393 139<157.5 203> 578 140<0 540 0 540>
LayerCount: 2
Fore
SplineSet
318 359 m 2
 465 359 532 278 532 168 c 0
 532 125 512 66 479 39 c 0
 446 11 405 0 343 0 c 2
 60 0 l 1
 60 540 l 1
 200 540 l 1
 200 359 l 1
 318 359 l 2
200 249 m 1
 200 110 l 1
 309 110 l 2
 363 110 393 135 393 180 c 0
 393 226 358 249 304 249 c 2
 200 249 l 1
718 540 m 1
 718 0 l 1
 578 0 l 1
 578 540 l 1
 718 540 l 1
EndSplineSet
EndChar

StartChar: afii10094
Encoding: 484 1100 377
Width: 562
Flags: MW
HStem: 0 110<200 309 309 336 200 343> 249 110<200 335 200 304> 520 20G<60 200 200 200>
VStem: 60 140<110 249 359 540> 393 139<157.5 203>
LayerCount: 2
Fore
SplineSet
335 359 m 2
 461 359 532 302 532 182 c 0
 532 78 474 0 343 0 c 2
 60 0 l 1
 60 540 l 1
 200 540 l 1
 200 359 l 1
 335 359 l 2
200 249 m 1
 200 110 l 1
 309 110 l 2
 363 110 393 135 393 180 c 0
 393 226 358 249 304 249 c 2
 200 249 l 1
EndSplineSet
EndChar

StartChar: afii10096
Encoding: 486 1102 379
Width: 888
Flags: MW
HStem: -23 113<497 572.5 497 617> 207 113<200 282 200 282> 436 113<497 573.5>
VStem: 60 140<0 207 0 320 320 540> 652 140<210.5 314>
LayerCount: 2
Fore
SplineSet
282 207 m 1
 200 207 l 1
 200 0 l 1
 60 0 l 1
 60 540 l 1
 200 540 l 1
 200 320 l 1
 282 320 l 1
 302 463 388 549 534 549 c 0
 703 549 792 442 792 259 c 0
 792 86 699 -23 535 -23 c 0
 387 -23 301 63 282 207 c 1
535 436 m 0
 459 436 418 366 418 263 c 0
 418 160 459 90 535 90 c 0
 610 90 652 160 652 261 c 0
 652 367 612 436 535 436 c 0
EndSplineSet
EndChar

StartChar: afii10097
Encoding: 487 1103 380
Width: 596
Flags: MW
HStem: 0 21G<25 204 25 25 391 391 391 531> 430 110<242 269 269 391>
VStem: 51 139<349 394.5 349 406.5> 391 140<0 207 207 207 317 430 430 430>
LayerCount: 2
Fore
SplineSet
347 207 m 1
 204 0 l 1
 25 0 l 1
 180 218 l 1
 96 241 51 310 51 385 c 0
 51 428 71 474 104 501 c 0
 137 529 178 540 240 540 c 2
 531 540 l 1
 531 0 l 1
 391 0 l 1
 391 207 l 1
 347 207 l 1
391 317 m 1
 391 430 l 1
 269 430 l 2
 215 430 190 417 190 372 c 0
 190 326 215 317 269 317 c 2
 391 317 l 1
EndSplineSet
EndChar

StartChar: afii10099
Encoding: 504 1106 397
Width: 611
Flags: MW
HStem: 0 21G<67 207 67 67 541 541> 401 119<283.5 387.5> 588 79<12 67 12 67 207 361> 709 20G<67 207 207 207>
VStem: 67 140<0 295 0 433 433 588 667 729> 401 140<32 301 301 318.5>
LayerCount: 2
Fore
SplineSet
315 -187 m 1
 315 -68 l 1
 345 -68 369 -57 385 -35 c 0
 397 -17 401 -3 401 32 c 2
 401 301 l 2
 401 336 397 350 385 368 c 0
 369 390 345 401 315 401 c 0
 252 401 207 357 207 295 c 2
 207 0 l 1
 67 0 l 1
 67 588 l 1
 12 588 l 1
 12 667 l 1
 67 667 l 1
 67 729 l 1
 207 729 l 1
 207 667 l 1
 361 667 l 1
 361 588 l 1
 207 588 l 1
 207 433 l 1
 246 492 296 520 365 520 c 0
 410 520 455 505 486 479 c 0
 523 448 541 400 541 333 c 2
 541 0 l 2
 541 -67 523 -115 486 -146 c 0
 455 -172 410 -187 365 -187 c 2
 315 -187 l 1
EndSplineSet
EndChar

StartChar: afii10100
Encoding: 505 1107 398
Width: 454
Flags: MW
HStem: 0 21G<60 200 60 60> 427 113<200 408 200 200>
VStem: 60 140<0 427 0 540 0 540>
LayerCount: 2
Fore
SplineSet
395 759 m 1
 269 609 l 1
 199 609 l 1
 269 759 l 1
 395 759 l 1
408 540 m 1
 408 427 l 1
 200 427 l 1
 200 0 l 1
 60 0 l 1
 60 540 l 1
 408 540 l 1
EndSplineSet
EndChar

StartChar: afii10101
Encoding: 506 1108 399
Width: 556
Flags: MW
HStem: -23 113<259 315 259 352.5> 207 113<179 353 179 353 178 353> 436 113<268 316.5>
LayerCount: 2
Fore
SplineSet
353 207 m 1
 178 207 l 1
 190 133 230 90 288 90 c 0
 342 90 370 117 388 187 c 1
 522 187 l 1
 509 58 418 -23 287 -23 c 0
 127 -23 34 81 34 259 c 0
 34 443 128 549 289 549 c 0
 424 549 512 470 522 338 c 1
 388 338 l 1
 372 409 345 436 288 436 c 0
 248 436 217 420 201 390 c 0
 191 371 184 347 179 320 c 1
 353 320 l 1
 353 207 l 1
EndSplineSet
EndChar

StartChar: afii10103
Encoding: 508 1110 401
Width: 278
Flags: MW
HStem: 0 21G<67 207 67 67> 520 20G<67 207 207 207> 604 125<67 207 67 207>
VStem: 67 140<0 540 0 540 604 729>
LayerCount: 2
Fore
SplineSet
207 540 m 1
 207 0 l 1
 67 0 l 1
 67 540 l 1
 207 540 l 1
207 729 m 1
 207 604 l 1
 67 604 l 1
 67 729 l 1
 207 729 l 1
EndSplineSet
EndChar

StartChar: afii10104
Encoding: 509 1111 402
Width: 278
Flags: W
HStem: 0 21G<67 207 67 67> 520 20G<67 207 207 207> 621 122<-9 101 -9 101 -9 177 177 287>
VStem: -9 110<621 743 621 743> 67 140<0 540 0 540> 177 110<621 743 621 743>
LayerCount: 2
Fore
SplineSet
101 743 m 1xf0
 101 621 l 1
 -9 621 l 1
 -9 743 l 1
 101 743 l 1xf0
287 743 m 1xe4
 287 621 l 1
 177 621 l 1
 177 743 l 1
 287 743 l 1xe4
207 540 m 1xe8
 207 0 l 1
 67 0 l 1
 67 540 l 1
 207 540 l 1xe8
EndSplineSet
EndChar

StartChar: afii10106
Encoding: 511 1113 404
Width: 923
Flags: W
HStem: 0 110<543 652 652 679 543 686> 0 135<29 105.5> 249 110<543 678 543 647> 427 113<244 403 244 244>
VStem: 104 140<388 427 244 540> 403 140<110 249 359 427 427 427> 736 139<157.5 203>
LayerCount: 2
Fore
SplineSet
403 0 m 1x7e
 403 427 l 1
 244 427 l 1
 244 376 l 2
 244 112 182 0 29 0 c 1
 29 135 l 1x7e
 102 136 104 252 104 388 c 2
 104 540 l 1
 543 540 l 1
 543 359 l 1
 678 359 l 2
 804 359 875 302 875 182 c 0
 875 78 817 0 686 0 c 2xbe
 403 0 l 1x7e
543 249 m 1
 543 110 l 1
 652 110 l 2xbe
 706 110 736 135 736 180 c 0
 736 226 701 249 647 249 c 2
 543 249 l 1
EndSplineSet
EndChar

StartChar: afii10107
Encoding: 512 1114 405
Width: 903
Flags: W
HStem: 0 110<546 655 655 682 546 689> 246 113<203 406 203 406> 249 110<546 650> 520 20G<63 203 203 203 406 546 546 546>
VStem: 63 140<0 246 0 359 359 540> 406 140<110 246 246 246 359 540> 739 139<157.5 203>
LayerCount: 2
Fore
SplineSet
406 0 m 1xbe
 406 246 l 1
 203 246 l 1
 203 0 l 1
 63 0 l 1
 63 540 l 1
 203 540 l 1
 203 359 l 1
 406 359 l 1xde
 406 540 l 1
 546 540 l 1
 546 359 l 1
 681 359 l 2
 807 359 878 302 878 182 c 0
 878 78 820 0 689 0 c 2
 406 0 l 1xbe
546 249 m 1xbe
 546 110 l 1
 655 110 l 2
 709 110 739 135 739 180 c 0
 739 226 704 249 650 249 c 2
 546 249 l 1xbe
EndSplineSet
EndChar

StartChar: afii10108
Encoding: 513 1115 406
Width: 611
Flags: MW
HStem: 0 21G<67 207 67 67 401 541 401 401> 401 119<283.5 387.5> 588 79<12 67 12 67 207 361> 709 20G<67 207 207 207>
VStem: 67 140<0 295 433 588 667 729> 401 140<0 301 301 318.5>
LayerCount: 2
Fore
SplineSet
67 667 m 1
 67 729 l 1
 207 729 l 1
 207 667 l 1
 361 667 l 1
 361 588 l 1
 207 588 l 1
 207 433 l 1
 246 492 296 520 365 520 c 0
 410 520 455 505 486 479 c 0
 523 448 541 400 541 333 c 2
 541 0 l 1
 401 0 l 1
 401 301 l 2
 401 336 397 350 385 368 c 0
 369 390 345 401 315 401 c 0
 252 401 207 357 207 295 c 2
 207 0 l 1
 67 0 l 1
 67 588 l 1
 12 588 l 1
 12 667 l 1
 67 667 l 1
EndSplineSet
EndChar

StartChar: afii10110
Encoding: 516 1118 409
Width: 556
Flags: MW
HStem: -219 103<127.5 147.5 117.5 153.5> 520 20G<9 163 163 163 394 538 538 538> 609 77<251 296 251 311>
VStem: 142 56<742 752 752 752>
LayerCount: 2
Fore
SplineSet
406 752 m 1
 406 741 l 2
 406 666 348 609 274 609 c 0
 198 609 142 666 142 742 c 2
 142 752 l 1
 198 752 l 1
 204 708 228 686 274 686 c 0
 318 686 342 706 350 752 c 1
 406 752 l 1
394 540 m 1
 538 540 l 1
 321 -99 l 2
 298 -166 276 -186 237 -202 c 0
 213 -212 171 -219 136 -219 c 0
 119 -219 107 -218 86 -215 c 1
 86 -110 l 1
 104 -115 112 -116 123 -116 c 0
 172 -116 208 -78 208 -27 c 2
 208 -23 l 1
 208 -22 l 1
 9 540 l 1
 163 540 l 1
 282 147 l 1
 394 540 l 1
EndSplineSet
EndChar

StartChar: afii10193
Encoding: 517 1119 410
Width: 608
Flags: MW
HStem: 0 113<200 247 357 404 200 544 357 357> 520 20G<60 200 200 200 404 544 544 544>
VStem: 60 140<113 540 113 540 113 540> 247 110<-125 0 -125 0> 404 140<113 540 0 540>
LayerCount: 2
Fore
SplineSet
357 0 m 1
 357 -125 l 1
 247 -125 l 1
 247 0 l 1
 60 0 l 1
 60 540 l 1
 200 540 l 1
 200 113 l 1
 404 113 l 1
 404 540 l 1
 544 540 l 1
 544 0 l 1
 357 0 l 1
EndSplineSet
EndChar

StartChar: uni048D
Encoding: 519 1165 412
Width: 562
Flags: MW
HStem: 0 110<200 322 322 349 200 351> 223 110<200 316 200 316 316 322> 392 79<-20 60 -20 60 200 279> 520 20G<60 200 200 200>
VStem: 60 140<110 223 110 333 333 392 471 540> 401 139<147.5 155 133.5 193>
LayerCount: 2
Fore
SplineSet
200 223 m 1
 200 110 l 1
 322 110 l 2
 376 110 401 125 401 170 c 0
 401 216 376 223 322 223 c 2
 200 223 l 1
200 471 m 1
 279 471 l 1
 279 392 l 1
 200 392 l 1
 200 333 l 1
 316 333 l 2
 463 333 537 267 540 155 c 1
 540 112 520 66 487 39 c 0
 454 11 413 0 351 0 c 2
 60 0 l 1
 60 392 l 1
 -20 392 l 1
 -20 471 l 1
 60 471 l 1
 60 540 l 1
 200 540 l 1
 200 471 l 1
EndSplineSet
EndChar

StartChar: uni048E
Encoding: 520 1166 413
Width: 667
Flags: MW
HStem: 0 21G<76 226 76 76> 260 125<226 366 366 371.5 226 413 226 366> 604 125<226 366 226 226>
VStem: 76 150<0 260 385 604> 483 150<480.5 531.5>
LayerCount: 2
Fore
SplineSet
468 428 m 1
 478 445 483 467 483 494 c 0
 483 569 446 604 366 604 c 2
 226 604 l 1
 226 385 l 1
 366 385 l 2
 377 385 388 386 397 387 c 1
 352 432 l 1
 408 488 l 1
 468 428 l 1
572 324 m 1
 619 277 l 1
 563 221 l 1
 506 278 l 1
 479 266 447 260 413 260 c 2
 226 260 l 1
 226 0 l 1
 76 0 l 1
 76 729 l 1
 398 729 l 2
 550 729 633 649 633 503 c 0
 633 428 611 367 572 324 c 1
EndSplineSet
EndChar

StartChar: uni048F
Encoding: 521 1167 414
Width: 611
Flags: MW
HStem: -24 117<314 324 281 368> 432 117<314 351.5>
VStem: 58 140<-218 64 211.5 312.5 460 540> 434 140<241.5 300 222.5 311.5>
LayerCount: 2
Fore
SplineSet
414 163 m 1
 427 189 434 223 434 260 c 0
 434 363 387 432 316 432 c 0
 246 432 198 363 198 262 c 0
 198 161 246 93 316 93 c 0
 332 93 347 97 361 104 c 1
 306 159 l 1
 362 215 l 1
 414 163 l 1
514 63 m 1
 573 4 l 1
 517 -52 l 1
 457 8 l 1
 425 -12 388 -24 348 -24 c 0
 280 -24 232 4 198 64 c 1
 198 -218 l 1
 58 -218 l 1
 58 540 l 1
 198 540 l 1
 198 460 l 1
 232 520 280 549 348 549 c 0
 413 549 480 515 516 464 c 0
 552 414 574 338 574 262 c 0
 574 183 552 114 514 63 c 1
EndSplineSet
EndChar

StartChar: afii10050
Encoding: 522 1168 415
Width: 611
Flags: MW
HStem: 0 21G<74 224 74 74> 604 124<436 436 436 586>
VStem: 74 150<0 604> 436 150<728 864 604 864>
LayerCount: 2
Fore
SplineSet
224 0 m 1
 74 0 l 1
 74 729 l 1
 436 728 l 1
 436 864 l 1
 586 864 l 1
 586 604 l 1
 224 604 l 1
 224 0 l 1
EndSplineSet
EndChar

StartChar: afii10098
Encoding: 523 1169 416
Width: 454
Flags: MW
HStem: 0 21G<64 204 64 64> 427 113<204 284 64 412 204 204>
VStem: 64 140<0 427 0 540 0 540> 284 128<540 666 427 666>
LayerCount: 2
Fore
SplineSet
412 666 m 1
 412 427 l 1
 204 427 l 1
 204 0 l 1
 64 0 l 1
 64 540 l 1
 284 540 l 1
 284 666 l 1
 412 666 l 1
EndSplineSet
EndChar

StartChar: uni0492
Encoding: 524 1170 417
Width: 611
Flags: MW
HStem: 0 21G<82 232 82 82> 314 125<4 82 4 82 232 423> 604 125<232 594 232 232>
VStem: 82 150<0 314 0 314 439 604>
LayerCount: 2
Fore
SplineSet
232 439 m 1
 423 439 l 1
 423 314 l 1
 232 314 l 1
 232 0 l 1
 82 0 l 1
 82 314 l 1
 4 314 l 1
 4 439 l 1
 82 439 l 1
 82 729 l 1
 594 729 l 1
 594 604 l 1
 232 604 l 1
 232 439 l 1
EndSplineSet
EndChar

StartChar: uni0493
Encoding: 525 1171 418
Width: 454
Flags: MW
HStem: 0 21G<60 200 60 60> 239 90<-6 60 -6 60 200 304> 427 113<200 408 200 200>
VStem: 60 140<0 239 0 239 329 427>
LayerCount: 2
Fore
SplineSet
60 329 m 1
 60 540 l 1
 408 540 l 1
 408 427 l 1
 200 427 l 1
 200 329 l 1
 304 329 l 1
 304 239 l 1
 200 239 l 1
 200 0 l 1
 60 0 l 1
 60 239 l 1
 -6 239 l 1
 -6 329 l 1
 60 329 l 1
EndSplineSet
EndChar

StartChar: uni0494
Encoding: 526 1172 419
Width: 611
Flags: MW
HStem: -172 125<314 339 339 351 314 339> 0 21G<74 224 74 74> 379 125<224 339 224 351> 604 125<224 586 224 224>
VStem: 74 150<0 379 504 604> 449 150<56 276 276 282>
LayerCount: 2
Fore
SplineSet
224 0 m 1
 74 0 l 1
 74 729 l 1
 586 729 l 1
 586 604 l 1
 224 604 l 1
 224 504 l 1
 351 504 l 2
 499 504 599 408 599 282 c 2
 599 50 l 2
 599 -76 499 -172 351 -172 c 2
 314 -172 l 1
 314 -47 l 1
 339 -47 l 2
 397 -47 449 -10 449 56 c 2
 449 276 l 2
 449 342 397 379 339 379 c 2
 224 379 l 1
 224 0 l 1
EndSplineSet
EndChar

StartChar: uni0495
Encoding: 527 1173 420
Width: 584
Flags: MW
HStem: 0 21G<60 200 60 60 534 534> 211 119<303.5 321> 427 113<200 408 200 200>
VStem: 60 140<0 125 273 427> 394 140<32 111 111 143>
LayerCount: 2
Fore
SplineSet
200 125 m 2
 200 0 l 1
 60 0 l 1
 60 540 l 1
 408 540 l 1
 408 427 l 1
 200 427 l 1
 200 273 l 1
 228 318 269 330 338 330 c 0
 383 330 448 315 479 289 c 0
 516 258 534 210 534 143 c 2
 534 0 l 2
 534 -67 516 -115 479 -146 c 0
 448 -172 403 -187 358 -187 c 2
 308 -187 l 1
 308 -68 l 1
 338 -68 362 -57 378 -35 c 0
 390 -17 394 -3 394 32 c 2
 394 111 l 2
 394 190 354 211 288 211 c 0
 225 211 200 168 200 125 c 2
EndSplineSet
EndChar

StartChar: uni0496
Encoding: 528 1174 421
Width: 1093
Flags: MW
HStem: -20 20G<22 201 22 22 475 625 475 475 899 943 899 899> 709 20G<66 230 230 230 475 625 625 625 870 1034 1034 1034>
VStem: 475 150<0 285 0 285 450 729> 943 135<-150 0 0 0>
LayerCount: 2
Fore
SplineSet
976 108 m 1
 1078 108 l 1
 1078 -150 l 1
 943 -150 l 1
 943 0 l 1
 899 0 l 1
 625 285 l 1
 625 0 l 1
 475 0 l 1
 475 285 l 1
 201 0 l 1
 22 0 l 1
 379 378 l 1
 66 729 l 1
 230 729 l 1
 475 450 l 1
 475 729 l 1
 625 729 l 1
 625 450 l 1
 870 729 l 1
 1034 729 l 1
 721 378 l 1
 976 108 l 1
EndSplineSet
EndChar

StartChar: uni0498
Encoding: 530 1176 423
Width: 672
Flags: W
HStem: -234 51<290 308.5 272 348.5> 308 120<250 326 326 352 250 326> 621 120<290.5 376.5>
VStem: 32 146<218 218> 358 90<-150 -116 -168 -111> 464 143<504.5 558.5> 489 144<164.5 224.5>
LayerCount: 2
Fore
SplineSet
280 -20 m 1xfa
 128 -5 40 78 32 218 c 1
 178 218 l 1
 183 140 240 97 342 97 c 0
 433 97 489 134 489 195 c 0xfa
 489 254 454 308 352 308 c 2
 250 308 l 1
 250 428 l 1
 326 428 l 2
 435 428 464 478 464 531 c 0
 464 586 415 621 338 621 c 0
 243 621 190 581 185 507 c 1
 45 507 l 1
 45 574 60 618 96 658 c 0
 145 712 226 741 331 741 c 0
 506 741 607 659 607 517 c 0xfc
 607 453 587 409 544 377 c 1
 606 343 633 293 633 213 c 0
 633 75 536 -11 370 -22 c 1
 419 -51 448 -93 448 -139 c 0
 448 -197 393 -234 304 -234 c 0
 276 -234 252 -231 225 -224 c 1
 225 -177 l 1
 243 -181 262 -183 282 -183 c 0
 335 -183 358 -167 358 -133 c 0
 358 -89 340 -61 280 -20 c 1xfa
EndSplineSet
EndChar

StartChar: uni0499
Encoding: 531 1177 424
Width: 546
Flags: MW
HStem: -234 51<248 266.5 230 306.5> 208 110<206 298 206 300> 439 110<250.5 308.5>
VStem: 316 90<-150 -116 -168 -111>
LayerCount: 2
Fore
SplineSet
327 -21 m 1
 377 -51 406 -93 406 -139 c 0
 406 -197 351 -234 262 -234 c 0
 234 -234 210 -231 183 -224 c 1
 183 -177 l 1
 201 -181 220 -183 240 -183 c 0
 293 -183 316 -167 316 -133 c 0
 316 -89 298 -62 240 -21 c 1
 104 -11 33 50 29 157 c 1
 166 157 l 1
 172 128 178 117 193 106 c 0
 211 94 240 87 276 87 c 0
 341 87 380 107 380 140 c 0
 380 162 382 208 298 208 c 2
 206 208 l 1
 206 318 l 1
 300 318 l 2
 372 318 365 367 365 389 c 0
 365 419 333 439 284 439 c 0
 217 439 184 415 183 366 c 1
 48 366 l 1
 50 480 138 549 283 549 c 0
 420 549 505 480 505 369 c 0
 505 333 494 302 475 281 c 0
 471 277 465 274 461 271 c 1
 501 246 520 213 520 160 c 0
 520 107 496 57 456 25 c 0
 424 -1 381 -16 327 -21 c 1
EndSplineSet
EndChar

StartChar: uni049A
Encoding: 532 1178 425
Width: 750
Flags: MW
HStem: -20 20G<82 232 82 82 525 595 525 525> 709 20G<82 232 232 232 517 694 694 694>
VStem: 82 150<0 285 450 729> 595 130<-150 0 0 0>
LayerCount: 2
Fore
SplineSet
612 108 m 1
 725 108 l 1
 725 -150 l 1
 595 -150 l 1
 595 0 l 1
 525 0 l 1
 232 285 l 1
 232 0 l 1
 82 0 l 1
 82 729 l 1
 232 729 l 1
 232 450 l 1
 517 729 l 1
 694 729 l 1
 328 378 l 1
 612 108 l 1
EndSplineSet
EndChar

StartChar: uni049B
Encoding: 533 1179 426
Width: 573
Flags: MW
HStem: -20 20G<60 200 60 60 367 439 367 367> 520 20G<60 200 200 200 362 510 510 510>
VStem: 60 140<0 198 351 540> 439 110<-125 0 0 0>
LayerCount: 2
Fore
SplineSet
463 101 m 1
 549 101 l 1
 549 -125 l 1
 439 -125 l 1
 439 0 l 1
 367 0 l 1
 200 198 l 1
 200 0 l 1
 60 0 l 1
 60 540 l 1
 200 540 l 1
 200 351 l 1
 362 540 l 1
 510 540 l 1
 296 296 l 1
 463 101 l 1
EndSplineSet
EndChar

StartChar: uni049C
Encoding: 534 1180 427
Width: 722
Flags: MW
HStem: 0 21G<82 232 82 82 525 525 525 725> 709 20G<82 232 232 232 517 694 694 694>
VStem: 82 150<0 285 450 729> 276 79<100 165 100 242 100 242 570 639>
LayerCount: 2
Fore
SplineSet
276 242 m 1
 232 285 l 1
 232 0 l 1
 82 0 l 1
 82 729 l 1
 232 729 l 1
 232 450 l 1
 276 493 l 1
 276 639 l 1
 355 639 l 1
 355 570 l 1
 517 729 l 1
 694 729 l 1
 355 404 l 1
 355 352 l 1
 725 0 l 1
 525 0 l 1
 355 165 l 1
 355 100 l 1
 276 100 l 1
 276 242 l 1
EndSplineSet
EndChar

StartChar: uni049D
Encoding: 535 1181 428
Width: 573
Flags: MW
HStem: 0 21G<60 200 60 60 367 367 367 549> 520 20G<60 200 200 200 362 510 510 510>
VStem: 60 140<0 198 351 540> 236 79<35 62 35 155 485 519>
LayerCount: 2
Fore
SplineSet
236 155 m 1
 200 198 l 1
 200 0 l 1
 60 0 l 1
 60 540 l 1
 200 540 l 1
 200 351 l 1
 236 393 l 1
 236 519 l 1
 315 519 l 1
 315 485 l 1
 362 540 l 1
 510 540 l 1
 315 318 l 1
 315 274 l 1
 549 0 l 1
 367 0 l 1
 315 62 l 1
 315 35 l 1
 236 35 l 1
 236 155 l 1
EndSplineSet
EndChar

StartChar: uni049E
Encoding: 536 1182 429
Width: 722
Flags: MW
HStem: 0 21G<74 224 74 74 538 724 538 538> 587 79<2 74 2 74 224 301> 709 20G<74 224 224 224 509 686 686 686>
VStem: 74 150<0 285 450 587 666 729>
LayerCount: 2
Fore
SplineSet
224 666 m 1
 301 666 l 1
 301 587 l 1
 224 587 l 1
 224 450 l 1
 509 729 l 1
 686 729 l 1
 320 378 l 1
 724 0 l 1
 538 0 l 1
 224 285 l 1
 224 0 l 1
 74 0 l 1
 74 587 l 1
 2 587 l 1
 2 666 l 1
 74 666 l 1
 74 729 l 1
 224 729 l 1
 224 666 l 1
EndSplineSet
EndChar

StartChar: uni049F
Encoding: 537 1183 430
Width: 573
Flags: MW
HStem: 0 21G<59 199 59 59 366 548 366 366> 442 59<8 59 8 59 199 253> 520 20G<59 199 199 199 361 509 509 509>
VStem: 59 140<0 198 351 442 501 540>
LayerCount: 2
Fore
SplineSet
199 501 m 1
 253 501 l 1
 253 442 l 1
 199 442 l 1
 199 351 l 1
 361 540 l 1
 509 540 l 1
 295 296 l 1
 548 0 l 1
 366 0 l 1
 199 198 l 1
 199 0 l 1
 59 0 l 1
 59 442 l 1
 8 442 l 1
 8 501 l 1
 59 501 l 1
 59 540 l 1
 199 540 l 1
 199 501 l 1
EndSplineSet
EndChar

StartChar: uni04A0
Encoding: 538 1184 431
Width: 912
Flags: MW
HStem: 0 21G<244 394 244 244 687 887 687 687> 604 125<14 244 14 394>
VStem: 244 150<0 285 450 604 604 604>
LayerCount: 2
Fore
SplineSet
394 729 m 1
 394 450 l 1
 679 729 l 1
 856 729 l 1
 490 378 l 1
 887 0 l 1
 687 0 l 1
 394 285 l 1
 394 0 l 1
 244 0 l 1
 244 604 l 1
 14 604 l 1
 14 729 l 1
 394 729 l 1
EndSplineSet
EndChar

StartChar: uni04A1
Encoding: 539 1185 432
Width: 704
Flags: MW
HStem: 0 21G<191 331 191 191 498 680 498 498> 427 113<20 191 20 331>
VStem: 191 140<0 198 351 427 427 427>
LayerCount: 2
Fore
SplineSet
331 540 m 1
 331 351 l 1
 493 540 l 1
 641 540 l 1
 427 296 l 1
 680 0 l 1
 498 0 l 1
 331 198 l 1
 331 0 l 1
 191 0 l 1
 191 427 l 1
 20 427 l 1
 20 540 l 1
 331 540 l 1
EndSplineSet
EndChar

StartChar: uni04A2
Encoding: 540 1186 433
Width: 753
Flags: W
HStem: -20 20G<82 232 82 82 521 656 521 521> 331 125<232 520 232 521 232 520> 709 20G<82 232 232 232 520 671 671 671>
VStem: 82 150<0 331 0 456 456 729> 521 150<108 108 108 331 331 331> 656 135<-150 0 0 0>
LayerCount: 2
Fore
SplineSet
671 108 m 1xf8
 791 108 l 1
 791 -150 l 1
 656 -150 l 1
 656 0 l 1xf4
 521 0 l 1
 521 331 l 1
 232 331 l 1
 232 0 l 1
 82 0 l 1
 82 729 l 1
 232 729 l 1
 232 456 l 1
 520 456 l 1
 520 729 l 1
 671 729 l 1
 671 108 l 1xf8
EndSplineSet
EndChar

StartChar: uni04A3
Encoding: 541 1187 434
Width: 608
Flags: W
HStem: -20 20G<60 200 60 60 403 519 403 403> 207 113<200 403 200 403> 520 20G<60 200 200 200 403 543 543 543>
VStem: 60 140<0 207 0 320 320 540> 403 140<101 101 101 207 207 207 320 540> 519 110<-125 0 0 0>
LayerCount: 2
Fore
SplineSet
543 101 m 1xf8
 629 101 l 1
 629 -125 l 1
 519 -125 l 1
 519 0 l 1xf4
 403 0 l 1
 403 207 l 1
 200 207 l 1
 200 0 l 1
 60 0 l 1
 60 540 l 1
 200 540 l 1
 200 320 l 1
 403 320 l 1
 403 540 l 1
 543 540 l 1
 543 101 l 1xf8
EndSplineSet
EndChar

StartChar: uni04A4
Encoding: 542 1188 435
Width: 985
Flags: MW
HStem: 0 21G<68 218 68 68 507 656 507 507> 331 125<218 506 218 507 218 506> 604 125<656 968 656 656>
VStem: 68 150<0 331 0 456 456 729> 507 149<0 331 331 331>
LayerCount: 2
Fore
SplineSet
656 0 m 1
 507 0 l 1
 507 331 l 1
 218 331 l 1
 218 0 l 1
 68 0 l 1
 68 729 l 1
 218 729 l 1
 218 456 l 1
 506 456 l 1
 506 729 l 1
 968 729 l 1
 968 604 l 1
 656 604 l 1
 656 0 l 1
EndSplineSet
EndChar

StartChar: uni04A5
Encoding: 543 1189 436
Width: 787
Flags: MW
HStem: 0 21G<60 200 60 60 403 543 403 403> 207 113<200 403 200 403> 427 113<543 741 543 543>
VStem: 60 140<0 207 0 320 320 540> 403 140<0 207 207 207 320 427>
LayerCount: 2
Fore
SplineSet
543 0 m 1
 403 0 l 1
 403 207 l 1
 200 207 l 1
 200 0 l 1
 60 0 l 1
 60 540 l 1
 200 540 l 1
 200 320 l 1
 403 320 l 1
 403 540 l 1
 741 540 l 1
 741 427 l 1
 543 427 l 1
 543 0 l 1
EndSplineSet
EndChar

StartChar: uni04A6
Encoding: 544 1190 437
Width: 1092
Flags: MW
HStem: -172 125<747 772 772 784 747 772> 0 21G<68 218 68 68 507 657 507 507> 379 125<657 772 657 784> 604 125<218 507 218 218>
VStem: 68 150<0 604 0 729 0 729> 507 150<0 379 504 604 604 604> 882 150<56 276 276 282>
LayerCount: 2
Fore
SplineSet
657 0 m 1
 507 0 l 1
 507 604 l 1
 218 604 l 1
 218 0 l 1
 68 0 l 1
 68 729 l 1
 657 729 l 1
 657 504 l 1
 784 504 l 2
 932 504 1032 408 1032 282 c 2
 1032 50 l 2
 1032 -76 932 -172 784 -172 c 2
 747 -172 l 1
 747 -47 l 1
 772 -47 l 2
 830 -47 882 -10 882 56 c 2
 882 276 l 2
 882 342 830 379 772 379 c 2
 657 379 l 1
 657 0 l 1
EndSplineSet
EndChar
